<?xml version="1.0" standalone="no"?>
<!DOCTYPE svg PUBLIC "-//W3C//DTD SVG 20010904//EN"
 "http://www.w3.org/TR/2001/REC-SVG-20010904/DTD/svg10.dtd">
<svg version="1.0" xmlns="http://www.w3.org/2000/svg"
 width="317.000000pt" height="159.000000pt" viewBox="0 0 317.000000 159.000000"
 preserveAspectRatio="xMidYMid meet">

<g transform="translate(0.000000,159.000000) scale(0.100000,-0.100000)"
fill="#000000" stroke="none">
<path d="M246 1139 l-26 -20 0 -300 0 -300 26 -24 c15 -14 39 -25 53 -25 14 0
40 -9 56 -20 38 -25 76 -25 108 0 37 30 104 27 137 -5 51 -49 134 -49 166 0
l16 25 1043 0 c574 0 1051 3 1060 6 40 16 45 51 45 333 0 188 -4 278 -12 296
-26 58 45 55 -1356 55 -1289 0 -1289 0 -1316 -21z m654 -99 c0 -9 -12 -13 -75
-25 -18 -4 -25 -27 -58 -202 -21 -109 -37 -206 -37 -215 0 -17 -16 -18 -190
-18 -120 0 -190 4 -190 10 0 6 67 10 180 10 152 0 180 2 180 15 0 12 -30 15
-187 17 l-187 3 -28 154 c-16 84 -27 155 -25 157 2 3 112 23 243 45 131 22
245 43 252 47 21 11 122 13 122 2z m1452 -106 c38 -20 61 -69 61 -130 0 -93
-51 -144 -142 -144 -44 0 -56 5 -89 34 -36 34 -37 36 -37 110 0 69 2 77 30
106 48 50 110 58 177 24z m-1227 -9 c28 -27 32 -61 10 -92 -13 -18 -12 -22 5
-38 26 -24 26 -79 1 -104 -25 -25 -68 -33 -151 -29 l-65 3 -3 143 -3 142 91 0
c83 0 93 -2 115 -25z m145 -76 c0 -119 8 -139 55 -139 47 0 55 20 55 139 l0
101 31 0 31 0 -4 -121 c-3 -118 -4 -121 -31 -145 -22 -19 -39 -24 -82 -24 -43
0 -60 5 -82 24 -27 24 -28 27 -31 145 l-4 121 31 0 31 0 0 -101z m299 45 l34
-56 31 56 c28 50 34 56 63 56 18 0 33 -2 33 -5 0 -2 -22 -40 -50 -83 -46 -73
-50 -84 -50 -140 l0 -62 -30 0 -30 0 0 62 c0 56 -4 67 -50 140 -27 43 -50 81
-50 83 0 3 15 5 33 5 29 0 36 -6 66 -56z m410 -39 l56 -90 3 93 c3 90 3 92 27
92 l25 0 0 -145 0 -145 -29 0 c-25 0 -35 11 -84 93 l-57 92 0 -93 0 -93 -27 3
-28 3 -3 143 -3 143 32 -3 c29 -3 39 -13 88 -93z m520 58 c5 -21 13 -56 17
-78 12 -71 20 -67 44 25 l23 91 35 -3 35 -3 26 -95 25 -95 19 98 c20 97 20 97
50 97 34 0 35 11 -9 -177 l-27 -113 -32 0 c-32 0 -32 0 -55 88 -12 48 -26 93
-30 101 -4 8 -17 -27 -32 -85 l-24 -99 -34 0 -34 0 -28 120 c-15 66 -30 130
-33 143 -5 19 -1 22 24 22 26 0 31 -5 40 -37z m-1781 -392 c4 -28 -14 -51 -42
-51 -30 0 -46 18 -46 52 0 55 80 54 88 -1z m-294 6 c9 -14 7 -21 -7 -32 -33
-24 -71 11 -46 42 15 18 39 13 53 -10z"/>
<path d="M713 998 l-53 -10 0 -49 0 -50 47 3 c40 3 48 6 53 28 14 54 19 90 12
89 -4 -1 -31 -6 -59 -11z"/>
<path d="M558 973 c-26 -4 -28 -8 -28 -50 l0 -45 31 6 c17 3 39 6 49 6 14 0
19 10 22 45 3 49 3 50 -74 38z"/>
<path d="M448 953 c-24 -4 -28 -9 -28 -39 0 -34 0 -34 46 -34 l47 0 -7 31 c-3
17 -6 35 -6 40 0 9 -4 9 -52 2z"/>
<path d="M333 933 c-40 -8 -26 -63 16 -63 40 0 53 13 45 43 -6 27 -14 29 -61
20z"/>
<path d="M668 863 c-14 -3 -18 -15 -18 -50 l0 -46 37 6 c44 8 49 12 57 60 7
37 7 37 -26 36 -18 -1 -41 -3 -50 -6z"/>
<path d="M463 853 c-32 -4 -33 -6 -33 -50 0 -37 3 -44 16 -39 9 3 27 6 40 6
22 0 24 4 24 45 0 25 -3 44 -7 43 -5 0 -23 -3 -40 -5z"/>
<path d="M534 838 c3 -13 6 -33 6 -45 0 -20 5 -23 40 -23 27 0 40 4 40 14 0 7
3 28 6 45 l7 31 -53 0 c-49 0 -52 -1 -46 -22z"/>
<path d="M330 821 c0 -49 9 -61 47 -61 28 0 34 3 29 16 -3 9 -6 29 -6 45 0 27
-3 29 -35 29 -32 0 -35 -2 -35 -29z"/>
<path d="M573 743 c-31 -4 -33 -7 -33 -44 l0 -40 38 3 c36 3 37 4 40 46 2 23
0 41 -5 40 -4 0 -23 -3 -40 -5z"/>
<path d="M646 728 c-3 -13 -6 -33 -6 -45 0 -20 5 -23 35 -23 19 0 35 3 35 8 0
4 4 24 9 45 l9 37 -38 0 c-31 0 -39 -4 -44 -22z"/>
<path d="M350 716 c0 -40 11 -56 36 -56 21 0 24 4 24 40 0 38 -2 40 -30 40
-25 0 -30 -4 -30 -24z"/>
<path d="M438 700 c4 -39 5 -40 43 -40 41 0 46 8 33 58 -5 18 -13 22 -43 22
l-37 0 4 -40z"/>
<path d="M2234 892 c-38 -25 -46 -114 -13 -156 15 -19 30 -26 55 -26 51 0 74
28 74 93 0 70 -19 97 -68 97 -20 0 -42 -4 -48 -8z"/>
<path d="M980 870 l0 -31 53 3 c48 3 52 5 52 28 0 23 -4 25 -52 28 l-53 3 0
-31z"/>
<path d="M987 783 c-4 -3 -7 -21 -7 -40 0 -32 1 -33 44 -33 60 0 76 8 76 36 0
17 -8 27 -26 34 -29 11 -78 13 -87 3z"/>
</g>
</svg>
