<?xml version="1.0" standalone="no"?>
<!DOCTYPE svg PUBLIC "-//W3C//DTD SVG 20010904//EN"
 "http://www.w3.org/TR/2001/REC-SVG-20010904/DTD/svg10.dtd">
<svg version="1.0" xmlns="http://www.w3.org/2000/svg"
 width="761.000000pt" height="517.000000pt" viewBox="0 0 761.000000 517.000000"
 preserveAspectRatio="xMidYMid meet">

<g transform="translate(0.000000,517.000000) scale(0.100000,-0.100000)"
fill="#000000" stroke="none">
<path d="M4069 5086 c-60 -16 -134 -60 -160 -95 -20 -28 -23 -29 -57 -17 -41
14 -30 19 -467 -194 l-230 -112 80 -32 c44 -18 148 -59 230 -91 83 -32 164
-63 181 -70 30 -12 31 -15 30 -69 0 -53 -2 -56 -26 -56 -37 0 -100 -19 -100
-30 0 -6 12 -10 28 -10 l27 0 -32 -20 c-25 -15 -33 -27 -33 -49 0 -24 7 -32
43 -50 39 -19 40 -21 15 -21 -16 0 -28 -4 -28 -9 0 -14 35 -23 120 -31 41 -4
63 -8 48 -9 -18 0 -28 -7 -28 -16 0 -10 10 -15 28 -16 25 0 25 -1 6 -10 -15
-8 -37 -4 -90 16 -100 39 -123 45 -129 34 -4 -5 -1 -9 4 -9 6 0 11 -9 11 -20
0 -14 -7 -20 -21 -20 -20 0 -21 -1 -5 -25 20 -31 20 -36 -1 -29 -10 3 -6 -2
10 -11 15 -8 27 -20 27 -26 0 -6 4 -8 9 -5 15 10 121 -42 121 -59 0 -20 -16
-19 -65 5 -22 11 -46 19 -53 20 -7 0 -25 6 -40 14 -59 30 -76 28 -29 -4 26
-17 47 -33 47 -35 0 -6 -74 17 -102 31 -44 23 -49 19 -46 -42 l3 -56 63 -25
c34 -14 62 -29 62 -34 0 -11 -44 -2 -84 17 -61 29 -62 27 -61 -118 l0 -132
100 -44 c55 -24 125 -55 155 -67 30 -13 56 -30 58 -39 2 -9 -1 -16 -7 -16 -6
0 -73 27 -149 60 -76 32 -148 58 -160 57 -20 -1 -21 -6 -20 -84 2 -102 18
-100 18 3 0 44 4 74 10 74 6 0 32 -11 58 -24 26 -13 76 -36 111 -50 36 -14 82
-34 102 -43 l38 -18 1 -72 c0 -44 -4 -73 -10 -73 -6 0 -73 27 -149 60 -76 33
-143 60 -149 60 -6 0 -8 -10 -4 -22 3 -12 1 -19 -5 -15 -5 3 -10 0 -10 -8 0
-8 4 -12 9 -9 4 3 8 -5 8 -17 0 -19 -2 -20 -17 -8 -14 12 -16 12 -11 -1 3 -8
13 -14 23 -13 27 2 150 -53 134 -61 -8 -3 -4 -4 8 -2 12 2 30 -3 40 -11 17
-13 16 -13 -4 -3 -13 6 -23 7 -23 2 0 -5 -20 -3 -45 6 -26 8 -42 19 -38 25 3
6 1 7 -6 3 -6 -4 -23 -1 -36 8 -22 14 -25 14 -39 0 -9 -8 -16 -27 -16 -42 0
-20 -3 -23 -9 -12 -6 8 -7 18 -5 22 3 4 0 8 -5 8 -6 0 -11 -4 -11 -10 0 -5 -6
-7 -14 -4 -8 3 -17 0 -21 -5 -3 -6 -11 -9 -16 -6 -18 12 -8 24 25 31 19 3 37
13 40 21 5 12 0 13 -27 8 -17 -4 -38 -12 -45 -18 -18 -15 -28 1 -14 23 8 14 9
27 2 45 -13 33 -13 38 0 30 6 -3 10 -1 10 4 0 6 -13 11 -30 11 -16 0 -30 4
-30 8 0 31 -208 53 -312 33 -110 -21 -191 -49 -248 -86 -30 -20 -66 -38 -80
-42 -14 -3 -37 -14 -52 -24 -14 -11 -31 -19 -37 -19 -12 0 -33 -16 -98 -74
-24 -21 -43 -34 -43 -29 0 5 6 15 13 22 9 10 7 10 -11 0 -12 -8 -20 -19 -18
-26 5 -13 -51 -33 -91 -33 -13 0 -23 -4 -23 -10 0 -5 -8 -10 -19 -10 -10 0
-38 -7 -62 -16 -24 -9 -58 -17 -74 -19 -41 -4 -105 -43 -99 -60 4 -9 14 -5 35
16 34 33 41 36 32 12 -6 -17 -5 -17 14 0 30 27 39 20 12 -9 l-24 -27 30 19 30
18 -17 -20 c-23 -26 -23 -41 -2 -19 13 13 19 14 25 4 13 -22 -7 -54 -40 -63
-19 -5 -38 -20 -46 -36 -10 -20 -25 -30 -52 -35 -21 -4 -44 -12 -52 -18 -12
-10 -13 -9 -8 6 4 11 3 16 -3 12 -6 -3 -10 -1 -10 6 0 7 -3 10 -6 7 -3 -4 -1
-15 4 -25 9 -16 39 -36 125 -80 15 -8 24 -19 21 -24 -3 -6 0 -10 7 -8 29 3 38
-1 32 -18 -4 -10 -2 -14 5 -9 6 3 28 -5 48 -19 26 -18 46 -24 62 -20 21 5 22
4 12 -15 -10 -19 -9 -20 8 -9 12 7 27 9 38 4 11 -4 25 -7 31 -6 7 1 13 -4 13
-10 0 -7 -3 -10 -6 -6 -3 3 -14 -2 -25 -11 -21 -18 -6 -35 24 -26 9 3 17 1 17
-4 0 -12 34 -11 42 2 5 8 8 7 8 -1 0 -8 14 -13 33 -14 29 -1 29 -2 8 -8 -14
-4 -26 -12 -29 -19 -5 -16 15 -16 21 1 2 6 8 9 12 4 5 -4 1 -13 -9 -20 -17
-12 -17 -14 8 -30 l26 -17 -6 30 c-5 23 -3 30 10 30 9 0 16 -4 16 -9 0 -5 9
-11 20 -14 13 -3 18 -10 14 -21 -3 -9 -1 -16 5 -16 6 0 11 10 11 23 0 16 3 19
9 8 5 -8 18 -12 30 -8 12 3 21 1 21 -4 0 -5 -5 -9 -11 -9 -5 0 -7 -6 -3 -12 6
-10 4 -10 -7 0 -18 16 -29 15 -29 -3 0 -8 6 -15 14 -15 8 0 22 -7 30 -16 15
-14 16 -14 16 0 0 9 6 16 13 16 9 0 8 3 -2 9 -8 5 -9 11 -3 15 6 3 12 0 15 -6
6 -19 -13 -56 -32 -61 -11 -3 -9 -5 6 -6 14 -1 24 6 28 19 3 11 13 20 21 20
17 0 18 -12 2 -29 -11 -11 -8 -12 12 -6 25 8 25 8 6 -14 -19 -21 -19 -21 17
-36 20 -8 41 -15 47 -15 5 0 10 -5 10 -11 0 -5 4 -7 10 -4 20 12 38 -19 32
-57 -2 -21 0 -44 6 -51 6 -7 12 -31 13 -52 1 -22 7 -46 12 -52 6 -9 6 -13 -1
-13 -5 0 -10 -15 -10 -32 0 -18 -5 -45 -11 -60 -12 -32 -14 -31 103 -93 100
-52 153 -75 124 -51 -22 16 -23 26 -4 26 17 0 41 65 37 100 -5 43 -6 45 -21
56 -11 10 -12 17 -2 38 9 20 8 34 -5 69 -16 43 -16 45 5 72 20 25 22 26 22 7
0 -11 6 -23 13 -26 10 -5 10 -7 0 -12 -7 -3 -13 -10 -13 -15 0 -14 28 -11 32
3 6 17 76 17 83 1 2 -7 12 -13 22 -13 15 0 16 -2 3 -10 -14 -9 -13 -11 19 -14
8 0 16 -8 18 -16 4 -13 3 -13 -5 -1 -8 11 -10 8 -9 -12 2 -20 5 -23 16 -14 19
16 70 16 64 0 -3 -7 0 -13 6 -13 6 0 11 4 11 10 0 14 32 -1 52 -25 10 -11 15
-26 13 -32 -6 -18 14 -16 21 2 8 21 37 19 57 -3 20 -22 21 -29 5 -35 -7 -2 -6
-3 2 -2 8 2 24 6 34 11 19 7 19 7 3 -16 -31 -45 -17 -44 25 0 23 25 37 36 31
26 -21 -39 38 -64 84 -37 15 10 42 23 58 29 30 10 29 10 -15 11 -33 1 -41 4
-30 11 12 8 11 10 -6 10 -20 0 -51 26 -47 39 1 3 -5 5 -13 3 -9 -2 -21 1 -28
7 -7 6 -17 6 -26 1 -25 -16 -35 -11 -14 6 10 8 14 13 7 9 -7 -3 -21 3 -33 15
-11 11 -32 20 -46 20 -27 0 -54 20 -54 42 -1 7 -7 2 -15 -12 l-14 -25 -1 27
c0 23 8 32 48 52 26 14 70 44 97 67 53 44 174 106 198 100 5 -1 6 3 3 8 -8 12
37 47 77 60 18 6 77 20 132 31 54 11 122 31 150 44 28 13 83 26 121 30 85 9
118 20 170 62 59 48 106 71 175 89 33 9 111 34 172 55 l111 39 48 -30 c56 -36
93 -83 90 -115 -1 -20 7 -26 52 -40 66 -21 135 -13 174 21 15 13 24 27 19 31
-4 4 -18 -3 -31 -15 -14 -13 -31 -21 -38 -18 -10 4 -10 6 0 6 15 1 16 37 2 46
-6 4 -10 3 -9 -2 3 -19 -2 -33 -12 -33 -6 0 -8 9 -4 20 5 16 2 20 -16 20 -18
0 -21 4 -16 29 3 15 1 33 -6 40 -8 8 -7 11 3 11 11 1 10 4 -4 15 -10 8 -16 20
-13 28 3 8 0 20 -6 26 -8 8 -8 11 1 11 7 0 12 -5 12 -12 0 -6 6 -3 14 7 14 19
62 33 51 15 -3 -5 -13 -10 -21 -10 -8 0 -12 -5 -9 -10 4 -6 1 -9 -7 -8 -7 2
-14 -7 -16 -19 -2 -13 1 -23 7 -23 6 0 11 -7 11 -16 0 -29 23 -8 35 33 7 22
16 46 20 53 12 20 24 -9 19 -45 -2 -17 3 -8 12 20 15 44 18 48 26 29 7 -14 5
-46 -5 -98 -7 -42 -11 -76 -7 -76 4 0 15 27 25 61 12 40 27 66 43 77 19 12 23
21 18 44 -3 16 -2 27 3 24 5 -3 11 3 14 13 3 12 17 21 40 25 20 4 46 16 59 27
l23 20 -55 -6 c-30 -4 -63 -9 -72 -11 -12 -4 -18 0 -18 10 0 19 -39 47 -54 39
-6 -3 2 8 18 25 l30 32 -45 0 c-24 -1 -62 -7 -84 -15 -29 -10 -50 -12 -75 -5
-63 16 -172 23 -365 25 -104 0 -199 5 -209 10 -13 5 -17 5 -13 -2 10 -15 -76
-25 -234 -28 -123 -1 -139 -4 -164 -23 -15 -12 -39 -22 -54 -22 l-26 1 29 21
c25 19 48 26 93 30 7 1 10 5 7 9 -3 5 4 14 16 21 19 12 20 22 20 199 0 193 6
221 40 199 8 -6 25 -10 38 -10 20 0 22 4 22 58 0 75 29 106 110 115 62 7 29
19 435 -146 368 -149 786 -319 1140 -464 l110 -45 33 18 c29 16 39 16 83 5
l50 -13 128 87 c77 52 133 97 140 113 7 14 11 59 10 99 -1 40 1 76 4 80 4 3 7
10 7 15 0 4 -67 -36 -149 -91 l-149 -100 -73 28 c-41 16 -103 40 -139 54 -36
15 -240 96 -455 181 -380 151 -621 250 -718 296 l-47 22 24 25 c22 22 50 108
41 123 -2 3 16 18 41 34 24 15 41 32 38 37 -3 6 -11 5 -20 -2 -11 -9 -14 -8
-14 4 0 9 -9 19 -20 22 -17 5 -20 15 -20 66 0 32 4 59 9 59 8 0 207 -75 506
-190 192 -74 310 -119 510 -195 83 -31 218 -83 300 -115 83 -32 162 -62 178
-65 37 -10 34 -25 -5 -26 -18 0 -64 -6 -103 -13 -53 -10 -65 -15 -50 -21 11
-4 46 -19 78 -32 48 -20 68 -23 116 -17 87 10 163 -10 199 -51 16 -18 32 -39
34 -46 3 -10 15 -7 46 14 30 19 40 31 35 44 -5 12 -3 14 7 8 12 -8 100 32 100
46 0 6 -239 99 -523 203 -27 10 -46 20 -44 22 4 4 202 -67 494 -178 l92 -35
202 135 c140 93 198 137 188 142 -8 4 -84 33 -169 63 -85 31 -236 85 -335 122
-99 37 -216 80 -260 95 -44 16 -143 52 -220 80 -77 28 -151 55 -165 60 -14 4
-133 47 -265 95 -132 47 -296 107 -365 131 -69 25 -141 51 -160 59 -19 8 -165
61 -325 118 l-290 104 -12 93 c-28 209 -65 265 -192 293 -87 20 -264 21 -332
3z m163 -103 c-33 -38 -63 -78 -66 -90 -4 -13 -12 -23 -18 -23 -17 0 -181 61
-192 71 -12 11 28 55 69 77 46 23 82 30 178 31 l89 1 -60 -67z m217 -23 c23
-52 41 -210 25 -210 -10 0 -236 81 -244 87 -2 2 8 29 24 59 34 64 95 114 142
114 28 0 34 -5 53 -50z m-624 -192 c7 -7 -1 -8 -22 -3 -21 4 -33 3 -33 -4 0
-6 -5 -11 -10 -11 -7 0 -7 7 0 20 11 21 43 20 65 -2z m40 -28 c3 -5 1 -10 -4
-10 -6 0 -11 5 -11 10 0 6 2 10 4 10 3 0 8 -4 11 -10z m-123 -22 c-7 -7 -12
-8 -12 -2 0 6 3 14 7 17 3 4 9 5 12 2 2 -3 -1 -11 -7 -17z m216 6 c22 -10 31
-18 24 -21 -8 -3 -19 0 -25 6 -6 6 -19 11 -28 11 -10 0 -21 5 -24 10 -9 15 10
12 53 -6z m73 -96 c13 -35 26 -67 28 -73 2 -5 0 -7 -4 -3 -14 13 -64 138 -55
138 4 0 18 -28 31 -62z m254 -287 l150 -59 3 -57 c2 -44 -1 -62 -15 -78 -13
-14 -15 -21 -5 -24 6 -3 12 -14 12 -25 0 -15 -4 -18 -17 -13 -10 4 -27 10 -37
13 -29 8 -11 -13 23 -28 29 -12 30 -14 33 -93 2 -45 3 -83 2 -85 -1 -1 -51 16
-113 39 l-111 42 0 54 c0 57 -2 60 -40 38 -49 -28 -49 -27 -45 158 3 179 3
177 8 177 1 0 70 -27 152 -59z m145 34 c36 -13 56 -24 45 -24 -17 0 -128 46
-115 48 3 0 34 -10 70 -24z m-550 -31 c58 -23 113 -44 123 -47 19 -7 24 -27 6
-27 -10 0 -50 16 -166 66 -17 8 -36 14 -43 14 -21 0 -51 21 -44 31 3 6 9 9 12
7 4 -2 54 -22 112 -44z m1440 26 c0 -5 -4 -10 -10 -10 -5 0 -10 5 -10 10 0 6
5 10 10 10 6 0 10 -4 10 -10z m-845 -88 c-6 -7 -34 11 -29 19 3 5 11 3 19 -4
7 -6 12 -13 10 -15z m-785 -22 c0 -16 4 -31 9 -34 5 -3 11 -14 13 -24 5 -17 1
-18 -40 -10 -25 4 -58 16 -74 26 l-28 18 27 26 c48 45 93 44 93 -2z m1025 11
c46 -18 46 -18 23 -33 -36 -23 -68 -39 -68 -34 0 3 14 12 30 21 31 16 40 35
18 35 -7 0 -35 9 -63 20 -63 26 -10 17 60 -9z m915 -16 c0 -8 -4 -15 -10 -15
-5 0 -10 7 -10 15 0 8 5 15 10 15 6 0 10 -7 10 -15z m-645 -86 c71 -27 164
-63 205 -79 41 -16 149 -57 240 -91 91 -34 206 -77 255 -96 157 -61 419 -159
474 -179 8 -2 12 -7 9 -10 -3 -2 -101 32 -219 77 -118 44 -254 96 -304 114
-49 18 -223 84 -385 146 -162 62 -331 125 -375 141 -44 16 -82 32 -85 35 -10
12 57 -10 185 -58z m-358 35 c-3 -3 -12 -4 -19 -1 -8 3 -5 6 6 6 11 1 17 -2
13 -5z m683 -40 c0 -8 -5 -12 -10 -9 -6 4 -8 11 -5 16 9 14 15 11 15 -7z
m-814 -109 c20 -15 13 -18 -23 -9 -13 4 -23 10 -23 15 0 14 24 11 46 -6z
m1124 -5 c0 -5 -4 -10 -10 -10 -5 0 -10 5 -10 10 0 6 5 10 10 10 6 0 10 -4 10
-10z m-972 -66 c12 -4 22 -11 22 -16 0 -10 -39 -1 -54 13 -12 11 -1 11 32 3z
m-424 -65 c-3 -5 -10 -7 -15 -3 -5 3 -7 10 -3 15 3 5 10 7 15 3 5 -3 7 -10 3
-15z m-734 -24 c0 -20 -17 -38 -24 -26 -4 6 -1 11 6 11 7 1 -2 7 -20 15 -42
18 -34 38 8 22 17 -6 30 -16 30 -22z m130 -50 c23 -13 23 -14 4 -15 -11 0 -29
7 -40 15 -26 19 1 20 36 0z m10 -35 c0 -5 -4 -10 -10 -10 -5 0 -10 5 -10 10 0
6 5 10 10 10 6 0 10 -4 10 -10z m-70 -30 c8 -5 11 -10 5 -10 -5 0 -17 5 -25
10 -8 5 -10 10 -5 10 6 0 17 -5 25 -10z m-43 -56 c-6 -6 -93 28 -107 42 -8 8
13 3 48 -12 34 -15 61 -29 59 -30z m-87 6 c13 -8 13 -10 -2 -10 -9 0 -20 5
-23 10 -8 13 5 13 25 0z m9 -49 c-6 -2 -18 4 -27 13 -15 15 -15 15 10 4 15 -7
23 -15 17 -17z m56 19 c3 -5 2 -10 -4 -10 -5 0 -13 5 -16 10 -3 6 -2 10 4 10
5 0 13 -4 16 -10z m55 -20 c13 -8 13 -10 -2 -10 -9 0 -20 5 -23 10 -8 13 5 13
25 0z m1245 -40 c61 -23 117 -42 125 -42 8 -1 17 -4 20 -8 3 -4 51 -23 107
-42 57 -19 100 -38 95 -43 -4 -5 -1 -5 5 -1 7 4 36 -4 65 -18 29 -14 65 -28
80 -31 16 -4 26 -11 23 -15 -3 -5 3 -6 13 -3 11 2 26 -2 34 -11 9 -8 18 -13
21 -10 3 3 16 -1 29 -9 12 -8 40 -20 61 -27 20 -6 37 -16 37 -21 0 -6 5 -7 10
-4 6 4 25 -1 43 -10 17 -9 68 -30 112 -46 44 -16 87 -32 95 -36 8 -3 18 -5 23
-5 4 1 7 -3 7 -8 0 -6 7 -10 15 -10 35 0 9 17 -73 49 -48 18 -130 51 -182 71
-52 21 -130 52 -173 69 -42 17 -96 39 -120 49 -23 11 -71 29 -107 42 -36 13
-74 29 -85 36 -11 6 -53 24 -92 39 -40 15 -75 31 -79 36 -7 12 2 11 24 -1 9
-5 46 -19 82 -31 36 -11 139 -50 230 -86 91 -36 194 -76 230 -90 36 -13 101
-39 145 -57 44 -19 119 -49 167 -67 81 -31 108 -49 75 -49 -23 0 -53 -53 -60
-104 -4 -27 -9 -51 -11 -53 -2 -2 -23 5 -47 16 -24 11 -134 57 -244 101 -554
225 -743 305 -758 319 -5 5 -10 28 -12 52 -3 42 -5 45 -60 71 -31 14 -59 29
-63 32 -18 18 99 -9 193 -44z m-1300 30 c13 -6 15 -9 5 -9 -8 0 -22 4 -30 9
-18 12 -2 12 25 0z m-65 -10 c8 -5 11 -10 5 -10 -5 0 -17 5 -25 10 -8 5 -10
10 -5 10 6 0 17 -5 25 -10z m130 -20 c8 -5 11 -10 5 -10 -5 0 -17 5 -25 10 -8
5 -10 10 -5 10 6 0 17 -5 25 -10z m-125 -20 c3 -6 -1 -7 -9 -4 -18 7 -21 14
-7 14 6 0 13 -4 16 -10z m162 -37 c-6 -5 -67 21 -67 29 0 4 16 0 35 -9 19 -9
33 -18 32 -20z m-112 17 c3 -5 2 -10 -4 -10 -5 0 -13 5 -16 10 -3 6 -2 10 4
10 5 0 13 -4 16 -10z m-35 -15 c14 -8 19 -14 10 -14 -8 0 -26 6 -40 14 -14 8
-19 14 -10 14 8 0 26 -6 40 -14z m74 -44 c-2 -3 -12 3 -22 13 -16 17 -16 18 5
5 12 -7 20 -15 17 -18z m61 -15 c19 -8 35 -18 35 -21 0 -5 -70 21 -79 30 -8 9
10 5 44 -9z m-451 -211 c-9 -21 23 -19 35 3 6 9 11 12 11 5 0 -7 6 -10 13 -8
16 6 31 -5 46 -32 14 -27 14 -36 1 -28 -5 3 -10 1 -10 -6 0 -8 -4 -8 -15 1
-12 10 -15 10 -15 -3 0 -10 -6 -14 -14 -11 -26 10 -26 -14 0 -35 l27 -21 -26
0 c-14 0 -38 -5 -53 -10 -39 -15 -42 -4 -4 15 26 13 29 19 19 31 -6 8 -16 14
-21 14 -6 0 -5 -7 2 -15 7 -9 8 -15 2 -15 -14 0 -22 24 -12 39 5 9 10 10 14 2
11 -17 26 -13 19 6 -4 11 -3 14 5 9 7 -4 12 -2 12 4 0 6 4 9 9 6 12 -8 41 3
41 15 0 5 -11 8 -25 7 -14 -1 -25 -5 -25 -9 0 -14 -32 -2 -42 14 -5 10 -23 18
-41 18 l-32 2 35 7 c19 4 38 8 42 9 4 0 5 -6 2 -14z m-124 -17 c-19 -5 -53
-16 -74 -24 -22 -8 -36 -10 -30 -4 15 15 86 39 114 38 20 0 18 -2 -10 -10z
m64 -4 c26 -10 18 -22 -10 -16 -17 3 -25 1 -21 -5 4 -6 -4 -10 -18 -10 -14 0
-28 3 -31 8 -3 5 1 6 8 4 8 -3 22 1 33 9 24 18 20 17 39 10z m46 -27 c0 -5 -4
-5 -10 -2 -5 3 -10 14 -10 23 0 15 2 15 10 2 5 -8 10 -19 10 -23z m-18 -69
c-8 -8 -12 -9 -12 -1 0 6 -3 20 -6 30 -7 17 -6 17 12 1 14 -14 16 -20 6 -30z
m-22 1 c0 -15 -5 -20 -22 -17 -27 4 -35 25 -11 31 31 8 33 7 33 -14z m145 11
c-3 -5 -13 -10 -21 -10 -8 0 -12 5 -9 10 3 6 13 10 21 10 8 0 12 -4 9 -10z
m2995 -5 c0 -2 -10 -9 -22 -15 -22 -11 -22 -10 -4 4 21 17 26 19 26 11z
m-2970 -26 c0 -5 -4 -9 -10 -9 -5 0 -10 7 -10 16 0 8 5 12 10 9 6 -3 10 -10
10 -16z m-20 -36 c0 -11 -4 -13 -12 -5 -8 5 -22 6 -33 1 -11 -4 -27 -8 -35 -8
-30 -1 16 24 49 26 22 2 31 -2 31 -14z m425 -4 c11 -17 -1 -21 -15 -4 -8 9 -8
15 -2 15 6 0 14 -5 17 -11z m-295 -21 c-5 -60 -2 -64 68 -93 37 -16 69 -33 70
-37 2 -4 11 -8 20 -8 15 -1 64 -30 50 -30 -7 0 -87 32 -162 64 -35 16 -41 16
-55 2 -14 -15 -13 -16 8 -16 13 0 29 -7 35 -15 6 -9 27 -18 45 -20 48 -6 59
-20 36 -45 -22 -24 -13 -26 21 -4 28 19 43 12 24 -11 -7 -9 -10 -18 -6 -22 3
-3 6 -2 6 4 0 13 40 22 62 14 12 -5 13 -12 7 -30 -8 -20 -11 -22 -26 -10 -14
12 -15 11 -9 -11 6 -20 5 -22 -4 -8 -6 9 -17 15 -24 12 -7 -3 -21 3 -31 12
-10 10 -20 13 -23 8 -4 -6 -17 -10 -29 -10 -16 0 -19 3 -12 13 9 9 3 12 -24
10 -25 -2 -34 0 -30 10 3 7 10 13 16 13 23 0 -5 13 -34 17 -23 2 -30 -1 -26
-10 3 -8 1 -20 -5 -28 -6 -10 -8 -2 -6 27 2 30 0 40 -9 37 -7 -3 -10 -17 -8
-36 l5 -32 -11 33 c-7 25 -7 38 2 48 9 11 9 17 -1 29 -14 17 -5 69 10 60 6 -3
7 1 4 9 -4 11 0 16 10 16 18 0 21 15 6 25 -16 10 -109 -24 -130 -48 -11 -11
-23 -18 -26 -14 -15 15 74 73 127 82 18 3 35 8 38 11 11 11 22 2 21 -18z m590
-48 c0 -5 -4 -10 -10 -10 -5 0 -10 5 -10 10 0 6 5 10 10 10 6 0 10 -4 10 -10z
m2184 -11 c-3 -5 -10 -7 -15 -3 -5 3 -7 10 -3 15 3 5 10 7 15 3 5 -3 7 -10 3
-15z m-3184 -29 c0 -32 -143 -69 -273 -70 -76 0 -83 -5 -151 -100 -26 -36 -50
-54 -124 -90 -78 -38 -93 -50 -99 -73 -7 -33 -31 -47 -44 -26 -7 12 -9 12 -9
-1 0 -9 -3 -11 -8 -5 -4 6 -18 12 -32 14 -14 1 -28 7 -31 13 -3 5 -10 10 -15
10 -5 0 -20 4 -32 9 -13 5 -28 7 -33 3 -5 -3 -9 0 -9 6 0 6 -4 9 -9 6 -4 -3
-17 2 -27 10 -14 11 -15 17 -6 20 6 3 12 14 12 24 0 13 14 23 50 35 27 9 52
20 55 25 19 30 129 73 320 123 58 16 273 51 385 63 30 3 57 7 59 10 8 8 21 4
21 -6z m968 -26 c2 -20 -4 -36 -17 -48 -19 -18 -21 -18 -53 1 -33 19 -50 60
-29 72 5 4 29 6 53 6 40 0 43 -2 46 -31z m-669 -27 c-1 -17 -2 -18 -6 -4 -2 9
-9 17 -14 17 -6 0 -7 5 -4 10 10 16 25 1 24 -23z m797 1 c5 -8 2 -9 -10 -5
-13 5 -17 3 -13 -7 3 -8 -1 -17 -9 -20 -9 -3 -14 1 -15 12 0 13 -2 14 -6 2 -2
-8 -7 -22 -10 -30 -3 -8 -7 -34 -8 -58 -1 -26 -9 -50 -20 -60 -17 -16 -17 -16
-12 0 4 11 -3 24 -19 37 -14 11 -20 22 -14 26 5 3 10 1 10 -4 0 -6 5 -11 10
-11 6 0 10 7 10 15 0 8 -14 17 -35 21 -30 5 -34 9 -23 21 8 10 14 11 16 4 7
-20 27 -11 70 29 42 41 65 49 78 28z m49 -44 c-1 -35 -1 -35 40 -32 22 2 41
-1 42 -5 0 -5 12 -21 25 -35 13 -15 31 -36 39 -46 13 -18 13 -19 -9 -7 -27 15
-27 15 -35 -20 -5 -18 -2 -31 8 -39 12 -10 21 -8 49 14 29 22 36 23 46 11 12
-14 7 -19 -13 -16 -5 1 -21 -8 -37 -19 -15 -11 -34 -20 -40 -20 -7 0 -19 -8
-26 -17 -13 -17 -13 -17 -14 1 0 15 -3 16 -14 7 -8 -6 -18 -11 -22 -10 -16 4
-43 -13 -40 -24 1 -7 1 -9 -1 -4 -7 12 -51 8 -56 -5 -2 -7 -7 -10 -11 -7 -4 3
7 21 24 39 16 18 30 34 30 36 0 10 -29 2 -65 -16 -53 -27 -56 -25 -17 9 22 19
41 27 55 24 19 -4 18 -1 -8 21 -16 14 -34 26 -38 26 -5 0 -5 5 -2 10 4 6 11 8
16 5 5 -4 6 7 3 23 -4 17 -1 32 5 36 17 11 13 26 -6 26 -17 1 -17 1 0 11 9 5
17 17 17 24 0 8 5 15 11 15 6 0 9 -7 5 -15 -3 -9 0 -15 10 -15 10 0 14 6 11
15 -4 8 -2 17 3 20 5 3 7 13 4 23 -4 12 -3 13 3 4 5 -7 9 -28 8 -48z m33 27
c-7 -12 -16 -21 -21 -21 -4 0 0 11 9 25 20 30 31 26 12 -4z m193 2 c-8 -15
-10 -15 -11 -2 0 17 10 32 18 25 2 -3 -1 -13 -7 -23z m702 -33 c4 -16 0 -20
-16 -19 -12 0 -16 3 -9 6 6 2 12 11 12 19 0 20 7 17 13 -6z m-2906 -25 c0 -8
-4 -15 -9 -15 -10 0 -11 14 -1 23 9 10 10 9 10 -8z m1120 -43 c40 -39 85 -70
139 -96 43 -20 86 -41 95 -46 8 -4 51 -22 95 -40 43 -17 83 -35 88 -40 4 -4
-10 -33 -33 -64 -38 -51 -47 -57 -113 -77 -50 -15 -84 -34 -112 -59 -52 -47
-80 -62 -190 -95 -76 -23 -90 -31 -99 -55 -7 -19 -18 -27 -33 -27 -15 0 -21 4
-17 14 3 8 12 12 20 9 9 -4 13 -1 10 6 -5 14 -10 14 -41 2 -14 -5 -17 -4 -12
4 9 15 5 15 -29 2 -19 -7 -24 -7 -19 2 5 8 2 9 -10 5 -14 -6 -15 -3 -6 13 8
16 8 20 -4 20 -14 0 -31 -27 -27 -43 1 -5 -2 -6 -7 -3 -5 3 -9 -1 -9 -8 0 -8
6 -12 14 -9 20 8 16 -5 -11 -33 -26 -29 -93 -40 -88 -15 2 8 -3 18 -10 22 -21
14 -31 10 -18 -6 7 -9 10 -19 6 -22 -10 -10 -39 10 -51 35 -5 12 -15 21 -22
19 -6 -1 -12 0 -13 3 -3 11 13 40 22 40 5 0 6 -4 3 -10 -3 -5 -1 -10 4 -10 6
0 11 5 11 11 0 5 5 7 10 4 8 -5 7 -12 -2 -23 -11 -15 -11 -15 4 -4 9 7 18 9
20 5 3 -4 3 -2 2 5 -4 13 18 17 84 13 23 -2 42 2 42 7 0 21 -12 42 -22 36 -5
-3 -26 5 -46 19 -20 14 -47 28 -60 32 -20 6 -21 9 -10 23 12 15 11 16 -5 3
-14 -11 -21 -11 -29 -3 -7 7 -19 12 -28 12 -13 0 -13 -1 0 -10 17 -11 9 -13
-14 -4 -14 5 -15 8 -2 18 9 7 11 17 6 31 -7 17 -9 17 -9 2 -1 -9 -7 -16 -13
-15 -7 2 -12 -3 -10 -9 1 -7 -3 -13 -9 -13 -7 0 -9 10 -5 25 6 25 6 26 -18 10
-22 -15 -24 -15 -22 2 1 13 -5 17 -22 16 -13 -2 -21 1 -18 6 4 5 -3 7 -13 4
-14 -3 -19 0 -18 14 2 14 -4 18 -25 16 -18 -1 -28 3 -28 12 0 8 -7 11 -20 8
-12 -3 -20 0 -20 7 0 7 -8 9 -20 5 -15 -5 -20 -2 -20 13 0 11 6 23 13 26 6 3
1 3 -13 0 -14 -4 -29 -12 -33 -18 -5 -6 -7 1 -4 17 2 15 1 30 -4 33 -12 7 1
34 17 34 8 0 44 29 80 63 106 104 196 132 514 167 91 9 168 18 171 19 4 0 33
-25 66 -57z m433 48 c0 -5 -4 -10 -9 -10 -6 0 -13 5 -16 10 -3 6 1 10 9 10 9
0 16 -4 16 -10z m1445 -6 c13 -14 14 -19 3 -25 -7 -5 -16 -9 -20 -9 -13 0 -38
32 -33 41 9 14 32 11 50 -7z m-199 -19 c-9 -9 -16 -13 -16 -8 0 12 22 34 28
28 2 -2 -3 -11 -12 -20z m-567 -36 c-8 -16 -14 -18 -22 -10 -9 9 -8 14 3 21
24 16 31 11 19 -11z m466 1 c-3 -5 -14 -10 -23 -9 -14 0 -13 2 3 9 27 11 27
11 20 0z m-1015 -10 c0 -5 -2 -10 -4 -10 -3 0 -8 5 -11 10 -3 6 -1 10 4 10 6
0 11 -4 11 -10z m905 1 c-11 -9 -75 -23 -75 -16 0 2 15 9 33 14 43 12 53 13
42 2z m230 -21 c-4 -12 -9 -19 -12 -17 -3 3 -2 15 2 27 4 12 9 19 12 17 3 -3
2 -15 -2 -27z m-1075 17 c0 -2 -10 -12 -21 -23 -22 -19 -22 -19 -10 4 10 18
31 31 31 19z m750 -22 c-7 -9 -15 -13 -17 -11 -7 7 7 26 19 26 6 0 6 -6 -2
-15z m250 -1 c0 -2 -9 -4 -21 -4 -11 0 -18 4 -14 10 5 8 35 3 35 -6z m-300 2
c0 -3 -4 -8 -10 -11 -5 -3 -10 -1 -10 4 0 6 5 11 10 11 6 0 10 -2 10 -4z
m-233 -53 c-3 -10 -5 -2 -5 17 0 19 2 27 5 18 2 -10 2 -26 0 -35z m567 39 c2
-4 1 -14 -3 -21 -6 -9 -10 -7 -14 8 -5 20 7 29 17 13z m-360 -17 c3 -8 1 -15
-3 -15 -5 0 -11 7 -15 15 -3 8 -1 15 3 15 5 0 11 -7 15 -15z m-41 -9 c4 -10 1
-13 -9 -9 -15 6 -19 23 -5 23 5 0 11 -7 14 -14z m-2483 -10 c0 -9 -8 -12 -25
-8 -37 7 -41 22 -6 22 20 0 31 -5 31 -14z m17 -8 c-3 -8 -6 -5 -6 6 -1 11 2
17 5 13 3 -3 4 -12 1 -19z m1780 0 c-3 -8 -6 -5 -6 6 -1 11 2 17 5 13 3 -3 4
-12 1 -19z m428 3 c-3 -6 -11 -8 -17 -5 -6 4 -5 9 3 15 16 10 23 4 14 -10z
m734 -35 c-3 -3 -11 5 -18 17 -13 21 -12 21 5 5 10 -10 16 -20 13 -22z m-1074
14 c3 -5 1 -10 -4 -10 -6 0 -11 5 -11 10 0 6 2 10 4 10 3 0 8 -4 11 -10z
m1032 -32 c-3 -8 -6 -5 -6 6 -1 11 2 17 5 13 3 -3 4 -12 1 -19z m-592 2 c-3
-5 -10 -10 -16 -10 -5 0 -9 5 -9 10 0 6 7 10 16 10 8 0 12 -4 9 -10z m-365
-30 c0 -5 -5 -10 -11 -10 -5 0 -7 5 -4 10 3 6 8 10 11 10 2 0 4 -4 4 -10z
m1010 -41 c0 -11 -4 -17 -10 -14 -5 3 -10 13 -10 21 0 8 5 14 10 14 6 0 10 -9
10 -21z m-1135 1 c-3 -5 -10 -10 -16 -10 -5 0 -9 5 -9 10 0 6 7 10 16 10 8 0
12 -4 9 -10z m195 6 c0 -3 -4 -8 -10 -11 -5 -3 -10 -1 -10 4 0 6 5 11 10 11 6
0 10 -2 10 -4z m-1665 -26 c3 -5 1 -10 -4 -10 -6 0 -11 5 -11 10 0 6 2 10 4
10 3 0 8 -4 11 -10z m1415 1 c0 -14 -18 -23 -30 -16 -6 4 -8 11 -5 16 8 12 35
12 35 0z m403 -26 c-3 -9 -8 -14 -10 -11 -3 3 -2 9 2 15 9 16 15 13 8 -4z
m-393 -65 c0 -5 -4 -10 -10 -10 -5 0 -10 5 -10 10 0 6 5 10 10 10 6 0 10 -4
10 -10z m-1250 -10 c0 -5 -4 -10 -10 -10 -5 0 -10 5 -10 10 0 6 5 10 10 10 6
0 10 -4 10 -10z m1215 0 c-3 -5 -12 -10 -18 -10 -7 0 -6 4 3 10 19 12 23 12
15 0z m-75 -24 c0 -3 -4 -8 -10 -11 -5 -3 -10 -1 -10 4 0 6 5 11 10 11 6 0 10
-2 10 -4z m-240 -141 c-22 -24 -111 -72 -177 -96 -27 -9 -33 -17 -33 -39 0
-24 -6 -30 -36 -40 -19 -7 -37 -10 -39 -8 -3 2 -2 21 2 41 5 33 10 38 54 52
27 9 51 20 54 25 14 22 183 104 194 94 3 -2 -6 -15 -19 -29z m-787 -2 c-19 -7
-16 -23 5 -23 14 0 15 -2 2 -10 -10 -6 -16 -6 -18 0 -2 6 -10 10 -18 10 -8 0
-11 6 -8 15 4 8 16 15 28 14 11 0 15 -3 9 -6z m57 3 c0 -3 -4 -8 -10 -11 -5
-3 -10 -1 -10 4 0 6 5 11 10 11 6 0 10 -2 10 -4z m310 -80 c0 -3 -4 -8 -10
-11 -5 -3 -10 -1 -10 4 0 6 5 11 10 11 6 0 10 -2 10 -4z m-235 -77 c22 -10 29
-16 15 -13 -38 10 -70 23 -70 29 0 8 13 5 55 -16z m460 -58 c3 -5 2 -12 -2
-14 -12 -8 -63 4 -63 14 0 12 57 12 65 0z m-465 -72 c0 -6 -4 -7 -10 -4 -5 3
-10 11 -10 16 0 6 5 7 10 4 6 -3 10 -11 10 -16z m140 -28 c0 -12 -25 -21 -58
-21 -42 0 -4 24 46 29 6 0 12 -3 12 -8z m527 -47 c-3 -3 -12 -4 -19 -1 -8 3
-5 6 6 6 11 1 17 -2 13 -5z m93 -13 c9 -18 7 -19 -17 -17 -16 2 -30 4 -32 5
-4 1 30 30 36 31 1 0 7 -9 13 -19z"/>
<path d="M4812 3544 c2 -11 11 -20 22 -22 13 -3 17 1 14 14 -2 11 -11 20 -22
22 -13 3 -17 -1 -14 -14z"/>
<path d="M5080 3436 c0 -18 16 -29 30 -21 13 8 1 35 -16 35 -8 0 -14 -6 -14
-14z"/>
<path d="M5354 3325 c3 -9 6 -19 6 -21 0 -2 7 -4 16 -4 22 0 13 34 -10 38 -14
3 -17 0 -12 -13z"/>
<path d="M5635 3221 c-8 -15 3 -31 21 -31 9 0 14 7 12 17 -4 20 -24 28 -33 14z"/>
<path d="M4105 2880 c-3 -5 -2 -10 4 -10 5 0 13 5 16 10 3 6 2 10 -4 10 -5 0
-13 -4 -16 -10z"/>
<path d="M4110 2844 c0 -8 5 -12 10 -9 6 3 10 10 10 16 0 5 -4 9 -10 9 -5 0
-10 -7 -10 -16z"/>
<path d="M4124 2816 c-11 -11 0 -43 21 -58 19 -13 37 16 26 43 -7 16 -10 19
-10 7 -1 -9 -6 -20 -13 -24 -7 -5 -9 -2 -6 8 9 21 -4 38 -18 24z"/>
<path d="M3283 2543 c9 -3 17 -8 17 -13 0 -16 32 -20 46 -5 9 8 14 15 12 16
-2 0 -23 2 -48 3 -25 2 -37 1 -27 -1z"/>
<path d="M2840 2286 c0 -2 15 -9 33 -15 29 -10 30 -9 13 4 -18 14 -46 20 -46
11z"/>
<path d="M3770 5031 c0 -14 18 -23 31 -15 8 4 7 9 -2 15 -18 11 -29 11 -29 0z"/>
<path d="M3045 4680 c-8 -13 20 -24 36 -15 8 6 7 10 -2 16 -18 11 -26 11 -34
-1z"/>
<path d="M3035 4620 c3 -5 13 -10 21 -10 8 0 12 5 9 10 -3 6 -13 10 -21 10 -8
0 -12 -4 -9 -10z"/>
<path d="M2805 4560 c3 -5 12 -10 20 -10 8 0 17 5 20 10 4 6 -5 10 -20 10 -15
0 -24 -4 -20 -10z"/>
<path d="M3215 4550 c3 -5 13 -10 21 -10 8 0 12 5 9 10 -3 6 -13 10 -21 10 -8
0 -12 -4 -9 -10z"/>
<path d="M2875 4540 c3 -5 13 -10 21 -10 8 0 12 5 9 10 -3 6 -13 10 -21 10 -8
0 -12 -4 -9 -10z"/>
<path d="M2740 4506 l0 -37 -177 -86 c-98 -47 -248 -119 -333 -160 -85 -41
-213 -103 -285 -138 -71 -34 -197 -95 -280 -135 -82 -40 -213 -103 -290 -140
-138 -66 -234 -113 -654 -316 -117 -57 -217 -104 -222 -104 -44 0 23 -41 263
-161 l282 -141 330 168 c182 92 372 188 421 214 50 26 337 172 638 324 l548
278 48 -18 c43 -15 53 -16 83 -3 18 8 38 14 44 14 6 0 30 9 53 20 l43 19 47
-24 46 -25 0 77 c0 43 -3 78 -7 78 -5 0 -8 -9 -8 -19 0 -11 -4 -22 -10 -26 -6
-3 -5 -15 2 -30 6 -14 8 -28 5 -31 -7 -7 -108 31 -145 54 l-23 15 28 18 c15
11 37 19 48 19 33 1 -31 31 -267 126 -120 48 -218 90 -218 94 0 3 22 13 49 23
47 17 91 12 126 -13 6 -4 28 -13 50 -20 22 -7 63 -23 90 -35 28 -12 106 -44
175 -71 115 -46 160 -55 160 -35 0 5 -62 33 -137 64 -230 93 -470 186 -497
193 -24 6 -26 4 -26 -30z m-50 -480 c0 -3 -4 -8 -10 -11 -5 -3 -10 -1 -10 4 0
6 5 11 10 11 6 0 10 -2 10 -4z"/>
<path d="M3340 4514 c-24 -14 -24 -15 -2 -11 12 3 22 2 22 -2 0 -4 12 -13 26
-20 16 -7 24 -17 20 -26 -3 -9 0 -12 8 -9 7 3 37 -4 66 -15 40 -15 58 -18 73
-10 14 8 18 8 13 0 -8 -13 1 -13 29 -1 16 7 17 9 3 9 -9 1 -20 6 -24 13 -4 6
-3 9 2 6 5 -3 17 -8 28 -12 13 -4 15 -10 8 -19 -8 -10 -5 -13 14 -15 48 -4 25
28 -36 51 -52 20 -64 21 -55 7 3 -6 -1 -7 -10 -4 -9 4 -14 13 -10 21 4 12 0
14 -21 9 -15 -4 -23 -3 -20 3 6 8 -74 41 -98 41 -6 -1 -22 -8 -36 -16z m120
-44 c0 -5 -4 -10 -10 -10 -5 0 -10 5 -10 10 0 6 5 10 10 10 6 0 10 -4 10 -10z
m80 -36 c0 -9 -28 -3 -46 11 -17 13 -16 14 14 4 17 -6 32 -13 32 -15z"/>
<path d="M3050 4475 c0 -8 7 -15 15 -15 8 0 15 4 15 9 0 5 -7 11 -15 15 -9 3
-15 0 -15 -9z"/>
<path d="M3202 4451 c-18 -9 -30 -20 -26 -24 12 -11 26 -8 18 5 -5 8 0 9 14 6
12 -4 20 -2 17 2 -3 5 1 10 7 13 7 2 11 7 8 10 -3 3 -20 -2 -38 -12z"/>
<path d="M2890 4420 c8 -5 22 -9 30 -9 10 0 8 3 -5 9 -27 12 -43 12 -25 0z"/>
<path d="M3278 4417 c-33 -13 -36 -23 -9 -30 13 -3 22 3 30 19 6 13 10 24 8
23 -1 -1 -14 -6 -29 -12z"/>
<path d="M3314 4401 c5 -7 4 -16 -2 -20 -6 -3 6 -6 27 -6 32 0 36 2 24 13 -8
8 -17 12 -20 8 -3 -3 -13 0 -21 7 -13 10 -14 9 -8 -2z"/>
<path d="M3386 4374 c-5 -12 -14 -14 -34 -10 -30 7 -12 -7 23 -18 17 -5 21 -1
23 19 2 29 -3 32 -12 9z"/>
<path d="M3040 4362 c8 -5 26 -13 40 -16 17 -5 20 -4 10 2 -8 5 -26 13 -40 16
-17 5 -20 4 -10 -2z"/>
<path d="M3453 4356 c0 -8 6 -12 14 -9 7 3 10 9 7 14 -8 14 -21 11 -21 -5z"/>
<path d="M3465 4329 c-11 -17 -2 -18 19 -3 17 12 17 14 4 14 -9 0 -20 -5 -23
-11z"/>
<path d="M3167 4309 c7 -7 15 -10 18 -7 3 3 -2 9 -12 12 -14 6 -15 5 -6 -5z"/>
<path d="M3491 4289 c-31 -29 -25 -75 14 -105 21 -16 35 -20 45 -14 12 8 11
12 -8 30 -25 24 -29 62 -7 80 16 13 11 30 -9 30 -7 0 -22 -9 -35 -21z"/>
<path d="M3395 4241 c-7 -12 12 -24 25 -16 11 7 4 25 -10 25 -5 0 -11 -4 -15
-9z"/>
<path d="M3485 4109 c-4 -6 -5 -12 -2 -15 2 -3 7 2 10 11 7 17 1 20 -8 4z"/>
<path d="M3462 4044 c10 -10 20 -16 22 -13 3 3 -5 11 -17 18 -21 13 -21 12 -5
-5z"/>
<path d="M5020 3890 c0 -5 9 -10 20 -10 11 0 20 5 20 10 0 6 -9 10 -20 10 -11
0 -20 -4 -20 -10z"/>
<path d="M3340 3869 c0 -5 5 -7 10 -4 6 3 10 8 10 11 0 2 -4 4 -10 4 -5 0 -10
-5 -10 -11z"/>
<path d="M7260 3761 c0 -11 40 -22 53 -14 5 3 3 9 -4 14 -18 11 -49 11 -49 0z"/>
<path d="M7370 3752 c0 -4 -15 -16 -32 -27 -18 -10 -35 -21 -38 -25 -3 -3 -95
-66 -205 -139 -110 -74 -248 -167 -307 -208 -59 -40 -112 -73 -117 -73 -5 0
-11 -4 -13 -8 -1 -5 -95 -71 -208 -147 -113 -76 -232 -157 -265 -180 -33 -23
-132 -90 -220 -150 -279 -189 -437 -296 -545 -370 -58 -40 -262 -178 -455
-307 -192 -129 -426 -287 -520 -351 -93 -64 -219 -149 -278 -189 -59 -40 -154
-105 -210 -144 -56 -39 -106 -69 -112 -66 -5 3 -7 2 -3 -2 3 -4 -4 -39 -18
-78 -21 -63 -24 -88 -24 -258 -1 -154 1 -194 15 -219 8 -17 20 -31 26 -31 6 0
47 25 90 55 43 30 81 55 84 55 6 0 -1 -68 -11 -118 -3 -16 4 -32 25 -52 27
-27 36 -30 94 -30 88 0 117 22 117 89 l0 47 108 79 c122 90 222 163 303 223
38 27 63 39 77 35 13 -3 54 16 122 57 140 83 190 127 190 162 0 24 13 38 85
91 51 36 88 71 91 84 4 13 12 23 19 23 14 0 172 -161 200 -204 16 -24 17 -29
3 -43 -13 -12 -20 -13 -38 -3 -18 10 -27 8 -58 -14 -27 -17 -45 -23 -65 -19
-20 4 -35 0 -50 -14 -36 -32 -45 -35 -81 -22 -32 11 -36 10 -92 -29 -33 -23
-70 -58 -83 -77 -16 -24 -31 -35 -48 -35 -35 0 -88 -57 -104 -110 -17 -57 -79
-118 -205 -202 -52 -34 -94 -68 -94 -75 0 -38 32 -70 110 -112 l82 -43 -4 -91
-3 -90 50 -30 c28 -16 164 -90 302 -164 214 -114 256 -132 273 -123 11 6 20
17 20 25 0 7 17 28 38 45 31 27 43 31 76 26 34 -4 43 0 70 26 17 17 58 54 91
81 33 27 62 53 65 56 3 3 27 21 53 39 45 30 52 32 82 22 43 -14 72 3 104 61
15 27 28 38 38 35 22 -9 129 78 159 129 17 29 26 61 27 92 l2 48 -66 34 -66
35 1 95 1 96 -254 125 c-139 69 -253 129 -253 133 0 5 25 38 56 74 82 99 116
168 116 240 0 58 -9 81 -53 128 -43 47 -78 117 -92 181 -8 38 -15 74 -15 79 0
6 37 37 83 69 79 57 146 104 757 537 151 108 365 260 475 340 110 80 229 165
264 190 35 24 78 54 95 66 17 12 38 22 46 22 9 1 32 14 51 31 35 28 36 32 43
117 4 48 13 131 21 183 24 169 28 220 16 220 -6 0 -11 -4 -11 -8z m-23 -164
c-3 -8 -6 -5 -6 6 -1 11 2 17 5 13 3 -3 4 -12 1 -19z m-2211 -1485 c46 -21 82
-41 81 -45 -1 -4 -92 -69 -202 -145 -391 -271 -521 -362 -570 -397 -27 -20
-62 -43 -77 -51 -25 -14 -28 -14 -28 0 0 18 -12 19 -27 4 -6 -6 -34 -12 -63
-12 -40 -1 -50 -4 -48 -16 2 -9 20 -20 42 -26 l38 -11 -39 -26 -39 -25 -93 46
-93 47 177 120 c97 65 204 139 238 163 161 113 603 411 611 411 5 0 46 -17 92
-37z m29 -113 c-3 -5 -12 -10 -18 -10 -7 0 -6 4 3 10 19 12 23 12 15 0z m314
-121 c12 -58 64 -154 106 -199 35 -38 40 -71 16 -124 -18 -43 -106 -166 -117
-166 -3 0 -17 15 -32 32 -58 70 -167 180 -195 196 -28 17 -29 18 -25 96 4 89
-6 77 137 177 47 33 88 56 91 52 4 -5 12 -33 19 -64z m-399 57 c0 -2 -7 -7
-16 -10 -8 -3 -12 -2 -9 4 6 10 25 14 25 6z m89 -13 c-8 -2 -22 -16 -31 -31
-15 -26 -15 -29 -1 -38 21 -13 10 -66 -11 -58 -9 3 -20 -5 -30 -23 -8 -15 -15
-23 -16 -16 0 19 -27 4 -33 -18 -3 -11 -11 -17 -19 -14 -9 4 -19 -4 -26 -19
-7 -16 -17 -24 -26 -20 -10 4 -22 -11 -40 -48 -15 -29 -23 -44 -20 -33 4 11 9
31 11 45 l4 25 -18 -28 c-10 -15 -23 -25 -30 -23 -7 3 -19 -7 -27 -22 -9 -15
-15 -22 -16 -15 0 25 -28 1 -46 -40 -26 -61 -43 -77 -80 -77 -18 0 -36 -5 -40
-11 -9 -14 -93 -50 -113 -48 -9 1 -25 -1 -36 -5 -11 -5 -33 -13 -49 -19 -16
-6 -63 -30 -105 -54 -41 -24 -80 -43 -85 -43 -12 0 -14 -2 79 66 84 62 100 73
274 194 59 41 188 134 287 206 98 72 188 136 199 142 11 6 16 12 10 12 -5 0
-3 5 5 10 8 5 22 9 30 9 13 -1 13 -2 -1 -6z m-179 -48 c0 -2 -10 -9 -22 -15
-22 -11 -22 -10 -4 4 21 17 26 19 26 11z m190 -80 c0 -3 -9 -16 -21 -28 l-21
-22 13 28 c11 23 29 37 29 22z m-334 -20 c-11 -8 -25 -15 -30 -15 -6 1 0 7 14
15 32 19 40 18 16 0z m250 -48 c13 16 13 16 4 -7 -6 -14 -19 -26 -29 -26 -16
0 -17 4 -7 25 9 20 12 22 14 7 4 -16 5 -16 18 1z m67 -12 c-3 -9 -8 -14 -10
-11 -3 3 -2 9 2 15 9 16 15 13 8 -4z m-152 -54 c-13 -24 -26 -38 -34 -35 -7 2
-19 -7 -27 -21 -7 -14 -15 -23 -17 -21 -2 2 6 20 18 41 15 25 24 33 30 24 5
-9 13 -1 25 24 10 20 19 35 21 33 3 -2 -5 -22 -16 -45z m-281 35 c0 -2 -7 -7
-16 -10 -8 -3 -12 -2 -9 4 6 10 25 14 25 6z m416 -15 c-8 -12 -46 -21 -46 -11
0 5 10 11 23 13 12 2 23 5 25 6 2 0 1 -3 -2 -8z m-85 -48 c-12 -20 -14 -14 -5
12 4 9 9 14 11 11 3 -2 0 -13 -6 -23z m-27 -32 c-6 -6 -34 -11 -34 -6 0 2 3
10 6 19 5 12 9 13 19 3 7 -7 11 -14 9 -16z m-134 -33 c0 -6 -7 -8 -15 -4 -9 3
-20 -5 -29 -22 -20 -36 -20 -19 -1 18 14 28 45 33 45 8z m84 5 c4 -10 4 -14 0
-10 -4 4 -14 1 -22 -6 -13 -10 -14 -9 -3 11 14 27 17 27 25 5z m-63 -30 c-12
-20 -14 -14 -5 12 4 9 9 14 11 11 3 -2 0 -13 -6 -23z m-135 -61 c-18 -16 -18
-16 -6 6 6 13 14 21 18 18 3 -4 -2 -14 -12 -24z m567 -209 c9 -9 -33 -53 -50
-53 -19 0 -16 10 9 37 23 24 30 27 41 16z m-1103 -45 c0 -25 -3 -29 -10 -18
-13 20 -13 50 0 50 6 0 10 -15 10 -32z m268 0 c-2 -24 -11 -36 -33 -48 -16 -8
-34 -21 -38 -27 -10 -15 -47 -17 -47 -3 0 6 7 10 15 10 9 0 18 12 22 30 7 38
23 49 30 21 3 -11 9 -18 14 -16 4 3 6 12 2 20 -8 22 4 45 22 45 12 0 15 -8 13
-32z m122 -8 c0 -12 -92 -82 -99 -74 -3 3 1 9 9 14 9 5 31 22 50 39 39 34 40
35 40 21z m1004 -84 c102 -49 186 -93 186 -97 0 -4 -13 -17 -29 -29 l-30 -21
-183 92 c-101 50 -185 93 -187 95 -6 6 41 55 50 52 3 -2 90 -43 193 -92z m-94
90 c0 -2 -7 -7 -16 -10 -8 -3 -12 -2 -9 4 6 10 25 14 25 6z m-1165 -73 c-3
-27 -17 -55 -37 -75 -20 -20 -38 -24 -38 -8 0 6 6 10 13 10 9 0 8 3 -2 9 -16
10 -6 51 13 51 8 0 19 7 26 15 17 20 27 19 25 -2z m135 -33 c0 -5 -5 -10 -11
-10 -5 0 -33 -18 -62 -39 -28 -22 -53 -38 -56 -35 -5 4 38 44 48 44 3 0 19 11
35 25 31 26 46 31 46 15z m-170 -119 c-19 -16 -37 -27 -40 -24 -6 6 51 53 65
53 6 0 -6 -14 -25 -29z m-120 -156 c-7 -9 -15 -13 -18 -10 -3 2 1 11 8 20 7 9
15 13 18 10 3 -2 -1 -11 -8 -20z m605 -24 c-7 -34 -7 -34 -29 -25 -23 9 -20
30 6 48 27 19 32 15 23 -23z"/>
<path d="M4250 1510 c8 -5 20 -10 25 -10 6 0 3 5 -5 10 -8 5 -19 10 -25 10 -5
0 -3 -5 5 -10z"/>
<path d="M4161 1474 c0 -11 3 -14 6 -6 3 7 2 16 -1 19 -3 4 -6 -2 -5 -13z"/>
<path d="M5428 3728 c9 -9 15 -9 24 0 9 9 7 12 -12 12 -19 0 -21 -3 -12 -12z"/>
<path d="M3351 3634 c0 -11 3 -14 6 -6 3 7 2 16 -1 19 -3 4 -6 -2 -5 -13z"/>
<path d="M3350 3572 c0 -17 4 -34 10 -37 6 -4 7 6 3 27 -8 44 -13 48 -13 10z"/>
<path d="M3390 3457 c0 -28 5 -34 33 -45 28 -10 30 -10 13 3 -10 8 -23 16 -29
18 -12 4 0 27 14 27 5 0 9 -7 9 -15 0 -8 5 -15 10 -15 18 0 10 29 -12 44 -32
23 -38 20 -38 -17z"/>
<path d="M3460 3417 c0 -20 22 -35 28 -19 2 7 8 12 14 12 6 0 8 -7 4 -15 -3
-9 3 -19 14 -25 17 -9 20 -7 20 8 0 24 -16 38 -53 47 -21 6 -27 4 -27 -8z"/>
<path d="M3550 3386 c0 -29 5 -36 30 -45 29 -10 30 -9 30 23 0 25 -6 35 -25
44 -35 16 -35 16 -35 -22z"/>
<path d="M6337 3404 c-12 -12 4 -24 34 -24 31 0 39 14 13 24 -20 8 -39 8 -47
0z"/>
<path d="M329 3389 c-12 -8 -12 -10 1 -19 8 -5 20 -10 25 -10 16 0 38 17 29
22 -24 13 -42 15 -55 7z"/>
<path d="M3620 3356 c0 -25 6 -35 25 -44 35 -16 35 -16 35 22 0 29 -5 36 -30
45 -29 10 -30 9 -30 -23z"/>
<path d="M6123 3333 c-28 -5 -29 -11 -3 -33 12 -11 30 -15 50 -12 l31 4 -22
24 c-12 13 -25 23 -28 23 -3 -1 -16 -4 -28 -6z"/>
<path d="M3270 3311 c0 -25 6 -27 13 -6 4 8 2 17 -3 20 -6 4 -10 -3 -10 -14z"/>
<path d="M3300 3321 c0 -6 5 -11 11 -11 6 0 9 -11 7 -25 -2 -13 1 -24 6 -25 5
0 10 15 10 32 0 23 -6 34 -17 36 -9 2 -17 -1 -17 -7z"/>
<path d="M230 3311 c0 -17 20 -23 48 -16 20 5 23 8 11 16 -19 12 -59 12 -59 0z"/>
<path d="M3270 3270 c0 -5 5 -10 10 -10 6 0 10 5 10 10 0 6 -4 10 -10 10 -5 0
-10 -4 -10 -10z"/>
<path d="M6120 3260 c-7 -4 -9 -13 -6 -19 8 -13 66 -15 66 -3 0 14 -46 31 -60
22z"/>
<path d="M1932 2920 c0 -14 2 -19 5 -12 2 6 2 18 0 25 -3 6 -5 1 -5 -13z"/>
<path d="M5564 2757 c-197 -133 -381 -255 -1258 -834 -400 -263 -398 -262
-374 -263 9 0 112 64 230 142 117 77 344 227 503 333 160 105 452 299 650 430
198 131 384 253 413 272 28 19 52 41 52 49 0 7 -1 14 -2 13 -2 0 -98 -65 -214
-142z"/>
<path d="M1830 2804 c0 -8 5 -12 10 -9 6 3 10 10 10 16 0 5 -4 9 -10 9 -5 0
-10 -7 -10 -16z"/>
<path d="M5055 2730 c-3 -5 -1 -10 4 -10 6 0 11 5 11 10 0 6 -2 10 -4 10 -3 0
-8 -4 -11 -10z"/>
<path d="M2205 2580 c3 -5 1 -10 -5 -10 -6 0 -8 -5 -5 -10 4 -6 12 -5 21 4 18
19 18 26 -2 26 -8 0 -12 -4 -9 -10z"/>
<path d="M4235 2500 c1 -19 6 -42 10 -51 3 -10 2 -20 -4 -24 -6 -3 -11 -17
-11 -31 0 -13 -5 -24 -10 -24 -6 0 -10 6 -8 13 3 19 -12 57 -24 57 -6 0 -8
-10 -4 -25 4 -14 2 -25 -3 -25 -4 0 -11 14 -14 30 -4 18 -13 30 -22 30 -9 0
-13 -5 -10 -10 4 -7 -3 -9 -18 -6 -31 5 -44 -19 -19 -33 16 -10 16 -10 0 -11
-10 0 -18 -4 -18 -9 0 -5 -7 -12 -16 -15 -8 -3 -12 -2 -9 4 9 15 -2 12 -32 -7
-26 -17 -26 -17 -21 2 3 11 9 28 13 39 8 18 7 18 -13 0 -15 -12 -20 -25 -16
-41 4 -14 2 -23 -5 -23 -6 0 -11 -6 -11 -14 0 -8 9 -13 24 -12 13 0 22 5 19
10 -7 11 17 26 44 26 12 0 28 7 37 15 13 14 16 13 26 -2 8 -13 13 -14 16 -5 8
17 43 15 50 -3 4 -8 12 -15 20 -15 21 0 17 -14 -14 -43 -35 -34 -48 -35 -26
-2 9 14 14 28 11 31 -8 8 -37 -51 -37 -73 0 -10 -6 -28 -14 -39 -13 -17 -12
-21 8 -30 21 -10 23 -8 23 18 0 34 28 63 81 84 35 13 12 13 -35 -2 -14 -4 -13
-1 5 12 12 9 22 25 22 35 0 24 19 34 26 15 7 -18 34 -22 34 -5 0 7 10 9 27 5
33 -9 48 12 27 35 -15 16 -17 16 -35 -2 -10 -10 -25 -19 -31 -19 -7 1 -4 6 8
13 12 7 19 17 17 23 -7 19 26 25 36 6 5 -9 13 -14 17 -10 4 4 2 14 -4 21 -10
11 -3 13 36 12 26 -1 55 -5 65 -9 10 -5 17 -4 17 2 0 6 10 8 23 5 12 -3 19 -2
15 2 -4 4 0 13 9 20 14 10 13 12 -8 11 -16 -1 -27 7 -34 22 -13 30 -33 28 -30
-3 2 -14 -1 -27 -6 -31 -5 -3 -9 1 -9 8 0 7 -5 20 -10 28 -8 13 -14 10 -34
-15 -19 -24 -27 -27 -37 -18 -10 10 -7 14 14 22 15 6 27 18 27 27 0 13 -3 14
-15 4 -8 -6 -19 -9 -25 -5 -6 4 -13 -6 -16 -25 -7 -34 -18 -45 -35 -34 -8 5
-6 10 5 16 9 5 16 14 16 20 0 7 -5 6 -15 -2 -10 -9 -15 -9 -15 -1 0 18 -18 13
-23 -6 -4 -17 -5 -17 -6 0 -1 11 -6 15 -12 11 -7 -4 -9 0 -5 12 3 11 1 26 -4
34 -6 9 -8 3 -5 -20z m45 -90 c0 -5 -4 -10 -10 -10 -5 0 -10 5 -10 10 0 6 5
10 10 10 6 0 10 -4 10 -10z"/>
<path d="M2318 2497 c-3 -19 -2 -25 4 -19 6 6 8 18 6 28 -3 14 -5 12 -10 -9z"/>
<path d="M4176 2472 c-3 -5 6 -15 19 -22 13 -7 22 -17 18 -23 -3 -5 0 -8 7 -5
18 6 25 28 9 28 -7 0 -20 7 -30 16 -9 8 -20 11 -23 6z"/>
<path d="M4040 2406 c0 -2 7 -7 16 -10 8 -3 12 -2 9 4 -6 10 -25 14 -25 6z"/>
<path d="M4541 2390 c16 -33 16 -33 23 -13 4 9 4 14 0 10 -4 -4 -13 1 -21 11
-12 15 -13 14 -2 -8z"/>
<path d="M4427 2381 c-3 -14 -1 -18 9 -14 16 6 18 19 5 27 -5 3 -11 -3 -14
-13z"/>
<path d="M1271 2374 c0 -11 3 -14 6 -6 3 7 2 16 -1 19 -3 4 -6 -2 -5 -13z"/>
<path d="M4380 2381 c0 -5 4 -12 10 -16 5 -3 7 -12 3 -20 -3 -10 1 -15 13 -15
11 0 15 4 9 8 -5 4 -10 16 -10 26 0 11 -6 21 -12 24 -7 2 -13 -1 -13 -7z"/>
<path d="M4515 2370 c-3 -4 1 -11 7 -13 10 -4 -18 -10 -42 -9 -3 0 -14 -11
-24 -26 -19 -25 -19 -25 2 -20 22 6 40 -17 19 -26 -7 -2 -2 -5 10 -5 12 -1 27
8 33 18 5 11 17 26 25 35 14 14 14 17 -4 35 -11 11 -23 16 -26 11z"/>
<path d="M3668 2359 c-20 -11 -25 -43 -6 -37 9 3 33 49 25 48 -1 0 -10 -5 -19
-11z"/>
<path d="M4155 2350 c4 -6 11 -8 16 -5 14 9 11 15 -7 15 -8 0 -12 -5 -9 -10z"/>
<path d="M4577 2330 c4 -14 -2 -21 -22 -26 -20 -5 -23 -9 -13 -15 8 -5 9 -9 2
-9 -12 0 -28 -29 -20 -37 7 -7 80 71 81 87 1 9 -6 17 -16 17 -12 1 -15 -4 -12
-17z"/>
<path d="M4620 2329 c0 -11 4 -18 10 -14 5 3 7 12 3 20 -7 21 -13 19 -13 -6z"/>
<path d="M1137 2329 c7 -7 15 -10 18 -7 3 3 -2 9 -12 12 -14 6 -15 5 -6 -5z"/>
<path d="M1246 2320 c3 -14 11 -32 16 -40 6 -10 7 -7 2 10 -3 14 -11 32 -16
40 -6 10 -7 7 -2 -10z"/>
<path d="M1185 2320 c-3 -5 -1 -10 4 -10 6 0 11 5 11 10 0 6 -2 10 -4 10 -3 0
-8 -4 -11 -10z"/>
<path d="M3700 2318 c0 -10 5 -18 10 -18 6 0 10 -7 10 -15 0 -19 26 -20 33 -1
4 10 -2 18 -16 22 -12 4 -25 12 -29 18 -5 7 -8 4 -8 -6z"/>
<path d="M3780 2290 c0 -5 4 -10 9 -10 6 0 13 5 16 10 3 6 -1 10 -9 10 -9 0
-16 -4 -16 -10z"/>
<path d="M4386 2274 c-17 -12 -17 -14 -4 -14 9 0 20 5 23 11 11 17 2 18 -19 3z"/>
<path d="M4428 2273 c6 -2 18 -2 25 0 6 3 1 5 -13 5 -14 0 -19 -2 -12 -5z"/>
<path d="M4095 2230 c-3 -5 -1 -10 4 -10 6 0 11 5 11 10 0 6 -2 10 -4 10 -3 0
-8 -4 -11 -10z"/>
<path d="M3930 2201 c0 -12 39 -25 47 -17 4 3 -1 6 -10 6 -9 0 -17 5 -17 10 0
6 -4 10 -10 10 -5 0 -10 -4 -10 -9z"/>
<path d="M2317 2139 c7 -7 15 -10 18 -7 3 3 -2 9 -12 12 -14 6 -15 5 -6 -5z"/>
<path d="M3086 2125 c-3 -9 0 -15 9 -15 16 0 20 16 6 24 -5 3 -11 -1 -15 -9z"/>
<path d="M4677 2103 c-4 -3 -7 -11 -7 -17 0 -6 5 -5 12 2 6 6 9 14 7 17 -3 3
-9 2 -12 -2z"/>
<path d="M2470 2060 c8 -5 20 -10 25 -10 6 0 3 5 -5 10 -8 5 -19 10 -25 10 -5
0 -3 -5 5 -10z"/>
<path d="M3175 2050 c-3 -5 1 -10 9 -10 9 0 16 5 16 10 0 6 -4 10 -9 10 -6 0
-13 -4 -16 -10z"/>
<path d="M3275 2020 c-3 -5 1 -10 9 -10 9 0 16 5 16 10 0 6 -4 10 -9 10 -6 0
-13 -4 -16 -10z"/>
<path d="M3370 1990 c20 -13 33 -13 25 0 -3 6 -14 10 -23 10 -15 0 -15 -2 -2
-10z"/>
<path d="M3619 1940 c-13 -10 -18 -19 -11 -20 6 0 12 5 12 10 0 6 7 10 15 10
8 0 15 5 15 10 0 14 -5 13 -31 -10z"/>
<path d="M3457 1923 c-10 -9 -9 -23 2 -23 5 0 11 7 15 15 5 15 -5 20 -17 8z"/>
<path d="M3650 1909 c0 -5 5 -7 10 -4 6 3 10 8 10 11 0 2 -4 4 -10 4 -5 0 -10
-5 -10 -11z"/>
<path d="M3560 1889 c0 -5 5 -7 10 -4 6 3 10 8 10 11 0 2 -4 4 -10 4 -5 0 -10
-5 -10 -11z"/>
<path d="M2564 1846 c11 -9 24 -16 30 -16 12 0 7 5 -24 19 -24 11 -24 11 -6
-3z"/>
<path d="M2708 1768 c5 -5 16 -8 23 -6 8 3 3 7 -10 11 -17 4 -21 3 -13 -5z"/>
<path d="M3051 1766 c10 -9 69 -36 69 -32 0 6 -55 36 -66 36 -4 0 -5 -2 -3 -4z"/>
<path d="M3647 1698 c-28 -14 -50 -18 -80 -14 l-42 6 35 -16 c28 -13 42 -14
71 -5 34 10 67 36 58 45 -2 2 -21 -5 -42 -16z"/>
<path d="M3197 1689 c7 -7 15 -10 18 -7 3 3 -2 9 -12 12 -14 6 -15 5 -6 -5z"/>
<path d="M3370 1600 c8 -5 20 -10 25 -10 6 0 3 5 -5 10 -8 5 -19 10 -25 10 -5
0 -3 -5 5 -10z"/>
<path d="M3050 1596 c0 -2 7 -7 16 -10 8 -3 12 -2 9 4 -6 10 -25 14 -25 6z"/>
<path d="M3987 1563 c-26 -26 27 -52 65 -32 21 11 21 12 3 25 -20 15 -57 19
-68 7z"/>
<path d="M3190 1521 c0 -10 30 -24 37 -17 3 2 -5 9 -16 16 -12 6 -21 7 -21 1z"/>
<path d="M3540 1515 c14 -8 30 -14 35 -14 6 0 -1 6 -15 14 -14 8 -29 14 -35
14 -5 0 1 -6 15 -14z"/>
<path d="M3823 1494 c-11 -29 44 -46 77 -24 13 9 12 12 -4 25 -26 20 -65 19
-73 -1z"/>
<path d="M3654 1456 c11 -9 24 -16 30 -16 12 0 7 5 -24 19 -24 11 -24 11 -6
-3z"/>
<path d="M2680 1450 c0 -5 5 -10 10 -10 6 0 10 5 10 10 0 6 -4 10 -10 10 -5 0
-10 -4 -10 -10z"/>
<path d="M2755 1415 c16 -13 31 -22 34 -20 5 6 -41 44 -54 44 -5 0 3 -11 20
-24z"/>
<path d="M2827 1383 c18 -9 36 -13 40 -9 11 10 -18 26 -47 25 -24 0 -23 -1 7
-16z"/>
<path d="M3440 1395 c0 -7 61 -37 66 -33 2 3 -12 12 -31 21 -19 9 -35 15 -35
12z"/>
<path d="M2980 1300 c-13 -8 -13 -10 2 -10 9 0 23 -3 32 -6 11 -4 16 -1 16 10
0 18 -27 21 -50 6z"/>
<path d="M3616 1301 c5 -5 20 -12 34 -15 l25 -7 -25 15 c-28 17 -50 21 -34 7z"/>
<path d="M3710 1256 c0 -9 61 -38 67 -32 3 3 -7 10 -22 16 -15 6 -32 13 -36
16 -5 3 -9 3 -9 0z"/>
<path d="M3178 1243 c6 -2 18 -2 25 0 6 3 1 5 -13 5 -14 0 -19 -2 -12 -5z"/>
<path d="M3090 1235 c0 -2 10 -10 23 -16 20 -11 21 -11 8 4 -13 16 -31 23 -31
12z"/>
<path d="M3235 1221 c-3 -5 -1 -12 5 -16 5 -3 10 1 10 9 0 18 -6 21 -15 7z"/>
<path d="M3162 1200 c15 -4 37 -18 50 -30 19 -18 100 -60 115 -60 16 0 -17 25
-53 40 -24 11 -44 23 -44 28 0 12 -47 32 -73 31 -19 -1 -19 -2 5 -9z"/>
<path d="M3365 1147 c-23 -26 -26 -37 -11 -37 9 0 16 7 16 15 0 9 9 15 25 15
14 0 25 -5 25 -12 0 -6 2 -9 5 -6 3 3 3 13 -1 22 -7 19 -44 21 -59 3z"/>
<path d="M3380 1085 c0 -8 7 -15 15 -15 8 0 15 -4 15 -9 0 -5 10 -7 23 -4 12
3 19 2 14 -2 -8 -10 71 -60 81 -51 11 12 -45 55 -82 61 -21 4 -36 13 -36 21 0
8 -7 14 -15 14 -8 0 -15 -7 -15 -15z"/>
<path d="M3647 983 c6 -14 1 -15 -38 -10 l-44 7 69 -36 c38 -19 79 -42 90 -50
29 -20 46 -18 46 6 0 11 -4 20 -10 20 -5 0 -10 -4 -10 -10 0 -18 -18 -11 -25
10 -3 11 -9 19 -13 18 -4 -1 -17 2 -30 6 -27 9 -20 26 8 19 16 -4 20 0 20 18
0 19 -2 21 -10 9 -7 -12 -12 -12 -22 -2 -18 18 -39 15 -31 -5z"/>
</g>
</svg>
