<?xml version="1.0" standalone="no"?>
<!DOCTYPE svg PUBLIC "-//W3C//DTD SVG 20010904//EN"
 "http://www.w3.org/TR/2001/REC-SVG-20010904/DTD/svg10.dtd">
<svg version="1.0" xmlns="http://www.w3.org/2000/svg"
 width="1236.000000pt" height="548.000000pt" viewBox="0 0 1236.000000 548.000000"
 preserveAspectRatio="xMidYMid meet">

<g transform="translate(0.000000,548.000000) scale(0.100000,-0.100000)"
fill="#000000" stroke="none">
<path d="M4330 4835 c0 -33 2 -35 35 -35 33 0 35 2 35 35 0 33 -2 35 -35 35
-33 0 -35 -2 -35 -35z"/>
<path d="M6230 4835 c0 -33 2 -35 35 -35 33 0 35 2 35 35 0 33 -2 35 -35 35
-33 0 -35 -2 -35 -35z"/>
<path d="M7530 4835 c0 -33 2 -35 35 -35 33 0 35 2 35 35 0 33 -2 35 -35 35
-33 0 -35 -2 -35 -35z"/>
<path d="M9900 4565 l0 -305 35 0 35 0 0 151 c0 119 3 158 16 185 29 62 107
83 157 43 l27 -20 2 -177 3 -177 35 0 35 0 3 140 c4 188 -3 241 -36 275 -53
53 -168 47 -216 -11 l-26 -31 0 116 0 116 -35 0 -35 0 0 -305z"/>
<path d="M1790 4550 l0 -290 35 0 36 0 -3 247 c-2 174 0 238 7 218 6 -16 46
-126 91 -245 78 -209 82 -215 110 -218 l29 -3 90 241 c49 132 89 240 90 240 0
0 -1 -108 -3 -240 l-3 -240 35 0 36 0 0 291 0 290 -47 -3 -48 -3 -84 -225
c-46 -124 -86 -232 -88 -240 -4 -9 -11 0 -18 25 -23 74 -157 420 -167 433 -6
6 -30 12 -54 12 l-44 0 0 -290z"/>
<path d="M8560 4827 c-54 -17 -133 -102 -151 -162 -17 -60 -17 -174 -1 -232
18 -61 70 -123 127 -152 42 -22 63 -26 135 -26 99 0 144 19 203 84 44 49 46
64 11 80 -25 11 -29 9 -61 -29 -47 -54 -86 -73 -153 -73 -113 0 -187 77 -197
208 -9 109 30 194 107 233 82 41 201 18 238 -48 9 -16 22 -30 29 -30 20 0 63
23 63 33 0 22 -97 105 -135 116 -50 14 -168 13 -215 -2z"/>
<path d="M5680 4544 l0 -286 158 4 c128 3 164 7 195 22 57 28 82 70 82 138 0
49 -4 61 -29 87 -17 17 -44 36 -62 43 l-32 11 31 21 c91 61 82 182 -16 227
-35 15 -66 19 -184 19 l-143 0 0 -286z m274 216 c69 -26 72 -119 6 -152 -25
-13 -59 -18 -117 -18 l-83 0 0 90 0 90 84 0 c47 0 96 -4 110 -10z m5 -236
c106 -21 108 -164 3 -194 -20 -5 -74 -10 -119 -10 l-83 0 0 105 0 105 84 0
c46 0 97 -3 115 -6z"/>
<path d="M3381 4763 c-6 -21 -11 -44 -11 -50 0 -8 -13 -13 -30 -13 -25 0 -30
-4 -30 -25 0 -20 5 -25 24 -25 l24 0 4 -176 3 -176 28 -24 c45 -39 127 -31
127 11 0 20 -6 24 -37 27 l-38 3 -3 168 -2 167 40 0 c36 0 40 2 40 25 0 22 -4
25 -39 25 l-40 0 -3 48 c-3 40 -6 47 -25 50 -18 3 -24 -4 -32 -35z"/>
<path d="M6441 4763 c-6 -21 -11 -44 -11 -50 0 -8 -13 -13 -30 -13 -25 0 -30
-4 -30 -25 0 -20 5 -25 24 -25 l24 0 4 -176 3 -176 28 -24 c45 -39 127 -31
127 11 0 20 -6 24 -37 27 l-38 3 -3 168 -2 167 40 0 c36 0 40 2 40 25 0 22 -4
25 -39 25 l-40 0 -3 48 c-3 40 -6 47 -25 50 -18 3 -24 -4 -32 -35z"/>
<path d="M2554 4691 c-44 -20 -74 -54 -74 -83 0 -29 66 -25 81 5 17 32 28 37
85 37 63 0 94 -27 94 -82 l0 -36 -92 -4 c-142 -7 -188 -42 -188 -145 0 -62 17
-94 60 -115 68 -35 142 -20 197 38 33 35 33 35 33 10 0 -42 34 -68 83 -64 35
2 43 7 45 26 3 16 -2 22 -16 22 -11 0 -24 6 -30 13 -5 6 -12 77 -14 157 -3
157 -10 181 -63 216 -40 26 -151 29 -201 5z m186 -249 c0 -76 -63 -142 -137
-142 -56 0 -92 75 -62 131 16 30 66 48 137 49 l62 0 0 -38z"/>
<path d="M3039 4699 c-56 -8 -92 -30 -107 -65 -36 -78 9 -139 128 -174 114
-34 130 -44 130 -85 0 -48 -28 -65 -108 -65 -58 0 -67 3 -92 30 -47 51 -102
30 -66 -25 23 -35 70 -56 135 -62 72 -7 137 11 173 47 23 24 28 37 28 80 0 71
-29 98 -149 134 -94 28 -121 45 -121 76 0 64 138 83 187 26 22 -26 47 -32 70
-18 18 11 -18 67 -54 85 -37 19 -97 25 -154 16z"/>
<path d="M3675 4691 c-78 -35 -105 -91 -105 -213 0 -88 19 -147 56 -180 76
-67 222 -62 284 9 37 41 37 49 4 57 -20 5 -33 0 -60 -24 -29 -25 -43 -30 -88
-30 -64 0 -98 26 -115 86 -19 67 -26 64 144 64 l155 0 0 50 c0 59 -21 114 -57
153 -47 48 -146 61 -218 28z m152 -57 c26 -16 38 -37 48 -81 l7 -33 -121 0
-121 0 6 28 c22 96 103 134 181 86z"/>
<path d="M4177 4699 c-10 -6 -27 -25 -38 -42 -16 -28 -19 -29 -19 -10 0 39
-11 53 -41 53 l-29 0 0 -220 0 -220 35 0 35 0 0 140 c0 192 20 240 99 240 29
0 31 3 31 35 0 32 -3 35 -27 35 -16 0 -36 -5 -46 -11z"/>
<path d="M4665 4699 c-11 -6 -32 -23 -46 -36 l-26 -24 -6 30 c-6 26 -11 31
-37 31 l-30 0 0 -220 0 -220 35 0 35 0 0 145 c0 157 9 199 51 229 33 23 104
21 129 -4 18 -18 20 -33 20 -195 l0 -175 40 0 40 0 -1 168 c0 183 -8 224 -51
255 -32 24 -123 33 -153 16z"/>
<path d="M5045 4694 c-64 -32 -87 -91 -86 -219 0 -129 37 -196 117 -211 52
-10 101 4 139 38 l35 30 0 -62 c0 -55 -3 -65 -29 -91 -25 -24 -38 -29 -78 -29
-48 0 -84 19 -95 50 -2 7 -16 8 -41 3 l-37 -8 20 -32 c29 -48 63 -65 138 -70
86 -6 145 22 176 82 19 36 21 61 24 283 l4 242 -35 0 c-31 0 -35 -3 -41 -32
l-6 -32 -16 23 c-34 48 -130 66 -189 35z m156 -59 c6 -4 20 -26 30 -49 26 -57
25 -154 -1 -206 -23 -46 -49 -62 -96 -62 -77 0 -110 60 -102 187 6 88 27 132
71 143 30 8 72 2 98 -13z"/>
<path d="M6747 4696 c-84 -31 -117 -90 -117 -216 0 -93 18 -147 61 -187 90
-82 257 -41 285 71 6 24 4 26 -29 26 -27 0 -37 -5 -42 -20 -10 -33 -54 -60
-97 -60 -76 0 -115 77 -105 205 7 82 28 116 81 129 50 13 87 -2 106 -41 12
-27 21 -33 47 -33 40 0 48 12 29 47 -41 79 -129 111 -219 79z"/>
<path d="M7166 4700 c-75 -23 -118 -103 -118 -220 0 -168 85 -248 238 -225 56
8 117 59 136 113 7 20 12 73 12 118 0 107 -29 169 -94 202 -46 23 -119 28
-174 12z m152 -73 c31 -29 45 -89 40 -175 -6 -88 -26 -121 -85 -140 -54 -17
-104 2 -130 50 -27 49 -25 190 2 238 36 60 122 74 173 27z"/>
<path d="M7865 4699 c-11 -6 -32 -23 -46 -36 l-26 -24 -6 30 c-6 26 -11 31
-37 31 l-30 0 0 -220 0 -220 35 0 35 0 0 145 c0 157 9 199 51 229 33 23 104
21 129 -4 18 -18 20 -33 20 -195 l0 -175 40 0 40 0 -1 168 c0 183 -8 224 -51
255 -32 24 -123 33 -153 16z"/>
<path d="M9084 4691 c-44 -20 -74 -54 -74 -83 0 -29 66 -25 81 5 17 32 28 37
85 37 63 0 94 -27 94 -82 l0 -36 -92 -4 c-142 -7 -188 -42 -188 -145 0 -62 17
-94 60 -115 68 -35 142 -20 197 38 33 35 33 35 33 10 0 -42 34 -68 83 -64 35
2 43 7 45 26 3 16 -2 22 -16 22 -11 0 -24 6 -30 13 -5 6 -12 77 -14 157 -3
157 -10 181 -63 216 -40 26 -151 29 -201 5z m186 -249 c0 -76 -63 -142 -137
-142 -56 0 -92 75 -62 131 16 30 66 48 137 49 l62 0 0 -38z"/>
<path d="M9579 4699 c-56 -8 -92 -30 -107 -65 -36 -78 9 -139 128 -174 114
-34 130 -44 130 -85 0 -48 -28 -65 -108 -65 -58 0 -67 3 -92 30 -47 51 -102
30 -66 -25 23 -35 70 -56 135 -62 72 -7 137 11 173 47 23 24 28 37 28 80 0 71
-29 98 -149 134 -94 28 -121 45 -121 76 0 64 138 83 187 26 22 -26 47 -32 70
-18 18 11 -18 67 -54 85 -37 19 -97 25 -154 16z"/>
<path d="M4330 4480 l0 -220 35 0 35 0 0 220 0 220 -35 0 -35 0 0 -220z"/>
<path d="M6230 4480 l0 -220 35 0 35 0 0 220 0 220 -35 0 -35 0 0 -220z"/>
<path d="M7530 4480 l0 -220 35 0 35 0 0 220 0 220 -35 0 -35 0 0 -220z"/>
<path d="M5450 1310 l0 -81 -22 21 c-16 15 -35 20 -73 20 -44 0 -55 -4 -80
-30 -26 -27 -30 -40 -33 -100 -5 -91 3 -132 33 -164 20 -22 33 -26 78 -26 45
0 59 4 81 26 l26 27 0 -27 c0 -21 5 -26 25 -26 l25 0 0 220 0 220 -30 0 -30 0
0 -80z m-34 -88 c23 -15 34 -53 34 -115 0 -84 -23 -117 -80 -117 -56 0 -75 32
-75 126 0 87 18 114 74 114 20 0 41 -4 47 -8z"/>
<path d="M5790 1310 l0 -81 -22 21 c-16 15 -35 20 -73 20 -44 0 -55 -4 -80
-30 -26 -27 -30 -40 -33 -100 -5 -91 3 -132 33 -164 20 -22 33 -26 78 -26 45
0 59 4 81 26 l26 27 0 -27 c0 -21 5 -26 25 -26 l25 0 0 220 0 220 -30 0 -30 0
0 -80z m-34 -88 c23 -15 34 -53 34 -115 0 -84 -23 -117 -80 -117 -56 0 -75 32
-75 126 0 87 18 114 74 114 20 0 41 -4 47 -8z"/>
<path d="M8920 1310 l0 -81 -22 21 c-16 15 -35 20 -73 20 -44 0 -55 -4 -80
-30 -26 -27 -30 -40 -33 -100 -5 -91 3 -132 33 -164 20 -22 33 -26 78 -26 45
0 59 4 81 26 l26 27 0 -27 c0 -21 5 -26 25 -26 l25 0 0 220 0 220 -30 0 -30 0
0 -80z m-34 -88 c23 -15 34 -53 34 -115 0 -84 -23 -117 -80 -117 -56 0 -75 32
-75 126 0 87 18 114 74 114 20 0 41 -4 47 -8z"/>
<path d="M10110 1170 l0 -220 25 0 25 0 0 220 0 220 -25 0 -25 0 0 -220z"/>
<path d="M10250 1170 l0 -220 25 0 25 0 0 220 0 220 -25 0 -25 0 0 -220z"/>
<path d="M920 1160 l0 -210 30 0 30 0 0 79 0 78 84 6 c134 9 176 41 176 135 0
47 -4 58 -30 82 -36 34 -66 40 -191 40 l-99 0 0 -210z m247 134 c21 -21 24
-32 20 -62 -10 -57 -27 -67 -122 -71 l-85 -3 0 81 0 81 80 0 c74 0 83 -2 107
-26z"/>
<path d="M2225 1339 c-43 -38 -49 -79 -10 -79 15 0 25 6 25 14 0 22 49 56 82
56 43 0 82 -43 74 -81 -8 -39 -27 -64 -99 -123 -70 -58 -117 -119 -117 -153
l0 -23 141 0 c140 0 140 0 137 23 -3 21 -8 22 -110 27 l-107 5 27 31 c15 17
53 52 84 79 67 55 98 100 98 143 0 75 -44 112 -134 112 -48 0 -60 -4 -91 -31z"/>
<path d="M3210 1160 l0 -210 30 0 30 0 0 83 c1 76 2 83 26 101 14 10 29 14 33
10 4 -5 42 -51 85 -101 70 -85 80 -93 112 -93 l35 0 -87 103 c-49 56 -95 110
-103 120 -14 16 -8 25 74 107 88 89 89 90 58 90 -27 0 -47 -15 -132 -102
l-101 -103 0 103 0 102 -30 0 -30 0 0 -210z"/>
<path d="M4980 1367 c0 -2 -38 -97 -85 -211 l-84 -207 31 3 c28 3 33 9 53 63
l23 60 95 3 95 3 24 -63 c20 -54 28 -63 51 -66 15 -2 27 0 27 5 0 4 -36 99
-81 211 l-81 202 -34 0 c-19 0 -34 -2 -34 -3z m74 -146 c20 -51 36 -95 36 -97
0 -2 -34 -4 -75 -4 -41 0 -75 2 -75 5 0 10 73 196 75 193 2 -2 19 -45 39 -97z"/>
<path d="M9236 1223 c24 -81 52 -176 61 -210 17 -62 18 -63 53 -63 l35 0 45
169 c25 94 47 167 51 163 3 -4 11 -29 18 -57 6 -27 26 -101 43 -162 l30 -113
34 0 c32 0 33 1 58 83 48 158 96 324 96 330 0 4 -13 7 -28 7 -29 0 -29 0 -77
-180 -27 -99 -50 -179 -51 -177 -1 1 -23 82 -49 180 -47 176 -48 177 -76 177
-25 0 -29 -5 -43 -52 -23 -81 -74 -271 -79 -293 -3 -16 -5 -14 -12 10 -4 17
-27 98 -50 180 -41 150 -42 150 -72 153 l-31 3 44 -148z"/>
<path d="M1877 1343 c-3 -5 -8 -23 -12 -40 -5 -23 -12 -33 -26 -33 -12 0 -19
-7 -19 -20 0 -13 7 -20 20 -20 19 0 20 -7 20 -129 0 -147 3 -154 72 -149 31 2
44 8 46 20 2 12 -5 17 -30 20 l-33 3 -3 118 -3 117 31 0 c23 0 30 4 30 20 0
16 -7 20 -30 20 -28 0 -30 2 -30 40 0 28 -4 40 -14 40 -8 0 -17 -3 -19 -7z"/>
<path d="M10747 1343 c-3 -5 -8 -23 -12 -40 -5 -23 -12 -33 -26 -33 -12 0 -19
-7 -19 -20 0 -13 7 -20 20 -20 19 0 20 -7 20 -129 0 -147 3 -154 72 -149 31 2
44 8 46 20 2 12 -5 17 -30 20 l-33 3 -3 118 -3 117 31 0 c23 0 30 4 30 20 0
16 -7 20 -30 20 -28 0 -30 2 -30 40 0 28 -4 40 -14 40 -8 0 -17 -3 -19 -7z"/>
<path d="M1339 1241 c-16 -16 -29 -34 -29 -40 0 -20 54 -12 68 9 18 30 95 28
116 -2 30 -42 21 -58 -31 -58 -62 0 -119 -16 -144 -41 -27 -27 -26 -98 2 -133
18 -22 28 -26 75 -26 48 0 60 4 85 29 16 16 29 24 29 17 0 -22 35 -46 68 -46
25 0 32 4 32 20 0 13 -7 20 -19 20 -26 0 -31 18 -31 127 0 91 -1 96 -29 124
-27 26 -36 29 -96 29 -60 0 -69 -3 -96 -29z m171 -151 c0 -29 -27 -78 -49 -90
-33 -17 -89 -12 -101 9 -30 57 12 101 96 101 48 0 54 -2 54 -20z"/>
<path d="M1650 1110 l0 -160 30 0 30 0 0 114 c0 127 12 156 63 159 21 2 27 7
27 25 0 18 -6 22 -30 22 -23 0 -35 -7 -50 -32 l-20 -33 0 33 c0 27 -3 32 -25
32 l-25 0 0 -160z"/>
<path d="M3632 1236 l-37 -34 0 -92 0 -92 37 -34 c35 -31 43 -34 103 -34 57 0
68 3 96 28 19 17 29 34 25 40 -11 18 -34 14 -56 -8 -14 -14 -33 -20 -63 -20
-51 0 -81 26 -92 78 l-7 32 116 0 116 0 0 30 c0 44 -23 93 -55 118 -21 17 -41
22 -86 22 -54 0 -63 -3 -97 -34z m151 -18 c9 -7 21 -28 26 -45 l10 -33 -91 0
c-78 0 -89 2 -84 16 3 9 6 20 6 25 0 5 9 18 20 29 23 23 86 27 113 8z"/>
<path d="M3966 1109 c60 -153 63 -163 49 -190 -17 -32 -52 -59 -77 -59 -11 0
-18 -8 -18 -20 0 -16 7 -20 34 -20 38 0 80 29 101 69 14 28 145 368 145 378 0
2 -12 3 -27 1 -26 -3 -31 -12 -72 -132 l-45 -129 -13 39 c-7 21 -30 81 -49
132 -34 85 -38 92 -64 92 l-28 0 64 -161z"/>
<path d="M4275 1258 c-78 -42 -52 -133 46 -158 77 -19 109 -37 109 -63 0 -35
-19 -47 -77 -47 -40 0 -58 5 -73 20 -23 23 -60 27 -60 6 0 -8 14 -26 31 -40
26 -22 40 -26 99 -26 59 0 73 4 99 26 25 21 31 34 31 64 0 46 -29 74 -94 90
-93 24 -124 52 -96 85 19 23 106 20 127 -5 22 -26 53 -26 53 -1 0 36 -46 61
-114 61 -33 0 -70 -6 -81 -12z"/>
<path d="M5930 1110 l0 -160 30 0 30 0 0 114 c0 127 12 156 63 159 21 2 27 7
27 25 0 18 -6 22 -30 22 -23 0 -35 -7 -50 -32 l-20 -33 0 33 c0 27 -3 32 -25
32 l-25 0 0 -160z"/>
<path d="M6162 1236 l-37 -34 0 -92 0 -92 37 -34 c35 -31 43 -34 103 -34 57 0
68 3 96 28 19 17 29 34 25 40 -11 18 -34 14 -56 -8 -14 -14 -33 -20 -63 -20
-51 0 -81 26 -92 78 l-7 32 116 0 116 0 0 30 c0 44 -23 93 -55 118 -21 17 -41
22 -86 22 -54 0 -63 -3 -97 -34z m151 -18 c9 -7 21 -28 26 -45 l10 -33 -91 0
c-78 0 -89 2 -84 16 3 9 6 20 6 25 0 5 9 18 20 29 23 23 86 27 113 8z"/>
<path d="M6505 1258 c-78 -42 -52 -133 46 -158 77 -19 109 -37 109 -63 0 -35
-19 -47 -77 -47 -40 0 -58 5 -73 20 -23 23 -60 27 -60 6 0 -8 14 -26 31 -40
26 -22 40 -26 99 -26 59 0 73 4 99 26 25 21 31 34 31 64 0 46 -29 74 -94 90
-93 24 -124 52 -96 85 19 23 106 20 127 -5 22 -26 53 -26 53 -1 0 36 -46 61
-114 61 -33 0 -70 -6 -81 -12z"/>
<path d="M6805 1258 c-78 -42 -52 -133 46 -158 77 -19 109 -37 109 -63 0 -35
-19 -47 -77 -47 -40 0 -58 5 -73 20 -23 23 -60 27 -60 6 0 -8 14 -26 31 -40
26 -22 40 -26 99 -26 59 0 73 4 99 26 25 21 31 34 31 64 0 46 -29 74 -94 90
-93 24 -124 52 -96 85 19 23 106 20 127 -5 22 -26 53 -26 53 -1 0 36 -46 61
-114 61 -33 0 -70 -6 -81 -12z"/>
<path d="M7102 1236 l-37 -34 0 -92 0 -92 37 -34 c35 -31 43 -34 103 -34 57 0
68 3 96 28 19 17 29 34 25 40 -11 18 -34 14 -56 -8 -14 -14 -33 -20 -63 -20
-51 0 -81 26 -92 78 l-7 32 116 0 116 0 0 30 c0 44 -23 93 -55 118 -21 17 -41
22 -86 22 -54 0 -63 -3 -97 -34z m151 -18 c9 -7 21 -28 26 -45 l10 -33 -91 0
c-78 0 -89 2 -84 16 3 9 6 20 6 25 0 5 9 18 20 29 23 23 86 27 113 8z"/>
<path d="M7445 1258 c-78 -42 -52 -133 46 -158 77 -19 109 -37 109 -63 0 -35
-19 -47 -77 -47 -40 0 -58 5 -73 20 -23 23 -60 27 -60 6 0 -8 14 -26 31 -40
26 -22 40 -26 99 -26 59 0 73 4 99 26 25 21 31 34 31 64 0 46 -29 74 -94 90
-93 24 -124 52 -96 85 19 23 106 20 127 -5 22 -26 53 -26 53 -1 0 36 -46 61
-114 61 -33 0 -70 -6 -81 -12z"/>
<path d="M8079 1241 c-16 -16 -29 -34 -29 -40 0 -20 54 -12 68 9 18 30 95 28
116 -2 30 -42 21 -58 -31 -58 -62 0 -119 -16 -144 -41 -27 -27 -26 -98 2 -133
18 -22 28 -26 75 -26 48 0 60 4 85 29 16 16 29 24 29 17 0 -22 35 -46 68 -46
25 0 32 4 32 20 0 13 -7 20 -19 20 -26 0 -31 18 -31 127 0 91 -1 96 -29 124
-27 26 -36 29 -96 29 -60 0 -69 -3 -96 -29z m171 -151 c0 -29 -27 -78 -49 -90
-33 -17 -89 -12 -101 9 -30 57 12 101 96 101 48 0 54 -2 54 -20z"/>
<path d="M8390 1110 l0 -160 30 0 30 0 0 114 c0 99 3 117 21 140 16 20 29 26
59 26 58 0 64 -15 69 -157 3 -122 3 -123 27 -123 l24 0 0 125 c0 172 -13 195
-105 195 -32 0 -51 -7 -74 -26 l-31 -26 0 26 c0 21 -5 26 -25 26 l-25 0 0
-160z"/>
<path d="M9809 1241 c-16 -16 -29 -34 -29 -40 0 -20 54 -12 68 9 18 30 95 28
116 -2 30 -42 21 -58 -31 -58 -62 0 -119 -16 -144 -41 -27 -27 -26 -98 2 -133
18 -22 28 -26 75 -26 48 0 60 4 85 29 16 16 29 24 29 17 0 -22 35 -46 68 -46
25 0 32 4 32 20 0 13 -7 20 -19 20 -26 0 -31 18 -31 127 0 91 -1 96 -29 124
-27 26 -36 29 -96 29 -60 0 -69 -3 -96 -29z m171 -151 c0 -29 -27 -78 -49 -90
-33 -17 -89 -12 -101 9 -30 57 12 101 96 101 48 0 54 -2 54 -20z"/>
<path d="M10412 1236 l-37 -34 0 -92 0 -92 37 -34 c35 -31 43 -34 103 -34 57
0 68 3 96 28 19 17 29 34 25 40 -11 18 -34 14 -56 -8 -14 -14 -33 -20 -63 -20
-51 0 -81 26 -92 78 l-7 32 116 0 116 0 0 30 c0 44 -23 93 -55 118 -21 17 -41
22 -86 22 -54 0 -63 -3 -97 -34z m151 -18 c9 -7 21 -28 26 -45 l10 -33 -91 0
c-78 0 -89 2 -84 16 3 9 6 20 6 25 0 5 9 18 20 29 23 23 86 27 113 8z"/>
<path d="M10925 1258 c-78 -42 -52 -133 46 -158 77 -19 109 -37 109 -63 0 -35
-19 -47 -77 -47 -40 0 -58 5 -73 20 -23 23 -60 27 -60 6 0 -8 14 -26 31 -40
26 -22 40 -26 99 -26 59 0 73 4 99 26 25 21 31 34 31 64 0 46 -29 74 -94 90
-93 24 -124 52 -96 85 19 23 106 20 127 -5 22 -26 53 -26 53 -1 0 36 -46 61
-114 61 -33 0 -70 -6 -81 -12z"/>
<path d="M2650 1110 c0 -19 7 -20 170 -20 163 0 170 1 170 20 0 19 -7 20 -170
20 -163 0 -170 -1 -170 -20z"/>
<path d="M4570 985 c0 -19 5 -35 11 -35 11 0 9 -28 -6 -62 -5 -13 -3 -18 9
-18 23 0 36 33 36 94 0 53 -1 56 -25 56 -22 0 -25 -4 -25 -35z"/>
<path d="M7730 985 c0 -19 5 -35 11 -35 11 0 9 -28 -6 -62 -5 -13 -3 -18 9
-18 23 0 36 33 36 94 0 53 -1 56 -25 56 -22 0 -25 -4 -25 -35z"/>
</g>
</svg>
