<?xml version="1.0" standalone="no"?>
<!DOCTYPE svg PUBLIC "-//W3C//DTD SVG 20010904//EN"
 "http://www.w3.org/TR/2001/REC-SVG-20010904/DTD/svg10.dtd">
<svg version="1.0" xmlns="http://www.w3.org/2000/svg"
 width="1280.000000pt" height="720.000000pt" viewBox="0 0 1280.000000 720.000000"
 preserveAspectRatio="xMidYMid meet">

<g transform="translate(0.000000,720.000000) scale(0.100000,-0.100000)"
fill="#000000" stroke="none">
<path d="M0 3600 l0 -3600 870 0 870 0 0 3600 0 3600 -870 0 -870 0 0 -3600z"/>
<path d="M11060 4900 c0 -2298 0 -2301 -20 -2290 -23 13 -26 5 -5 -16 8 -8 12
-21 9 -29 -4 -8 -1 -15 5 -15 8 0 11 -350 11 -1275 l0 -1275 870 0 870 0 0
3600 0 3600 -870 0 -870 0 0 -2300z"/>
<path d="M10563 7075 c0 -44 2 -61 4 -37 2 23 2 59 0 80 -2 20 -4 1 -4 -43z"/>
<path d="M2090 7035 c0 -54 1 -55 28 -54 16 1 20 3 10 6 -14 3 -18 15 -18 54
0 27 -4 49 -10 49 -5 0 -10 -25 -10 -55z"/>
<path d="M3390 7035 c0 -36 4 -54 10 -50 6 4 8 10 5 15 -8 13 6 40 20 40 8 0
15 -14 18 -32 4 -32 4 -32 5 5 2 31 -1 37 -18 37 -11 0 -20 6 -20 14 0 8 -4
18 -10 21 -6 4 -10 -15 -10 -50z"/>
<path d="M3700 7035 c0 -35 4 -54 10 -50 6 3 10 14 10 23 1 14 4 13 19 -5 27
-33 36 -28 12 6 -18 25 -19 30 -6 47 22 29 18 40 -5 13 -16 -20 -19 -21 -20
-7 0 9 -4 20 -10 23 -6 4 -10 -15 -10 -50z"/>
<path d="M3818 7085 c-4 -4 -4 -20 -1 -36 4 -19 1 -29 -7 -29 -7 0 -10 7 -6
18 5 14 4 14 -9 -2 -20 -27 -19 -36 5 -36 11 0 20 -6 20 -12 1 -9 4 -8 9 2 10
17 0 105 -11 95z"/>
<path d="M3945 7056 c-9 -48 -24 -55 -31 -16 -4 17 -11 33 -17 37 -6 4 -8 -3
-3 -20 12 -49 26 -78 35 -73 10 7 34 96 27 103 -3 3 -8 -11 -11 -31z"/>
<path d="M3980 7081 c0 -6 6 -8 14 -5 20 8 29 -12 16 -38 -11 -22 -11 -22 5
-3 8 11 14 26 13 35 -4 17 -48 27 -48 11z"/>
<path d="M4103 7079 c9 -5 17 -16 17 -24 0 -7 -8 -16 -17 -18 -17 -4 -17 -5 0
-6 9 0 17 -8 17 -16 0 -7 -8 -19 -17 -24 -16 -9 -16 -10 5 -11 20 0 22 5 22
55 0 50 -2 55 -22 55 -21 -1 -21 -2 -5 -11z"/>
<path d="M10460 7080 c0 -5 5 -10 11 -10 5 0 7 5 4 10 -3 6 -8 10 -11 10 -2 0
-4 -4 -4 -10z"/>
<path d="M10827 7079 c7 -7 15 -10 18 -7 3 3 -2 9 -12 12 -14 6 -15 5 -6 -5z"/>
<path d="M10315 7070 c3 -5 8 -10 11 -10 2 0 4 5 4 10 0 6 -5 10 -11 10 -5 0
-7 -4 -4 -10z"/>
<path d="M10428 7063 c7 -3 16 -2 19 1 4 3 -2 6 -13 5 -11 0 -14 -3 -6 -6z"/>
<path d="M2183 7043 c16 -4 15 -6 -4 -22 -24 -20 -19 -41 11 -41 24 0 29 9 23
43 -4 20 -11 27 -27 26 -17 -1 -18 -2 -3 -6z m17 -38 c0 -8 -4 -15 -10 -15 -5
0 -10 7 -10 15 0 8 5 15 10 15 6 0 10 -7 10 -15z"/>
<path d="M2240 7037 c0 -7 6 -19 12 -25 10 -10 10 -15 -2 -22 -13 -8 -13 -10
2 -10 25 0 34 21 15 35 -22 16 -21 22 1 28 13 4 11 5 -5 6 -13 0 -23 -5 -23
-12z"/>
<path d="M2301 7036 c-17 -21 3 -56 32 -55 l22 0 -22 9 c-29 12 -30 30 -2 30
12 0 19 5 17 13 -7 18 -33 20 -47 3z m36 -2 c-3 -3 -12 -4 -19 -1 -8 3 -5 6 6
6 11 1 17 -2 13 -5z"/>
<path d="M2371 7013 c2 -35 2 -35 6 -8 3 16 10 33 16 37 8 5 6 8 -5 8 -14 0
-18 -8 -17 -37z"/>
<path d="M2454 7036 c-11 -28 1 -51 26 -53 l25 -3 -23 10 c-27 11 -21 30 9 30
27 0 19 24 -9 28 -13 2 -25 -3 -28 -12z"/>
<path d="M2520 7014 c0 -21 4 -33 10 -29 6 4 10 12 9 18 -3 26 2 37 15 37 9 0
16 -13 19 -32 4 -32 4 -32 5 5 2 35 0 37 -28 37 -28 0 -30 -3 -30 -36z"/>
<path d="M2607 7028 c-6 -23 8 -48 26 -48 5 0 3 8 -5 18 -17 19 -13 42 8 42
10 0 14 -12 14 -40 0 -22 5 -40 10 -40 6 0 10 20 10 45 0 43 -1 45 -29 45 -21
0 -30 -6 -34 -22z"/>
<path d="M2691 7013 c1 -27 3 -31 6 -13 2 14 12 31 21 38 14 11 13 12 -6 12
-19 0 -22 -5 -21 -37z"/>
<path d="M2754 7042 c18 -8 18 -9 3 -15 -9 -3 -17 -16 -17 -27 0 -16 5 -21 23
-18 17 2 22 10 22 33 0 25 -4 30 -25 32 -21 2 -22 1 -6 -5z m16 -37 c0 -8 -4
-15 -10 -15 -5 0 -10 7 -10 15 0 8 5 15 10 15 6 0 10 -7 10 -15z"/>
<path d="M2807 7029 c4 -13 8 -18 11 -10 2 7 -1 18 -6 23 -8 8 -9 4 -5 -13z"/>
<path d="M2883 7015 c0 -22 2 -30 4 -17 2 12 2 30 0 40 -3 9 -5 -1 -4 -23z"/>
<path d="M2923 7015 c0 -22 2 -30 4 -17 2 12 2 30 0 40 -3 9 -5 -1 -4 -23z"/>
<path d="M2948 7044 c6 -3 12 -19 12 -35 0 -16 5 -29 11 -29 6 0 9 14 7 32 -2
24 -8 33 -23 35 -11 2 -14 0 -7 -3z"/>
<path d="M3007 7043 c-15 -15 -7 -55 13 -60 11 -3 20 -9 20 -14 0 -5 5 -9 10
-9 6 0 10 20 10 45 0 40 -2 45 -23 45 -13 0 -27 -3 -30 -7z m40 -18 c5 -16
-14 -38 -26 -31 -18 12 -13 48 6 44 9 -2 18 -7 20 -13z"/>
<path d="M3123 7015 c0 -22 2 -30 4 -17 2 12 2 30 0 40 -3 9 -5 -1 -4 -23z"/>
<path d="M3147 7042 c7 -4 16 -19 22 -32 l10 -25 0 28 c1 15 6 27 11 27 10 0
14 -14 11 -37 -1 -7 3 -13 9 -13 6 0 10 12 8 28 -3 24 -7 27 -43 29 -22 1 -35
-1 -28 -5z"/>
<path d="M3264 7042 c18 -8 18 -9 3 -15 -9 -3 -17 -16 -17 -27 0 -16 5 -21 23
-18 17 2 22 10 22 33 0 25 -4 30 -25 32 -21 2 -22 1 -6 -5z m17 -45 c-13 -13
-26 -3 -16 12 3 6 11 8 17 5 6 -4 6 -10 -1 -17z"/>
<path d="M3324 7036 c-11 -28 1 -51 26 -53 25 -3 25 -3 3 7 -13 5 -23 16 -23
25 0 9 10 20 23 25 l22 9 -23 0 c-12 1 -25 -5 -28 -13z"/>
<path d="M3483 7015 c0 -22 2 -30 4 -17 2 12 2 30 0 40 -3 9 -5 -1 -4 -23z"/>
<path d="M3511 7013 l1 -38 9 33 c12 39 31 37 41 -4 6 -27 6 -27 5 6 -2 30 -6
35 -29 38 -26 3 -28 1 -27 -35z"/>
<path d="M3595 7030 c-8 -24 10 -51 34 -49 13 1 13 2 -1 6 -25 6 -22 33 3 33
27 0 20 24 -8 28 -14 2 -23 -4 -28 -18z m42 4 c-3 -3 -12 -4 -19 -1 -8 3 -5 6
6 6 11 1 17 -2 13 -5z"/>
<path d="M1895 7000 c-3 -5 -1 -10 4 -10 6 0 11 5 11 10 0 6 -2 10 -4 10 -3 0
-8 -4 -11 -10z"/>
<path d="M2827 7003 c-4 -3 -7 -11 -7 -17 0 -6 5 -5 12 2 6 6 9 14 7 17 -3 3
-9 2 -12 -2z"/>
<path d="M3977 6996 c-5 -13 1 -16 31 -15 28 1 31 3 12 6 -14 3 -28 9 -31 15
-4 5 -9 3 -12 -6z"/>
<path d="M10305 6720 c-4 -6 12 -10 42 -10 155 0 191 -220 48 -294 -17 -9 -23
-16 -15 -15 54 2 129 90 130 151 0 34 -27 95 -56 125 -38 39 -134 67 -149 43z"/>
<path d="M4105 6710 c-3 -5 -29 -10 -56 -10 -43 0 -50 -3 -47 -17 3 -16 18
-18 143 -18 118 0 140 2 140 15 0 11 -13 16 -45 18 -25 2 -49 7 -54 13 -13 12
-73 12 -81 -1z"/>
<path d="M4803 6703 c21 -24 22 -39 2 -47 -9 -3 -15 -11 -14 -18 2 -7 -7 -35
-20 -63 -12 -27 -29 -65 -37 -82 -7 -18 -20 -33 -29 -33 -8 0 -15 -7 -15 -15
0 -11 12 -15 44 -15 48 0 72 18 37 27 -22 6 -25 14 -15 51 6 19 13 22 60 22
52 0 54 -1 62 -32 6 -25 5 -34 -5 -36 -7 -2 -13 -10 -13 -18 0 -10 13 -14 49
-14 50 0 76 15 47 26 -17 7 -66 96 -66 120 0 8 -5 14 -11 14 -5 0 -8 4 -5 9 3
5 -1 12 -10 15 -13 5 -14 9 -4 21 11 13 10 14 -4 9 -9 -3 -16 -1 -16 5 0 6 5
11 10 11 6 0 10 5 10 10 0 6 -6 9 -12 8 -7 -2 -13 6 -13 17 0 14 -8 21 -25 24
-24 3 -24 2 -7 -16z m33 -88 c3 -19 10 -38 15 -41 21 -13 6 -24 -32 -24 -44 0
-45 3 -16 73 16 36 25 34 33 -8z"/>
<path d="M5371 6672 c1 -48 3 -48 13 1 4 15 13 27 21 27 15 0 19 -10 16 -42
-1 -10 3 -18 8 -18 6 0 11 16 11 35 0 44 27 38 33 -8 3 -27 4 -26 5 9 l2 42
-55 1 -55 0 1 -47z"/>
<path d="M5511 6672 c2 -44 2 -45 8 -12 8 44 33 47 42 5 l7 -30 1 33 c1 26 5
33 18 30 10 -2 21 -16 25 -33 6 -26 6 -25 5 10 l-2 40 -52 2 -53 3 1 -48z"/>
<path d="M6849 6696 c-12 -27 -39 -38 -60 -25 -20 12 -29 1 -23 -30 5 -24 1
-32 -20 -46 -32 -21 -32 -27 -3 -40 17 -8 22 -18 22 -45 0 -34 1 -35 37 -32
29 3 37 0 43 -17 8 -27 31 -27 38 0 4 17 12 20 39 17 29 -2 33 0 31 20 -4 30
13 62 32 62 8 0 15 7 15 15 0 8 -7 15 -15 15 -20 0 -35 32 -28 60 5 20 3 22
-17 17 -27 -7 -60 8 -60 28 0 25 -20 26 -31 1z m49 -82 c29 -20 28 -55 -4 -85
-23 -22 -27 -23 -52 -8 -20 11 -28 24 -30 49 -5 54 39 77 86 44z"/>
<path d="M10260 6700 c-14 -11 -20 -20 -14 -20 6 0 19 9 29 20 23 25 17 25
-15 0z"/>
<path d="M6072 6702 c-16 -11 -13 -250 3 -242 6 3 9 29 7 59 -1 29 3 60 9 67
13 16 154 20 177 5 10 -6 13 -26 10 -72 -2 -52 0 -64 12 -64 23 0 27 216 5
239 -26 25 -35 19 -35 -24 0 -50 -26 -66 -93 -56 -47 7 -57 20 -57 74 0 23
-15 28 -38 14z"/>
<path d="M3441 6691 c-20 -13 -9 -92 18 -129 11 -17 21 -44 21 -61 0 -34 11
-38 51 -19 27 12 59 67 59 99 0 33 -29 73 -70 97 -42 24 -58 26 -79 13z m69
-55 c0 -11 -19 -15 -25 -6 -3 5 1 10 9 10 9 0 16 -2 16 -4z"/>
<path d="M7528 6692 c-14 -2 -18 -13 -18 -43 0 -32 -3 -39 -20 -39 -26 0 -25
-16 3 -43 51 -50 50 -50 92 -7 l38 39 -27 11 c-20 7 -26 15 -22 27 14 35 -10
64 -46 55z"/>
<path d="M6202 6665 c2 -14 8 -26 13 -26 6 0 11 12 13 26 2 18 -1 25 -13 25
-12 0 -15 -7 -13 -25z"/>
<path d="M10190 6632 c-49 -74 -18 -167 70 -212 53 -27 65 -25 15 3 -26 14
-48 37 -62 67 -27 52 -29 87 -8 137 20 48 15 50 -15 5z"/>
<path d="M4017 6630 c-8 -32 5 -184 17 -192 19 -13 211 -9 224 4 8 8 12 47 12
110 l0 98 -124 0 c-114 0 -124 -1 -129 -20z m141 -95 c-2 -36 -8 -60 -15 -63
-10 -3 -13 14 -13 61 0 35 3 67 7 70 15 16 24 -13 21 -68z m70 1 c-2 -31 -7
-57 -13 -59 -11 -2 -20 97 -10 121 12 32 26 -6 23 -62z m-140 2 c-2 -38 -8
-63 -15 -66 -10 -3 -13 14 -13 62 0 53 3 66 15 66 13 0 15 -11 13 -62z"/>
<path d="M8257 6633 c-4 -3 -7 -28 -7 -55 0 -46 1 -48 28 -48 15 0 34 6 40 12
10 10 15 10 22 -2 7 -11 10 -5 10 23 0 23 -4 36 -10 32 -5 -3 -10 1 -10 9 0
25 -56 47 -73 29z m48 -53 c0 -25 -5 -36 -17 -38 -15 -3 -18 4 -18 38 0 34 3
41 18 38 12 -2 17 -13 17 -38z"/>
<path d="M8972 6618 c-1 -11 -10 -18 -22 -18 -21 0 -38 -40 -25 -59 8 -14 55
-14 55 -1 0 7 6 7 19 0 24 -12 51 -13 51 -1 0 5 -9 7 -20 4 -11 -3 -20 -1 -20
5 0 6 10 12 23 14 25 3 26 18 3 33 -10 6 -21 4 -35 -9 -19 -17 -20 -17 -24 16
-2 18 -5 25 -5 16z m-2 -53 c0 -8 -5 -17 -11 -21 -16 -9 -30 18 -17 33 12 15
28 8 28 -12z"/>
<path d="M8850 6613 c0 -8 -13 -13 -30 -13 -19 0 -33 -6 -37 -16 -6 -15 -7
-15 -19 0 -20 28 -49 16 -49 -19 0 -33 28 -47 49 -25 8 9 6 11 -11 6 -12 -4
-24 -2 -28 4 -4 6 5 10 23 10 17 0 32 -6 35 -15 4 -10 20 -14 53 -13 25 0 41
4 34 8 -8 5 -10 18 -7 32 3 13 2 30 -3 38 -7 10 -10 11 -10 3z m0 -49 c0 -15
-35 -28 -50 -19 -23 14 -10 35 20 33 17 -1 30 -8 30 -14z"/>
<path d="M5386 6581 c-15 -16 -15 -19 -1 -24 9 -4 15 -19 15 -42 0 -32 2 -35
30 -35 22 0 30 -5 30 -17 0 -16 1 -16 17 0 19 18 10 46 -17 55 -7 3 -10 0 -6
-7 5 -7 -1 -11 -13 -11 -16 0 -21 6 -21 29 0 16 5 31 11 33 6 2 2 11 -9 21
-18 16 -20 16 -36 -2z"/>
<path d="M8364 6589 c-4 -7 4 -20 17 -31 l24 -19 -24 6 c-16 5 -21 4 -17 -4
10 -15 46 -14 46 1 0 9 3 9 12 0 14 -14 58 -16 58 -3 0 5 -8 7 -19 4 -11 -3
-21 2 -24 12 -7 18 15 31 34 19 7 -4 10 -2 7 7 -8 24 -47 23 -56 -2 l-9 -23
-5 22 c-6 23 -32 30 -44 11z"/>
<path d="M8494 6586 c-10 -26 1 -51 24 -54 16 -2 25 3 31 20 l10 23 0 -22 c1
-31 21 -29 21 2 0 16 6 25 15 25 9 0 15 -9 15 -25 0 -14 5 -25 10 -25 6 0 10
6 10 13 0 8 3 8 9 -2 7 -11 10 -8 13 13 4 34 22 35 26 1 5 -37 24 -30 20 8 -3
32 -3 32 -63 34 -33 1 -65 -3 -72 -8 -7 -7 -13 -6 -18 1 -9 15 -45 12 -51 -4z
m44 -23 c-5 -25 -28 -28 -28 -4 0 12 6 21 16 21 9 0 14 -7 12 -17z"/>
<path d="M9074 6574 c11 -44 24 -51 36 -20 5 15 14 25 20 21 5 -3 7 -12 4 -19
-3 -8 -1 -17 5 -21 7 -4 11 6 11 27 0 26 -4 34 -19 35 -10 1 -23 -8 -29 -20
-8 -17 -11 -18 -11 -5 -1 9 -6 20 -12 24 -9 5 -10 -1 -5 -22z"/>
<path d="M9163 6584 c-2 -7 -3 -21 -1 -31 3 -15 14 -18 66 -20 34 -1 62 2 62
7 0 4 -9 6 -20 3 -11 -3 -20 0 -20 6 0 6 9 11 19 11 25 0 35 15 18 27 -19 15
-118 13 -124 -3z m67 -21 c0 -16 -39 -28 -52 -15 -6 6 -7 15 -4 21 9 14 56 10
56 -6z"/>
<path d="M10523 6560 c0 -25 2 -35 4 -22 2 12 2 32 0 45 -2 12 -4 2 -4 -23z"/>
<path d="M3414 6529 c-10 -17 13 -36 27 -22 12 12 4 33 -11 33 -5 0 -12 -5
-16 -11z"/>
<path d="M5552 6490 c1 -37 2 -39 5 -12 5 36 25 51 47 33 12 -10 13 -8 9 8 -4
16 -12 21 -34 19 -28 -2 -29 -4 -27 -48z"/>
<path d="M5511 6514 c0 -11 3 -14 6 -6 3 7 2 16 -1 19 -3 4 -6 -2 -5 -13z"/>
<path d="M5511 6474 c0 -11 3 -14 6 -6 3 7 2 16 -1 19 -3 4 -6 -2 -5 -13z"/>
<path d="M7425 6461 c7 -12 235 -11 235 1 0 4 -54 8 -121 8 -71 0 -118 -4
-114 -9z"/>
<path d="M1873 6265 c-3 -9 -3 -19 1 -22 3 -4 6 -1 6 5 0 19 17 14 23 -7 6
-23 -12 -53 -20 -33 -2 6 -9 12 -14 12 -6 0 -5 -8 1 -20 21 -39 50 -19 50 34
0 38 -35 61 -47 31z"/>
<path d="M2680 6260 c-7 -14 -7 -20 0 -20 5 0 10 5 10 10 0 18 19 10 25 -11 8
-23 -14 -54 -22 -31 -3 6 -9 12 -14 12 -6 0 -5 -8 1 -20 21 -39 50 -19 50 34
0 22 -17 46 -32 46 -4 0 -12 -9 -18 -20z"/>
<path d="M3350 6268 c0 -7 11 -14 24 -14 17 -1 23 2 19 12 -6 17 -43 19 -43 2z"/>
<path d="M3420 6260 c-7 -14 -7 -20 0 -20 5 0 10 5 10 10 0 15 17 12 24 -5 8
-22 -4 -47 -20 -41 -8 3 -14 -1 -14 -9 0 -18 21 -20 38 -3 23 23 9 88 -20 88
-4 0 -12 -9 -18 -20z"/>
<path d="M4085 6271 c-3 -7 3 -11 14 -11 12 0 21 -7 21 -15 0 -8 -5 -15 -11
-15 -8 0 -9 -4 0 -13 13 -17 4 -28 -17 -20 -10 4 -13 2 -8 -5 10 -16 43 -15
48 1 8 25 -7 82 -24 85 -9 2 -19 -2 -23 -7z"/>
<path d="M4162 6268 c-7 -7 -12 -16 -12 -22 0 -6 5 -5 12 2 7 7 15 12 19 12
11 0 17 -37 9 -51 -7 -10 -12 -10 -26 2 -16 13 -17 12 -11 -4 4 -10 7 -21 7
-23 0 -2 7 -4 15 -4 22 0 35 33 26 65 -8 33 -21 41 -39 23z"/>
<path d="M4902 6268 c-7 -7 -12 -16 -12 -22 0 -6 5 -5 12 2 7 7 15 12 19 12
11 0 17 -37 8 -51 -8 -11 -12 -10 -25 6 -15 20 -16 19 -12 -5 2 -14 11 -26 20
-28 24 -5 41 39 28 73 -11 28 -20 31 -38 13z"/>
<path d="M5570 6270 c0 -5 9 -10 20 -10 11 0 20 5 20 10 0 6 -9 10 -20 10 -11
0 -20 -4 -20 -10z"/>
<path d="M5634 6267 c-3 -8 -4 -30 -2 -49 2 -25 8 -33 23 -33 12 0 21 8 23 20
2 16 1 17 -7 5 -13 -19 -34 0 -29 26 4 22 28 31 28 10 0 -9 4 -16 10 -16 16 0
-6 45 -24 48 -9 2 -19 -3 -22 -11z"/>
<path d="M6305 6270 c-11 -17 -9 -70 3 -82 17 -17 42 -1 42 27 0 18 -5 25 -20
25 -11 0 -20 5 -20 11 0 7 9 9 21 6 13 -3 19 -1 16 6 -5 16 -33 21 -42 7z m35
-55 c0 -8 -7 -15 -15 -15 -16 0 -20 12 -8 23 11 12 23 8 23 -8z"/>
<path d="M6374 6265 c-4 -9 -4 -19 0 -22 3 -4 6 -1 6 5 0 7 7 12 15 12 10 0
15 -10 15 -30 0 -31 -23 -42 -34 -17 -3 6 -5 3 -3 -8 1 -11 10 -21 20 -23 21
-4 37 33 27 68 -8 29 -37 39 -46 15z"/>
<path d="M7040 6270 c0 -5 11 -10 25 -10 14 0 25 5 25 10 0 6 -11 10 -25 10
-14 0 -25 -4 -25 -10z"/>
<path d="M7114 6266 c-3 -8 -4 -21 -1 -28 4 -8 6 -6 6 5 2 31 31 19 31 -13 0
-31 -23 -42 -34 -17 -3 6 -5 3 -3 -8 1 -12 10 -20 22 -20 17 0 20 7 20 45 0
35 -4 45 -18 48 -9 2 -20 -3 -23 -12z"/>
<path d="M7787 6274 c-13 -14 -7 -36 16 -56 l22 -19 -27 4 c-19 3 -25 0 -21
-10 3 -8 15 -13 27 -11 18 3 21 10 21 48 0 32 -4 46 -15 48 -9 1 -19 0 -23 -4z
m33 -24 c0 -5 -7 -10 -15 -10 -8 0 -15 5 -15 10 0 6 7 10 15 10 8 0 15 -4 15
-10z"/>
<path d="M7854 6265 c-4 -9 -4 -19 0 -22 3 -4 6 -1 6 5 0 7 7 12 15 12 10 0
15 -10 15 -30 0 -30 -24 -43 -33 -17 -2 6 -7 9 -11 6 -12 -11 21 -42 38 -36
24 10 19 90 -7 95 -9 2 -20 -4 -23 -13z"/>
<path d="M2615 6260 c-3 -5 -1 -10 4 -10 6 0 11 5 11 10 0 6 -2 10 -4 10 -3 0
-8 -4 -11 -10z"/>
<path d="M4831 6244 c-21 -27 -21 -27 -2 -46 26 -24 48 -23 46 2 -1 11 -4 22
-7 26 -4 3 -4 12 -2 19 10 26 -15 25 -35 -1z"/>
<path d="M3362 6220 c-12 -12 -22 -25 -22 -30 0 -13 47 -13 55 0 3 6 -4 10
-16 10 -21 0 -22 1 -4 20 24 26 15 26 -13 0z"/>
<path d="M5583 6233 c24 -6 22 -33 -3 -33 -11 0 -20 -4 -20 -10 0 -5 11 -10
25 -10 21 0 25 5 25 30 0 25 -4 30 -22 29 -17 -1 -19 -2 -5 -6z"/>
<path d="M7051 6194 c0 -11 3 -14 6 -6 3 7 2 16 -1 19 -3 4 -6 -2 -5 -13z"/>
<path d="M2615 6190 c-3 -5 3 -10 15 -10 12 0 18 5 15 10 -3 6 -10 10 -15 10
-5 0 -12 -4 -15 -10z"/>
<path d="M7917 6164 c-4 -4 -7 -14 -7 -23 1 -13 2 -13 11 2 14 24 29 12 29
-24 0 -30 -23 -41 -33 -16 -3 7 -6 5 -6 -6 -1 -23 28 -34 40 -16 15 22 6 83
-11 87 -9 1 -19 0 -23 -4z"/>
<path d="M5600 6090 c0 -11 7 -20 15 -20 8 0 15 9 15 20 0 11 -7 20 -15 20 -8
0 -15 -9 -15 -20z"/>
<path d="M5084 6087 c-2 -7 -3 -69 -2 -138 3 -102 6 -124 18 -124 11 0 16 15
20 55 l5 54 44 3 c58 3 81 25 81 80 0 38 -4 46 -32 63 -38 23 -126 28 -134 7z
m124 -44 c26 -35 3 -71 -48 -75 -34 -3 -35 -2 -38 36 -5 57 2 67 40 61 18 -3
39 -13 46 -22z"/>
<path d="M6897 6093 c-12 -11 -8 -261 4 -269 16 -10 30 17 24 47 -7 29 9 79
25 79 5 0 29 -29 52 -65 40 -61 60 -76 72 -57 3 5 -18 41 -45 81 l-50 72 30
38 c17 21 37 44 46 51 8 7 15 16 15 21 0 22 -30 5 -80 -46 -29 -30 -56 -52
-59 -49 -3 3 -7 24 -8 47 -1 23 -2 45 -2 50 -1 9 -15 9 -24 0z"/>
<path d="M6260 6056 c0 -19 -6 -25 -27 -28 -34 -4 -33 -22 2 -26 24 -3 25 -6
25 -71 0 -40 5 -74 13 -85 16 -22 87 -28 94 -8 3 8 -6 12 -26 12 -39 0 -51 22
-51 94 l0 56 40 0 c29 0 40 4 40 15 0 11 -11 15 -40 15 -36 0 -40 3 -40 25 0
16 -6 25 -15 25 -9 0 -15 -9 -15 -24z"/>
<path d="M5342 5928 c2 -70 7 -103 16 -106 9 -3 12 15 12 67 0 85 20 114 73
110 31 -3 37 0 37 21 0 14 -74 12 -89 -2 -11 -10 -14 -10 -18 0 -3 6 -11 12
-19 12 -12 0 -14 -18 -12 -102z"/>
<path d="M5550 6015 c0 -9 9 -15 25 -15 24 0 25 -2 25 -74 l0 -75 -32 -3 c-63
-6 -28 -23 47 -23 75 0 110 17 48 23 l-33 3 0 90 0 89 -40 0 c-29 0 -40 -4
-40 -15z"/>
<path d="M5750 6023 c0 -4 15 -49 32 -100 47 -134 64 -134 117 4 35 93 37 103
17 103 -14 0 -46 -71 -62 -136 -6 -25 -8 -26 -20 -9 -7 10 -23 47 -34 81 -13
39 -27 64 -36 64 -8 0 -14 -3 -14 -7z"/>
<path d="M5996 6014 c-9 -24 -2 -27 36 -16 42 12 78 -1 78 -28 0 -17 -6 -20
-43 -20 -58 0 -87 -22 -87 -65 0 -52 64 -84 110 -55 9 5 19 5 27 -1 23 -20 33
2 33 75 0 100 -19 126 -95 126 -40 0 -54 -4 -59 -16z m114 -108 c0 -51 -68
-75 -94 -33 -9 15 -7 22 13 38 13 10 36 19 52 19 24 0 29 -4 29 -24z"/>
<path d="M6456 5999 c-57 -67 -15 -179 67 -179 44 0 90 17 82 29 -3 6 -27 7
-53 4 -53 -6 -82 11 -82 48 0 17 8 19 70 19 l70 0 0 29 c0 15 -9 40 -21 55
-16 21 -29 26 -64 26 -36 0 -48 -5 -69 -31z m113 -21 c12 -33 6 -38 -50 -38
-51 0 -57 7 -39 41 16 29 78 27 89 -3z"/>
<path d="M7147 6010 c-52 -41 -43 -146 13 -175 34 -17 83 -19 111 -5 34 19 20
29 -34 23 -58 -6 -87 10 -87 48 0 17 8 19 70 19 l70 0 0 33 c0 68 -85 102
-143 57z m103 -30 c16 -30 4 -40 -51 -40 -36 0 -49 4 -49 14 0 43 80 64 100
26z"/>
<path d="M7340 6026 c0 -4 16 -49 36 -101 41 -105 40 -141 -1 -151 -35 -9 -31
-24 5 -24 37 0 48 17 96 140 46 123 50 140 31 140 -9 0 -23 -25 -38 -67 -13
-37 -29 -68 -34 -70 -6 -2 -22 27 -36 64 -16 41 -33 69 -43 71 -9 2 -16 1 -16
-2z"/>
<path d="M1940 5705 l0 -295 290 0 290 0 0 295 0 295 -290 0 -290 0 0 -295z
m498 -2 l-3 -208 -205 0 -205 0 -3 208 -2 207 210 0 210 0 -2 -207z"/>
<path d="M2104 5817 c-2 -7 -3 -62 -2 -123 l3 -109 125 0 125 0 0 120 0 120
-123 3 c-95 2 -124 0 -128 -11z"/>
<path d="M2694 5986 c-3 -8 -4 -27 -2 -43 3 -24 8 -28 40 -31 35 -3 37 -5 40
-40 l3 -37 83 -3 82 -3 0 -39 0 -40 69 0 c93 0 101 -4 101 -51 0 -39 0 -39 40
-39 l40 0 0 -40 0 -40 -40 0 -40 0 0 -124 0 -125 38 -3 c36 -3 37 -4 40 -45
l3 -43 -40 0 -41 0 0 -40 0 -40 40 0 40 0 0 -40 0 -40 -40 0 -40 0 0 -40 0
-40 80 0 79 0 3 78 3 77 40 5 c38 5 40 7 43 43 l3 37 80 0 79 0 0 -40 0 -40
-40 0 -40 0 0 -40 0 -40 40 0 40 0 0 40 0 40 125 0 125 0 0 40 0 40 40 0 40 0
0 170 0 170 45 0 45 0 0 39 c0 39 1 40 38 43 l37 3 3 83 3 82 -41 0 -40 0 0
-40 c0 -25 -5 -41 -12 -42 -7 0 -20 -2 -28 -3 -31 -3 -50 15 -50 50 0 32 -2
34 -37 37 -36 3 -38 5 -41 40 -3 35 -5 37 -40 40 -36 3 -37 4 -40 46 l-3 43
-82 -3 -82 -3 0 -40 c0 -40 0 -40 43 -43 43 -3 43 -3 40 -40 l-3 -37 -82 -3
-83 -3 0 86 0 85 -124 0 -125 0 -3 -42 c-3 -42 -4 -43 -40 -46 -26 -2 -38 1
-39 10 -1 7 -2 20 -3 28 -2 8 -3 23 -4 33 -2 15 -9 18 -39 15 l-38 -3 -3 -82
-3 -83 -39 0 c-40 0 -40 0 -40 40 l0 40 -40 0 c-38 0 -40 2 -40 29 0 57 -6 61
-86 61 -55 0 -76 -4 -80 -14z m664 -113 c-3 -37 -4 -38 -45 -41 l-43 -3 0 -85
0 -85 43 3 c41 3 42 4 47 43 l5 40 200 0 200 0 3 -42 c3 -43 3 -43 43 -43 39
0 39 0 39 -40 l0 -40 -40 0 -40 0 0 -85 0 -85 -40 0 -40 0 0 85 0 85 -40 0
-40 0 0 -86 0 -85 -42 3 -43 3 -3 123 -3 122 -79 0 -80 0 0 -40 0 -40 -45 0
-45 0 0 40 0 40 -40 0 -40 0 0 40 c0 22 -3 41 -7 41 -5 1 -21 2 -37 3 -32 2
-49 29 -39 65 5 19 13 21 84 21 l79 0 0 40 0 40 46 0 45 0 -3 -37z m-88 -424
l0 -39 45 0 45 0 0 39 c0 35 3 39 28 43 49 7 52 2 52 -83 l0 -79 -40 0 -40 0
0 -46 0 -45 -42 3 -43 3 -3 83 -3 82 -39 0 c-40 0 -40 0 -40 39 0 36 3 40 28
43 44 6 52 -1 52 -43z m498 -166 l3 -43 -125 0 -126 0 0 38 c0 21 3 42 7 46 4
3 59 5 122 4 l116 -3 3 -42z"/>
<path d="M3697 5653 c-4 -3 -7 -21 -7 -40 0 -32 1 -33 40 -33 l40 0 0 40 c0
39 -1 40 -33 40 -19 0 -37 -3 -40 -7z"/>
<path d="M3854 5986 c-3 -8 -4 -27 -2 -43 3 -26 7 -28 43 -28 40 0 40 0 43 43
l3 42 -41 0 c-26 0 -43 -5 -46 -14z"/>
<path d="M4110 5705 l0 -295 288 2 287 3 0 290 0 290 -287 3 -288 2 0 -295z
m500 0 l0 -204 -32 -6 c-18 -3 -112 -5 -208 -3 l-175 3 -3 208 -2 207 210 0
210 0 0 -205z"/>
<path d="M4280 5705 l0 -125 120 0 120 0 0 125 0 125 -120 0 -120 0 0 -125z"/>
<path d="M9007 5942 c-44 -48 15 -126 61 -80 18 18 14 63 -6 81 -24 22 -35 21
-55 -1z m48 -42 c0 -28 -4 -35 -20 -35 -13 0 -21 8 -23 23 -5 34 5 54 25 50
13 -2 18 -13 18 -38z"/>
<path d="M9370 5906 c0 -49 17 -72 22 -31 4 35 22 35 28 -1 5 -26 7 -27 16
-10 10 16 12 16 17 2 7 -18 42 -22 53 -5 4 7 0 9 -14 5 -11 -4 -23 -2 -27 4
-4 6 4 10 20 10 20 0 26 4 23 17 -5 24 -39 29 -55 8 -11 -17 -13 -17 -19 -2
-3 10 -15 17 -25 17 -10 0 -19 7 -19 15 0 8 -4 15 -10 15 -5 0 -10 -20 -10
-44z"/>
<path d="M9338 5928 c-7 -16 2 -78 11 -78 7 0 7 78 -1 85 -3 3 -8 0 -10 -7z"/>
<path d="M9718 5928 c-3 -7 -18 -12 -34 -13 -26 0 -29 -4 -29 -30 0 -25 4 -30
28 -33 15 -2 27 2 27 8 0 7 -8 9 -20 5 -22 -7 -40 19 -24 35 17 17 54 -1 54
-26 0 -13 5 -24 10 -24 6 0 8 10 4 24 -3 13 -1 27 5 31 7 4 14 -6 17 -24 6
-26 11 -31 35 -31 26 0 29 3 29 35 0 19 -4 35 -10 35 -5 0 -10 -13 -10 -30 0
-20 -5 -30 -15 -30 -10 0 -15 10 -15 31 0 16 -4 28 -9 24 -5 -3 -16 2 -24 10
-11 11 -16 12 -19 3z"/>
<path d="M9090 5876 l0 -44 31 15 c24 12 30 20 27 42 -2 20 -9 27 -30 29 -27
3 -28 2 -28 -42z m43 9 c7 -16 -8 -29 -23 -20 -15 9 -12 35 4 35 8 0 16 -7 19
-15z"/>
<path d="M9164 5906 c-15 -38 22 -74 49 -47 7 7 3 8 -12 4 -12 -3 -21 -1 -21
6 0 6 11 11 25 11 17 0 25 -6 25 -17 0 -9 3 -13 7 -9 4 4 8 15 8 24 0 9 8 18
17 20 12 2 18 -5 21 -25 4 -22 5 -20 3 7 -1 30 -5 35 -28 38 -18 2 -28 -1 -28
-9 0 -10 -3 -10 -12 -1 -16 16 -47 15 -54 -2z"/>
<path d="M9550 5875 c0 -25 5 -45 10 -45 6 0 10 3 10 8 0 4 11 12 25 19 14 6
25 7 25 2 0 -5 5 -9 10 -9 6 0 10 17 10 38 -1 33 -2 35 -14 19 -12 -15 -14
-16 -20 -2 -3 8 -17 15 -31 15 -23 0 -25 -4 -25 -45z m47 1 c-4 -9 -11 -16
-17 -16 -11 0 -14 33 -3 43 11 11 26 -10 20 -27z"/>
<path d="M9831 5883 c2 -31 3 -33 6 -10 5 33 20 36 25 5 2 -17 11 -24 31 -26
15 -2 27 1 27 6 0 6 -9 8 -20 5 -11 -3 -20 0 -20 6 0 6 8 11 18 11 26 0 34 11
21 27 -6 7 -29 13 -50 13 -39 0 -39 0 -38 -37z"/>
<path d="M2610 5580 l0 -250 40 0 40 0 0 79 0 79 35 4 c20 2 38 2 40 -1 3 -2
5 -60 5 -128 l0 -123 -40 0 -40 0 0 -80 0 -80 -85 0 -85 0 0 40 0 40 -40 0
-40 0 0 40 0 40 40 0 40 0 0 45 0 45 -207 -2 -208 -3 -3 -42 c-3 -43 -3 -43
-43 -43 l-39 0 0 45 0 45 -40 0 -40 0 0 -45 0 -45 40 0 40 0 0 -40 0 -40 -40
0 -40 0 0 -40 0 -41 123 3 122 3 0 35 c0 33 -2 35 -40 40 -38 5 -40 7 -43 43
l-3 37 85 0 86 0 0 -39 c0 -40 0 -40 43 -43 41 -3 42 -4 45 -40 l3 -38 -45 0
-45 0 -3 -82 -3 -83 -37 -3 c-37 -3 -38 -4 -38 -42 l0 -39 83 -3 82 -3 3 -122
3 -122 -43 -3 c-42 -3 -43 -4 -46 -40 -3 -35 -5 -37 -40 -40 -36 -3 -37 -4
-40 -45 l-3 -43 40 0 41 0 0 46 0 45 43 -3 42 -3 3 -82 3 -83 39 0 40 0 0 -45
0 -46 83 3 82 3 0 40 0 40 -82 3 -83 3 0 39 c0 40 0 40 40 40 l40 0 0 45 0 45
85 0 85 0 0 -85 0 -84 83 -3 82 -3 3 -42 3 -43 -46 0 -46 0 3 -37 c3 -37 4
-38 43 -38 39 0 40 1 43 38 3 36 4 37 43 37 l39 0 0 -120 0 -119 83 -3 82 -3
0 -40 c0 -40 0 -40 -42 -43 -43 -3 -43 -3 -43 -43 l0 -39 -79 0 -80 0 -3 38
c-3 35 -5 37 -43 42 -39 5 -40 6 -43 47 l-3 42 43 3 c42 3 43 4 43 38 0 34 -1
35 -42 38 l-43 3 0 -40 0 -41 -40 0 -40 0 0 80 0 80 -40 0 -40 0 0 -80 0 -80
40 0 40 0 0 -45 0 -45 -40 0 -40 0 0 -40 0 -40 80 0 80 0 0 -39 c0 -40 0 -40
43 -43 42 -3 42 -3 42 -43 l0 -40 -80 0 -80 0 -5 40 c-5 38 -7 40 -42 43 l-37
3 -3 -97 c-3 -95 -4 -98 -28 -105 l-25 -7 28 -1 c27 -1 27 -2 27 -66 l0 -65
40 0 40 0 0 65 c0 44 4 65 12 65 9 0 9 3 0 12 -21 21 -13 28 28 28 29 0 40 -4
40 -15 0 -8 -6 -15 -12 -15 -10 0 -10 -2 -1 -8 6 -4 13 -34 15 -67 l3 -60 40
0 40 0 3 60 c2 33 9 63 15 67 9 6 9 8 0 8 -7 0 -13 7 -13 15 0 12 16 15 80 15
l80 0 0 40 0 40 125 0 125 0 0 85 0 85 45 0 46 0 -3 83 -3 82 -42 3 c-43 3
-43 3 -43 43 l0 39 45 0 45 0 0 40 0 40 40 0 40 0 0 -40 0 -40 40 0 40 0 0 80
0 80 -80 0 -80 0 0 45 0 45 80 0 80 0 0 40 0 40 -40 0 -40 0 0 85 0 85 39 0
c38 0 40 1 43 36 4 43 24 60 62 50 l26 -6 -2 -373 -3 -372 -82 -3 -83 -3 0
-79 0 -80 39 0 c39 0 40 1 43 38 l3 37 83 3 82 3 0 -40 0 -40 -82 -3 -83 -3
-3 -42 c-3 -43 -3 -43 -43 -43 -39 0 -39 0 -39 -40 l0 -40 40 0 c40 0 40 0 40
40 l0 39 123 3 122 3 5 40 5 40 80 0 80 0 3 -82 3 -83 40 0 c50 0 49 -22 -2
-31 l-34 -6 38 -2 37 -1 0 -65 0 -65 -40 0 c-40 0 -40 0 -40 -39 0 -40 0 -40
-42 -43 -42 -3 -43 -4 -43 -38 l0 -35 82 -3 82 -3 3 38 c3 37 4 38 43 38 39 0
40 -1 43 -37 l3 -38 80 0 79 0 0 40 0 40 -40 0 -40 0 0 85 0 85 85 0 c77 0 85
2 85 19 0 12 8 21 23 24 l22 4 -22 2 c-21 1 -23 6 -23 56 l0 55 125 0 125 0 0
-40 0 -40 -80 0 c-67 0 -83 -3 -100 -20 -16 -16 -17 -20 -5 -20 8 0 15 -9 15
-20 0 -19 7 -20 125 -20 118 0 125 1 125 20 0 20 7 20 378 22 l377 3 -375 5
-375 5 -3 53 -3 52 -40 0 -39 0 0 84 0 85 38 3 c35 3 37 5 40 41 l3 37 -40 0
c-40 0 -40 0 -43 43 -3 42 -3 42 -45 45 -43 3 -43 3 -43 43 l0 39 45 0 45 0 0
40 0 40 -45 0 -45 0 0 125 0 125 45 0 45 0 0 45 0 45 40 0 41 0 -3 123 -3 122
-37 3 c-37 3 -38 4 -38 42 0 38 1 39 38 42 35 3 37 5 40 41 l3 37 -85 0 -86 0
0 85 0 85 -40 0 -40 0 0 40 c0 40 0 40 39 40 39 0 40 -1 43 -37 3 -37 4 -38
46 -41 42 -3 42 -3 42 -43 0 -39 0 -39 40 -39 l40 0 0 40 0 40 -40 0 c-40 0
-40 0 -40 39 0 39 1 40 38 43 35 3 37 5 37 38 0 33 -2 35 -37 38 l-38 3 0 -40
0 -41 -45 0 -45 0 0 85 0 85 -205 0 -205 0 0 -45 0 -45 -45 0 -45 0 0 -40 0
-40 -40 0 -40 0 0 -80 0 -80 -85 0 -85 0 0 40 0 40 -40 0 -40 0 0 -85 0 -85
-85 0 -85 0 0 46 0 45 -37 -3 c-37 -3 -38 -4 -38 -43 0 -39 1 -40 37 -43 35
-3 37 -5 40 -40 l3 -37 123 -3 122 -3 0 40 0 40 83 3 82 3 3 43 c3 43 3 43 40
40 35 -3 37 -5 42 -43 5 -39 6 -40 45 -40 l40 0 3 163 2 162 126 0 125 0 -3
-37 -3 -38 -82 -3 -83 -3 0 -79 0 -79 83 -3 82 -3 5 -40 5 -40 78 -3 77 -3 0
-39 0 -40 -119 0 -120 0 -3 -37 c-3 -36 -5 -38 -43 -43 -39 -5 -40 -6 -40 -42
0 -21 3 -38 8 -38 4 0 21 0 37 0 28 0 30 2 30 40 l0 40 85 0 85 0 0 -44 0 -44
63 -1 c119 0 107 10 107 -81 l0 -80 -45 0 -45 0 0 40 c0 40 0 40 -39 40 -40 0
-40 0 -43 43 -3 41 -4 42 -38 42 l-35 0 -5 -125 -5 -125 -82 -3 -83 -3 0 -39
0 -39 83 -3 82 -3 3 -162 2 -163 -45 0 -45 0 0 80 0 80 -40 0 -40 0 0 -40 0
-40 -40 0 -40 0 0 40 0 40 -85 0 -85 0 0 40 0 39 83 3 82 3 0 80 0 80 -43 3
-43 3 3 42 3 42 83 3 83 3 -3 37 -3 37 -167 3 -168 2 0 40 c0 24 5 41 13 42
31 4 59 5 150 7 l98 1 -3 38 c-3 36 -4 37 -45 40 -43 3 -43 3 -43 43 0 39 0
39 -40 39 l-40 0 0 -40 c0 -40 0 -40 -39 -40 -42 0 -51 -10 -51 -62 0 -23 -4
-29 -16 -24 -9 3 -26 6 -39 6 -20 0 -24 6 -27 38 l-3 37 -162 3 -163 2 0 -39
c0 -33 -4 -40 -24 -45 -38 -10 -55 2 -58 42 -3 36 -4 37 -43 37 l-40 0 -3 -82
-3 -83 -79 0 -80 0 0 -39 c0 -39 1 -40 38 -43 36 -3 37 -4 40 -45 3 -43 3 -43
42 -43 39 0 39 0 42 43 3 42 3 42 43 42 l40 0 3 -82 3 -83 -86 0 -85 0 0 -45
0 -45 -125 0 -125 0 0 45 0 45 39 0 c39 0 40 1 43 38 3 35 5 37 39 40 40 3 50
20 42 66 -5 23 -10 26 -44 26 l-38 0 -3 83 c-2 56 -7 82 -15 83 -7 1 -24 2
-37 3 -21 1 -25 7 -28 39 -3 35 -5 37 -40 40 -37 3 -38 4 -38 42 0 38 1 39 38
42 35 3 37 5 40 41 l3 37 -40 0 -41 0 0 45 0 45 80 0 80 0 0 40 0 40 -40 0
-40 0 0 125 0 125 39 0 c40 0 40 0 43 -42 3 -43 3 -43 43 -43 l40 0 0 40 c0
40 0 40 -42 43 l-43 3 0 80 0 79 -40 0 -40 0 0 45 0 45 40 0 40 0 0 40 0 40
-125 0 -125 0 0 46 c0 43 -1 45 -27 44 -50 -4 -53 -2 -53 40 l0 40 -40 0 -40
0 0 -250z m160 40 l0 -40 -40 0 -40 0 0 40 0 40 40 0 40 0 0 -40z m170 -170
l0 -40 -40 0 -40 0 0 40 0 40 40 0 40 0 0 -40z m-85 -250 c0 -34 -1 -35 -40
-35 -39 0 -40 1 -43 38 l-3 38 43 -3 c42 -3 43 -4 43 -38z m-335 -159 l0 -39
-80 -4 -80 -3 0 43 0 42 80 0 80 0 0 -39z m250 -80 c0 -42 11 -51 61 -51 27 0
29 -3 29 -39 0 -40 0 -40 -42 -43 -42 -3 -43 -4 -46 -40 -3 -37 -4 -38 -43
-38 l-39 0 0 -42 c0 -43 0 -43 37 -43 l38 0 3 -82 3 -83 -41 0 -40 0 0 79 c0
44 -5 83 -10 86 -6 4 -24 4 -40 0 -25 -5 -29 -12 -32 -43 -3 -36 -4 -37 -45
-40 -43 -3 -43 -3 -43 -43 0 -39 0 -39 -40 -39 l-40 0 0 40 0 40 40 0 c40 0
40 0 40 40 0 33 -4 41 -23 45 -13 4 -30 5 -38 3 -10 -2 -15 9 -17 40 l-3 42
40 0 41 0 0 40 0 40 -40 0 -40 0 0 40 0 40 40 0 40 0 0 -40 0 -40 46 0 c41 0
45 2 44 23 -5 50 -1 56 38 59 33 3 37 6 40 33 5 49 10 55 47 55 34 0 35 -1 35
-39z m168 -423 l3 -38 -40 0 -41 0 0 41 0 40 38 -3 c35 -3 37 -5 40 -40z m912
3 c0 -40 0 -40 43 -43 42 -3 42 -3 45 -45 3 -43 3 -43 43 -43 39 0 39 0 39
-40 l0 -40 -40 0 -40 0 0 -46 0 -45 -42 3 c-43 3 -43 3 -43 43 0 40 0 40 43
43 42 3 42 3 42 42 l0 39 -122 3 -123 3 0 40 c0 39 1 40 38 43 35 3 37 5 37
36 0 41 5 46 47 46 32 0 33 -1 33 -39z m670 -86 l0 -45 -40 0 c-40 0 -40 0
-40 38 0 47 4 52 47 52 33 0 33 -1 33 -45z m-1162 -252 c-3 -37 -4 -38 -43
-38 -39 0 -40 1 -43 38 l-3 37 46 0 46 0 -3 -37z m410 0 c-3 -36 -5 -38 -38
-38 -33 0 -35 2 -38 38 l-3 37 41 0 41 0 -3 -37z m-585 -42 c4 -1 7 -19 7 -41
l0 -40 -40 0 c-40 0 -40 0 -40 39 0 40 9 49 45 45 11 -1 23 -3 28 -3z m757
-41 l0 -40 40 0 40 0 0 -40 c0 -40 0 -40 -39 -40 -40 0 -40 0 -43 -42 -3 -43
-3 -43 -43 -43 l-40 0 -3 123 -3 122 46 0 45 0 0 -40z m580 0 l0 -40 -40 0
-40 0 0 40 0 40 40 0 40 0 0 -40z m-748 -162 c3 -42 4 -43 41 -46 36 -3 37 -4
37 -43 0 -39 0 -39 -40 -39 -40 0 -40 0 -40 39 0 39 -1 40 -37 43 -33 3 -38 7
-41 31 -5 45 4 57 42 57 34 0 35 -1 38 -42z m670 0 c3 -42 4 -43 41 -46 36 -3
37 -4 37 -42 0 -38 -1 -39 -37 -42 -36 -3 -38 -5 -41 -40 -3 -37 -4 -38 -43
-38 l-39 0 0 125 0 125 39 0 c40 0 40 0 43 -42z m-1172 -88 l0 -40 -40 0 -40
0 0 40 0 40 40 0 40 0 0 -40z m1005 -85 l0 -120 -125 0 -125 0 -3 123 -3 123
128 -3 128 -3 0 -120z m-1167 3 l3 -38 -45 0 -46 0 0 41 0 40 43 -3 c41 -3 42
-4 45 -40z m1082 -218 c0 -5 -8 -14 -17 -19 -17 -10 -17 -10 0 -11 10 0 17 -8
17 -20 0 -17 -7 -20 -39 -20 l-40 0 2 40 c1 39 2 40 39 40 21 0 38 -4 38 -10z"/>
<path d="M2610 4790 l0 -40 40 0 40 0 0 40 0 40 -40 0 -40 0 0 -40z"/>
<path d="M4110 3791 l0 -41 41 0 40 0 -3 38 c-3 35 -5 37 -40 40 l-38 3 0 -40z"/>
<path d="M5050 5785 c0 -13 132 -15 1130 -15 998 0 1130 2 1130 15 0 13 -132
15 -1130 15 -998 0 -1130 -2 -1130 -15z"/>
<path d="M7480 5785 c0 -10 10 -15 30 -15 20 0 30 5 30 15 0 10 -10 15 -30 15
-20 0 -30 -5 -30 -15z"/>
<path d="M6287 5663 c-13 -12 -7 -33 8 -33 8 0 15 9 15 20 0 20 -11 26 -23 13z"/>
<path d="M5074 5647 c-2 -7 -3 -69 -2 -138 3 -102 6 -124 18 -124 11 0 16 16
20 60 6 78 22 78 75 0 37 -55 75 -83 75 -55 0 7 -20 41 -45 76 -25 34 -45 68
-45 75 0 8 21 34 46 60 38 39 43 47 28 53 -12 5 -32 -10 -73 -51 l-56 -58 -3
52 c-2 34 -8 53 -18 57 -8 3 -17 0 -20 -7z"/>
<path d="M5505 5650 c-5 -8 19 -175 33 -235 13 -50 34 -36 51 32 9 34 19 64
22 68 4 3 12 -18 19 -47 19 -85 21 -89 38 -86 12 2 21 33 37 133 15 89 18 132
11 137 -20 13 -28 -10 -39 -101 -5 -51 -12 -89 -15 -87 -2 3 -10 29 -17 58 -9
40 -16 54 -31 56 -17 2 -23 -6 -34 -53 -16 -68 -25 -56 -35 47 -4 51 -11 78
-20 82 -8 3 -17 1 -20 -4z"/>
<path d="M5756 5652 c-3 -5 10 -34 29 -65 l34 -57 -29 -48 c-42 -67 -54 -91
-48 -97 12 -12 35 8 61 55 16 28 32 50 37 50 5 0 23 -25 40 -55 17 -30 38 -55
46 -55 21 0 18 13 -21 77 -19 32 -35 65 -35 73 0 8 16 39 35 67 20 30 31 55
25 58 -15 9 -28 -2 -59 -52 l-29 -46 -16 27 c-9 14 -23 37 -31 51 -16 25 -30
32 -39 17z"/>
<path d="M6478 5653 c-60 -7 -44 -23 21 -23 33 0 62 -4 65 -8 3 -5 -27 -57
-66 -115 -48 -73 -68 -111 -61 -118 5 -5 46 -9 94 -7 67 2 84 6 84 18 0 11
-16 16 -67 20 l-67 5 69 104 c39 56 70 107 70 111 0 17 -58 22 -142 13z"/>
<path d="M6689 5634 c-22 -23 -24 -34 -24 -114 0 -80 2 -91 24 -114 14 -14 34
-26 45 -26 11 0 30 -9 42 -21 25 -24 53 -17 33 7 -10 12 -8 23 9 53 40 72 25
203 -27 231 -35 18 -76 12 -102 -16z m95 -26 c11 -15 16 -45 16 -88 0 -98 -40
-140 -86 -89 -15 16 -19 36 -19 88 0 36 6 76 13 89 16 29 56 29 76 0z"/>
<path d="M6897 5653 c-17 -17 -3 -23 53 -23 33 0 60 -4 60 -10 0 -5 -18 -58
-40 -116 -45 -120 -46 -127 -24 -122 17 3 121 255 110 266 -8 8 -152 13 -159
5z"/>
<path d="M7381 5633 c-51 -51 -54 -181 -6 -229 40 -40 106 -31 130 17 21 40
19 82 -7 114 -19 25 -26 27 -70 23 -42 -4 -48 -3 -48 13 0 11 10 29 21 40 17
17 29 20 61 16 33 -4 39 -3 36 11 -2 12 -16 18 -46 20 -36 3 -47 -1 -71 -25z
m81 -110 c21 -19 25 -82 6 -101 -37 -37 -96 11 -83 68 10 46 45 62 77 33z"/>
<path d="M7608 5649 c-29 -17 -39 -44 -27 -76 5 -15 15 -31 21 -34 6 -4 2 -15
-11 -28 -51 -51 -9 -131 68 -131 74 0 110 83 59 137 -12 13 -16 23 -10 23 18
0 34 39 27 69 -9 44 -82 67 -127 40z m87 -59 c0 -33 -2 -35 -37 -38 -33 -3
-38 0 -44 23 -9 35 12 57 50 53 28 -3 31 -6 31 -38z m9 -102 c17 -28 -4 -72
-37 -76 -47 -6 -73 30 -56 76 7 19 15 23 45 20 21 -2 42 -10 48 -20z"/>
<path d="M5280 5572 c0 -11 7 -53 16 -93 25 -110 45 -128 65 -56 18 61 26 65
40 16 15 -53 25 -67 40 -52 12 12 49 147 49 181 0 33 -23 23 -32 -14 -4 -16
-13 -49 -19 -74 l-12 -45 -14 48 c-18 61 -39 62 -54 1 -7 -25 -15 -42 -19 -37
-5 4 -14 37 -22 72 -13 61 -38 95 -38 53z"/>
<path d="M6001 5577 c-16 -20 -5 -26 32 -17 43 9 77 -4 77 -30 0 -17 -6 -20
-43 -20 -55 0 -87 -22 -87 -61 0 -53 64 -88 110 -59 9 5 19 5 28 -2 25 -21 34
7 31 91 -3 66 -8 83 -24 95 -25 19 -109 21 -124 3z m109 -111 c0 -46 -58 -74
-88 -44 -29 29 2 68 54 68 29 0 34 -3 34 -24z"/>
<path d="M6230 5575 c0 -9 9 -15 25 -15 24 0 25 -2 25 -75 l0 -75 -30 0 c-20
0 -30 -5 -30 -15 0 -12 16 -15 80 -15 63 0 80 3 80 14 0 9 -12 16 -32 18 l-33
3 -3 88 -3 87 -39 0 c-29 0 -40 -4 -40 -15z"/>
<path d="M7137 5584 c-14 -15 7 -24 54 -24 l50 0 -56 -72 c-31 -39 -54 -78
-53 -87 5 -23 148 -29 148 -6 0 11 -11 15 -48 15 -27 0 -51 3 -55 6 -3 4 19
37 49 74 73 91 72 100 -14 100 -38 0 -72 -3 -75 -6z"/>
<path d="M7822 5500 c0 -14 2 -19 5 -12 2 6 2 18 0 25 -3 6 -5 1 -5 -13z"/>
<path d="M3945 5491 c-3 -2 -5 -22 -5 -43 0 -38 0 -38 40 -38 40 0 40 0 40 39
0 37 -2 39 -35 43 -20 2 -38 2 -40 -1z"/>
<path d="M7987 5424 c-4 -4 -7 -14 -7 -23 1 -14 2 -13 11 2 16 28 29 20 29
-18 0 -35 -22 -50 -34 -22 -3 6 -5 3 -3 -8 1 -12 10 -20 22 -20 17 0 20 7 20
45 0 32 -4 46 -15 48 -9 1 -19 0 -23 -4z"/>
<path d="M7920 5410 c0 -5 5 -10 10 -10 6 0 10 5 10 10 0 6 -4 10 -10 10 -5 0
-10 -4 -10 -10z"/>
<path d="M7920 5340 c0 -5 7 -10 15 -10 8 0 15 5 15 10 0 6 -7 10 -15 10 -8 0
-15 -4 -15 -10z"/>
<path d="M8601 5243 c1 -32 4 -48 6 -35 3 13 16 27 29 33 36 13 30 53 -8 57
-28 3 -28 3 -27 -55z m47 25 c-3 -7 -11 -13 -18 -13 -7 0 -15 6 -17 13 -3 7 4
12 17 12 13 0 20 -5 18 -12z"/>
<path d="M10056 5285 c-8 -22 3 -42 26 -48 27 -7 17 -33 -11 -30 -13 2 -20 -1
-16 -7 9 -14 38 -13 54 3 11 10 14 10 18 0 3 -7 8 -13 11 -13 6 0 7 19 3 88
-1 7 -5 11 -10 7 -5 -3 -12 -1 -16 5 -10 15 -52 12 -59 -5z m64 -25 c0 -16 -4
-18 -22 -11 -32 12 -34 31 -4 31 19 0 26 -5 26 -20z"/>
<path d="M8694 5251 c19 -7 19 -8 -3 -14 -32 -8 -24 -41 12 -45 20 -3 27 1 27
15 1 17 1 17 11 1 5 -10 21 -18 34 -18 22 0 25 4 24 38 -1 36 -2 36 -8 7 -7
-36 -25 -36 -29 0 -4 29 -18 33 -25 8 -4 -17 -5 -17 -6 0 -1 12 -9 17 -28 16
-24 0 -25 -2 -9 -8z m20 -42 c-3 -5 -10 -7 -15 -3 -5 3 -7 10 -3 15 3 5 10 7
15 3 5 -3 7 -10 3 -15z"/>
<path d="M8817 5253 c-12 -12 -7 -22 13 -28 11 -3 20 -11 20 -17 0 -6 -6 -6
-15 2 -12 10 -15 10 -15 -4 0 -18 36 -22 42 -5 3 8 10 8 26 -2 16 -10 24 -11
33 -2 8 8 8 11 -2 10 -22 -3 -22 18 0 21 27 4 15 32 -14 32 -12 0 -26 -9 -31
-19 -8 -18 -11 -19 -29 -4 -16 13 -17 15 -2 10 9 -4 17 -2 17 3 0 11 -33 14
-43 3z"/>
<path d="M10164 5246 c-11 -29 0 -51 26 -51 21 0 25 5 25 30 0 24 -5 31 -23
33 -13 2 -24 -3 -28 -12z m43 -11 c7 -20 -2 -29 -21 -22 -9 4 -13 13 -10 22 8
19 23 19 31 0z"/>
<path d="M10230 5216 c0 -25 5 -46 10 -46 6 0 10 4 10 9 0 5 9 11 21 14 16 4
20 12 17 34 -2 22 -9 29 -30 31 -27 3 -28 2 -28 -42z m45 9 c0 -10 -6 -20 -12
-22 -8 -3 -13 5 -13 22 0 17 5 25 13 23 6 -3 12 -13 12 -23z"/>
<path d="M5535 5218 c-3 -8 -4 -72 -3 -143 l3 -129 61 -3 c75 -4 95 13 102 87
8 90 -26 131 -98 117 -28 -6 -29 -5 -32 35 -3 41 -23 63 -33 36z m101 -96 c39
-26 44 -99 10 -138 -23 -27 -24 -28 -50 -11 -23 15 -26 24 -26 72 0 44 4 57
22 69 25 18 29 19 44 8z"/>
<path d="M6117 5223 c-4 -3 -7 -27 -7 -52 0 -35 -3 -42 -12 -33 -7 7 -27 12
-44 12 -47 0 -74 -38 -74 -105 0 -67 27 -105 74 -105 17 0 37 5 43 11 8 8 13
8 17 0 20 -32 26 1 26 134 0 133 -4 157 -23 138z m-27 -113 c14 -14 20 -33 20
-65 0 -32 -6 -51 -20 -65 -26 -26 -34 -25 -59 6 -23 30 -27 74 -10 107 22 41
40 46 69 17z"/>
<path d="M5065 5210 c-3 -5 12 -40 35 -77 34 -57 40 -75 40 -124 0 -58 14 -84
31 -58 5 8 9 39 9 69 0 46 6 66 39 120 27 43 36 68 30 75 -12 11 -51 -33 -70
-77 -6 -16 -15 -28 -20 -28 -5 0 -23 25 -40 55 -31 54 -42 64 -54 45z"/>
<path d="M5753 5213 c-17 -6 -18 -258 -2 -269 20 -12 28 19 27 96 -1 126 1
132 25 65 13 -35 28 -60 36 -60 8 0 21 21 30 47 9 26 19 50 24 54 4 4 7 -38 7
-94 0 -90 9 -127 26 -109 3 3 5 63 5 133 -1 126 -7 149 -36 141 -5 -2 -19 -32
-31 -66 -23 -70 -32 -68 -55 11 -12 45 -29 60 -56 51z"/>
<path d="M6257 5209 c-43 -26 -62 -142 -36 -218 31 -90 159 -58 159 39 0 23
-4 50 -10 60 -14 26 -65 42 -96 30 -14 -6 -27 -10 -30 -10 -11 0 -2 30 18 55
18 24 26 27 60 22 33 -4 39 -3 36 11 -4 20 -73 28 -101 11z m63 -119 c46 -25
27 -120 -24 -120 -47 0 -69 61 -36 103 23 30 32 32 60 17z"/>
<path d="M6675 5208 c-3 -8 -4 -70 -3 -139 3 -102 6 -124 18 -124 11 0 16 15
20 55 l5 55 45 3 c59 4 80 24 80 77 0 57 -22 75 -99 82 -47 5 -62 3 -66 -9z
m123 -45 c25 -34 -12 -85 -58 -80 -21 2 -25 8 -28 41 -5 58 3 70 41 62 17 -3
38 -14 45 -23z"/>
<path d="M7395 5135 c-71 -110 -71 -123 -3 -127 50 -3 53 -5 58 -33 6 -37 34
-40 38 -5 2 14 11 31 20 38 16 12 16 14 0 26 -13 10 -18 31 -20 97 -4 117 -20
117 -93 4z m45 -95 c-6 -3 -24 -5 -40 -2 -33 5 -32 7 19 87 l26 40 3 -59 c2
-35 -1 -62 -8 -66z"/>
<path d="M7592 5197 c-30 -31 -31 -108 -2 -137 22 -22 70 -26 101 -10 29 16
25 -21 -6 -55 -22 -23 -31 -26 -61 -20 -31 5 -35 4 -32 -12 4 -22 66 -30 98
-13 31 17 50 70 50 140 0 92 -26 129 -91 130 -24 0 -42 -7 -57 -23z m96 -19
c17 -17 15 -83 -2 -97 -8 -7 -27 -11 -43 -9 -57 6 -53 118 5 118 15 0 33 -5
40 -12z"/>
<path d="M5315 5126 c-21 -32 -22 -119 -2 -150 19 -29 60 -40 88 -25 29 15 36
3 18 -29 -13 -23 -21 -27 -58 -25 -59 3 -49 -21 11 -25 37 -2 50 1 67 19 19
20 21 35 21 139 l0 116 -65 2 c-58 2 -66 0 -80 -22z m88 -9 c39 -28 29 -129
-13 -140 -53 -14 -84 89 -40 133 23 23 30 24 53 7z"/>
<path d="M6447 5143 c-11 -10 -8 -127 4 -162 13 -36 47 -49 84 -33 15 7 26 8
30 2 4 -6 13 -10 21 -10 11 0 14 20 14 106 0 95 -2 105 -17 102 -15 -3 -19
-17 -23 -82 -4 -61 -9 -81 -22 -90 -31 -19 -53 4 -56 60 -5 97 -15 128 -35
107z"/>
<path d="M6918 5139 c-10 -5 -22 -27 -28 -48 -26 -96 36 -171 113 -137 24 11
23 -25 -2 -48 -14 -13 -28 -16 -56 -10 -30 5 -37 4 -33 -7 3 -9 22 -15 51 -17
36 -2 51 2 66 17 19 19 21 33 21 139 l0 118 -57 2 c-32 1 -66 -3 -75 -9z m86
-31 c23 -32 20 -94 -4 -118 -11 -11 -24 -20 -30 -20 -5 0 -19 9 -30 20 -40 40
-15 140 34 140 8 0 22 -10 30 -22z"/>
<path d="M7135 5140 c-8 -13 9 -19 62 -22 l43 -3 -55 -68 c-30 -38 -55 -77
-55 -88 0 -17 8 -19 75 -19 60 0 75 3 75 15 0 11 -12 15 -48 15 -27 0 -51 3
-55 6 -3 4 19 37 49 75 73 91 72 99 -15 99 -39 0 -73 -5 -76 -10z"/>
<path d="M11028 4953 c7 -3 16 -2 19 1 4 3 -2 6 -13 5 -11 0 -14 -3 -6 -6z"/>
<path d="M11020 4921 c0 -5 7 -11 15 -15 8 -3 15 -1 15 3 0 5 -7 11 -15 15 -8
3 -15 1 -15 -3z"/>
<path d="M3110 4870 l0 -40 -45 0 -45 0 0 -39 c0 -40 0 -40 43 -43 42 -3 42
-3 45 -44 3 -41 3 -41 40 -39 36 1 37 2 37 41 0 38 -1 39 -39 44 -33 4 -40 9
-41 30 -4 49 0 50 131 50 l124 0 0 40 0 40 -125 0 -125 0 0 -40z"/>
<path d="M4110 4869 l0 -40 38 3 c35 3 37 5 40 41 l3 37 -40 0 -41 0 0 -41z"/>
<path d="M11028 4873 c7 -3 16 -2 19 1 4 3 -2 6 -13 5 -11 0 -14 -3 -6 -6z"/>
<path d="M2020 4790 l0 -40 40 0 40 0 0 40 0 40 -40 0 -40 0 0 -40z"/>
<path d="M9460 4800 c0 -5 5 -10 11 -10 5 0 7 5 4 10 -3 6 -8 10 -11 10 -2 0
-4 -4 -4 -10z"/>
<path d="M8160 4735 c0 -37 4 -65 10 -65 6 0 10 8 10 18 0 10 12 22 30 29 53
20 36 83 -22 83 -28 0 -28 0 -28 -65z m70 20 c0 -16 -34 -38 -44 -28 -3 3 -6
16 -6 28 0 12 3 25 6 28 10 10 44 -12 44 -28z"/>
<path d="M8817 4793 c-11 -10 -8 -123 3 -123 6 0 10 8 10 18 0 10 12 22 30 29
49 18 37 83 -15 83 -12 0 -25 -3 -28 -7z m57 -26 c9 -15 7 -21 -8 -32 -25 -19
-36 -11 -36 26 0 23 4 30 16 27 9 -2 22 -11 28 -21z"/>
<path d="M6900 4646 c0 -133 6 -167 25 -136 4 7 12 7 25 0 27 -15 66 -12 84 5
26 26 38 90 26 135 -13 47 -39 64 -91 57 l-38 -5 -3 41 c-2 22 -9 42 -15 45
-10 3 -13 -30 -13 -142z m110 24 c45 -45 11 -167 -39 -141 -35 19 -44 39 -38
88 3 29 12 52 23 60 24 17 30 17 54 -7z"/>
<path d="M7196 4783 c-12 -12 -6 -33 9 -33 8 0 15 6 15 14 0 17 -14 28 -24 19z"/>
<path d="M5070 4644 c0 -124 2 -135 18 -132 14 3 18 18 22 98 l5 95 40 -97
c37 -90 42 -98 68 -98 l28 0 -3 133 c-3 109 -6 132 -18 132 -12 0 -16 -20 -20
-100 l-5 -100 -18 40 c-10 22 -26 58 -36 80 -10 22 -22 50 -25 63 -5 15 -15
22 -32 22 l-24 0 0 -136z"/>
<path d="M5326 4759 c-32 -25 -34 -61 -5 -90 l21 -21 -21 -14 c-32 -23 -29
-86 5 -113 59 -46 144 -11 144 58 0 25 -7 44 -20 56 -19 17 -19 18 0 43 26 32
25 48 -5 77 -30 31 -82 33 -119 4z m100 -34 c8 -33 -11 -55 -48 -55 -32 0 -43
18 -34 55 5 21 12 25 41 25 29 0 36 -4 41 -25z m5 -123 c22 -58 -53 -99 -87
-47 -19 29 -11 63 19 74 31 12 57 2 68 -27z"/>
<path d="M5750 4770 c0 -5 16 -35 36 -65 l35 -56 -40 -63 c-46 -70 -48 -76
-23 -76 10 0 28 20 45 50 16 28 32 50 37 50 5 0 21 -22 37 -50 17 -30 35 -50
46 -50 24 0 22 4 -22 75 l-40 63 34 53 c19 30 35 60 35 67 0 25 -25 6 -57 -42
l-32 -49 -31 52 c-28 46 -60 67 -60 41z"/>
<path d="M5980 4645 c0 -113 2 -135 15 -135 12 0 15 18 15 100 0 55 3 100 8
100 4 0 25 -45 47 -101 37 -92 42 -100 65 -97 l25 3 0 130 c0 116 -2 130 -17
133 -16 3 -18 -7 -18 -99 0 -62 -4 -99 -9 -93 -5 5 -24 45 -42 89 -39 95 -45
105 -70 105 -18 0 -19 -10 -19 -135z"/>
<path d="M6220 4645 l0 -135 81 0 c59 0 80 3 77 12 -3 7 -25 14 -53 15 -72 3
-77 7 -73 55 l3 43 58 3 c42 2 57 7 57 17 0 11 -14 15 -55 15 -61 0 -72 10
-61 55 6 23 11 25 66 25 47 0 60 3 60 15 0 12 -16 15 -80 15 l-80 0 0 -135z"/>
<path d="M6455 4755 c-32 -31 -34 -91 -4 -129 15 -20 29 -26 58 -26 20 0 42 5
49 12 9 9 12 6 12 -13 0 -14 -11 -36 -25 -49 -19 -18 -31 -22 -60 -17 -25 4
-35 2 -35 -8 0 -28 72 -34 109 -9 66 47 68 218 3 253 -35 19 -81 13 -107 -14z
m104 -36 c21 -38 0 -89 -38 -89 -15 0 -32 5 -39 12 -16 16 -15 81 0 96 20 20
61 10 77 -19z"/>
<path d="M7578 4719 c-3 -35 -4 -95 -4 -134 l1 -70 67 -3 c57 -2 70 0 88 18
25 25 26 71 1 101 -16 19 -16 25 -5 37 20 19 17 66 -4 85 -11 10 -45 20 -79
23 l-60 7 -5 -64z m116 9 c23 -33 5 -58 -44 -58 -39 0 -40 1 -40 33 0 41 5 47
41 47 17 0 34 -8 43 -22z m7 -106 c15 -16 18 -49 6 -65 -12 -18 -61 -29 -84
-20 -14 5 -18 85 -6 97 8 8 74 -2 84 -12z"/>
<path d="M8408 4769 c-2 -7 -1 -30 2 -53 4 -31 10 -41 25 -43 11 -2 14 0 8 3
-16 7 -17 74 -2 74 6 0 4 7 -5 15 -18 18 -23 19 -28 4z"/>
<path d="M7340 4760 c0 -6 28 -10 65 -10 36 0 65 -4 65 -8 0 -5 -12 -37 -26
-73 -68 -166 -66 -159 -45 -159 14 0 28 24 59 104 23 57 44 116 48 130 l6 26
-86 0 c-51 0 -86 -4 -86 -10z"/>
<path d="M8273 4715 c0 -27 2 -38 4 -22 2 15 2 37 0 50 -2 12 -4 0 -4 -28z"/>
<path d="M8326 4744 c-30 -30 -13 -75 29 -73 19 0 19 1 -2 9 -16 6 -23 18 -23
35 0 17 7 29 23 35 16 6 17 9 5 9 -9 1 -24 -6 -32 -15z"/>
<path d="M8470 4731 c0 -49 9 -61 46 -61 l34 0 -1 48 c-1 26 -3 38 -6 27 -2
-11 -6 -30 -9 -42 -3 -15 -12 -23 -24 -23 -16 0 -20 7 -20 34 0 19 -4 38 -10
41 -6 4 -10 -6 -10 -24z"/>
<path d="M8589 4755 c-6 -1 -3 -85 3 -85 4 0 8 16 8 35 0 28 5 38 23 45 21 8
20 9 -5 7 -16 -1 -29 -2 -29 -2z"/>
<path d="M8661 4746 c-7 -8 -11 -27 -9 -43 2 -23 8 -28 33 -30 18 -1 22 1 8 3
-12 3 -24 12 -27 20 -4 10 3 14 29 14 36 0 46 15 23 38 -16 16 -43 15 -57 -2z
m47 -8 c-3 -7 -11 -13 -18 -13 -7 0 -15 6 -17 13 -3 7 4 12 17 12 13 0 20 -5
18 -12z"/>
<path d="M8920 4713 c0 -55 5 -54 14 5 4 26 2 42 -4 42 -5 0 -10 -21 -10 -47z"/>
<path d="M8996 4747 c-21 -16 -18 -55 5 -70 9 -5 28 -7 42 -3 23 5 27 12 27
40 0 45 -36 61 -74 33z m59 -16 c9 -29 -5 -52 -29 -49 -37 5 -34 68 3 68 11 0
22 -8 26 -19z"/>
<path d="M9105 4740 c-24 -27 -7 -70 27 -69 l23 0 -22 9 c-36 15 -28 63 12 73
19 4 19 5 -1 6 -11 0 -29 -8 -39 -19z"/>
<path d="M9202 4748 c-7 -7 -12 -25 -12 -40 0 -21 6 -29 25 -34 14 -4 29 -4
32 0 4 3 -3 6 -14 6 -12 0 -23 7 -27 15 -4 11 2 15 24 15 34 0 47 15 30 35
-15 18 -42 19 -58 3z m46 -10 c-7 -19 -38 -22 -38 -4 0 10 9 16 21 16 12 0 19
-5 17 -12z"/>
<path d="M9293 4743 c-4 -11 1 -22 15 -31 27 -17 28 -29 5 -35 -13 -4 -12 -5
5 -6 23 -1 45 30 25 36 -5 2 -19 10 -29 18 -18 13 -18 14 6 24 25 10 25 10 2
10 -12 1 -26 -7 -29 -16z"/>
<path d="M9379 4744 c-11 -14 -9 -19 16 -37 l29 -21 -25 -8 -24 -7 25 2 c31 3
39 33 11 42 -26 8 -27 32 -3 38 14 4 14 5 1 6 -9 0 -23 -6 -30 -15z"/>
<path d="M9460 4716 c0 -25 5 -46 10 -46 6 0 10 18 10 39 0 22 -4 43 -10 46
-6 4 -10 -12 -10 -39z"/>
<path d="M9511 4715 l1 -50 8 40 c5 22 4 44 -1 50 -5 5 -9 -11 -8 -40z"/>
<path d="M9553 4749 c11 -6 17 -22 17 -44 0 -19 5 -35 10 -35 17 0 12 77 -6
84 -25 10 -41 6 -21 -5z"/>
<path d="M9626 4744 c-30 -30 -13 -75 29 -73 19 0 19 1 -2 9 -16 6 -23 18 -23
35 0 17 7 29 23 35 16 6 17 9 5 9 -9 1 -24 -6 -32 -15z"/>
<path d="M9684 4710 c3 -55 -7 -76 -39 -83 -16 -4 -15 -5 6 -6 14 0 30 4 37
11 14 14 17 128 3 128 -5 0 -8 -23 -7 -50z"/>
<path d="M9730 4750 c0 -5 5 -10 10 -10 6 0 10 5 10 10 0 6 -4 10 -10 10 -5 0
-10 -4 -10 -10z"/>
<path d="M5570 4610 c0 -82 3 -100 15 -100 12 0 15 14 15 63 0 82 17 107 71
107 28 0 39 4 37 13 -6 17 -66 21 -84 6 -11 -9 -18 -9 -26 -1 -24 24 -28 10
-28 -88z"/>
<path d="M6670 4702 c0 -4 13 -26 30 -49 l30 -40 -35 -46 c-40 -52 -41 -57
-17 -57 9 0 28 16 41 35 13 19 27 35 31 35 5 0 18 -16 30 -35 13 -21 30 -35
41 -35 23 0 20 6 -23 62 l-29 38 30 44 c35 50 37 56 17 56 -7 0 -26 -16 -41
-36 -27 -35 -29 -36 -42 -18 -35 50 -63 70 -63 46z"/>
<path d="M7140 4695 c0 -9 9 -15 25 -15 26 0 26 -1 23 -72 l-3 -73 -32 -3
c-67 -7 -30 -22 52 -22 82 0 119 15 53 22 l-33 3 -3 88 -3 87 -39 0 c-29 0
-40 -4 -40 -15z"/>
<path d="M7917 4683 c-4 -3 -7 -11 -7 -17 0 -7 3 -7 8 1 5 8 13 9 22 3 12 -7
10 -14 -13 -38 -15 -15 -24 -31 -20 -35 10 -11 53 -8 53 3 0 6 -7 10 -16 10
-14 0 -14 2 0 22 22 31 20 58 -2 58 -10 0 -22 -3 -25 -7z"/>
<path d="M7987 4684 c-4 -4 -7 -14 -7 -23 1 -13 2 -13 11 2 14 24 29 12 29
-24 0 -32 -14 -38 -29 -11 -9 15 -10 14 -11 -6 0 -27 28 -41 41 -21 15 22 6
83 -11 87 -9 1 -19 0 -23 -4z"/>
<path d="M9730 4680 c0 -5 5 -10 10 -10 6 0 10 5 10 10 0 6 -4 10 -10 10 -5 0
-10 -4 -10 -10z"/>
<path d="M1947 4664 c-4 -4 -7 -42 -7 -85 l0 -78 38 -3 c35 -3 37 -5 42 -43 5
-38 7 -40 43 -43 l37 -3 0 85 0 86 -39 0 c-40 0 -40 0 -43 42 -3 38 -5 42 -34
45 -16 2 -33 1 -37 -3z"/>
<path d="M8167 4473 c-4 -3 -7 -28 -7 -55 0 -48 1 -49 28 -46 24 3 27 7 29 43
2 46 -28 81 -50 58z m43 -28 c0 -8 -9 -15 -20 -15 -11 0 -20 7 -20 15 0 8 9
15 20 15 11 0 20 -7 20 -15z m-2 -48 c2 -12 -3 -17 -17 -17 -12 0 -21 6 -21
13 0 31 32 34 38 4z"/>
<path d="M8233 4420 c0 -30 2 -43 4 -27 2 15 2 39 0 55 -2 15 -4 2 -4 -28z"/>
<path d="M8403 4420 c-1 -30 1 -47 4 -37 2 9 7 17 10 17 3 0 12 -8 19 -17 7
-10 14 -13 14 -7 0 5 -9 19 -19 31 -11 11 -21 31 -24 44 -2 13 -4 -1 -4 -31z"/>
<path d="M8700 4455 c0 -8 -8 -15 -17 -15 -15 0 -15 -1 2 -14 11 -8 16 -19 12
-30 -9 -23 -35 -20 -40 4 -4 17 -4 16 -3 -2 1 -17 8 -24 29 -26 26 -3 27 -2
27 47 0 28 -2 51 -5 51 -3 0 -5 -7 -5 -15z"/>
<path d="M8852 4420 c0 -41 2 -47 7 -25 3 17 13 30 21 30 8 0 18 -13 22 -30 6
-29 6 -29 5 5 -2 28 -7 36 -24 38 -12 2 -24 11 -26 20 -3 9 -5 -8 -5 -38z"/>
<path d="M8937 4439 c-11 -7 -16 -21 -16 -42 2 -30 2 -30 6 -4 5 34 23 36 23
2 0 -14 3 -25 8 -25 7 0 8 67 1 74 -2 3 -12 0 -22 -5z"/>
<path d="M8283 4433 c23 -6 22 -19 -3 -26 -29 -8 -26 -37 5 -37 22 0 25 4 25
35 0 30 -3 35 -22 34 -17 -1 -19 -2 -5 -6z m17 -43 c0 -5 -7 -10 -15 -10 -8 0
-15 5 -15 10 0 6 7 10 15 10 8 0 15 -4 15 -10z"/>
<path d="M8334 4426 c-14 -38 22 -74 48 -48 6 6 0 8 -17 4 -24 -4 -26 -2 -23
19 2 18 9 23 26 22 13 -2 21 1 17 7 -9 15 -45 12 -51 -4z"/>
<path d="M8533 4434 c23 -7 22 -20 -3 -27 -30 -8 -25 -37 6 -37 23 0 25 3 22
32 -2 24 -8 33 -23 35 -16 1 -16 1 -2 -3z m17 -44 c0 -5 -7 -10 -15 -10 -8 0
-15 5 -15 10 0 6 7 10 15 10 8 0 15 -4 15 -10z"/>
<path d="M8582 4403 l1 -38 4 33 c3 25 9 32 21 30 9 -2 16 -11 16 -21 -1 -9 2
-17 7 -17 10 0 11 12 3 34 -3 9 -17 16 -30 16 -21 0 -24 -4 -22 -37z"/>
<path d="M8761 4424 c0 -11 3 -14 6 -6 3 7 2 16 -1 19 -3 4 -6 -2 -5 -13z"/>
<path d="M9014 4432 c24 -10 6 -25 -18 -16 -10 4 -16 1 -16 -8 0 -19 20 -38
40 -37 9 0 5 5 -10 12 l-25 11 28 4 c33 4 34 35 2 39 -19 3 -19 3 -1 -5z"/>
<path d="M8780 4405 c-7 -14 -10 -28 -6 -32 4 -4 9 3 13 15 3 12 9 22 14 22 5
0 9 5 9 10 0 18 -17 10 -30 -15z"/>
<path d="M10707 4423 c-4 -3 2 -13 13 -20 17 -12 24 -12 35 -3 8 7 15 16 15
21 0 10 -53 12 -63 2z"/>
<path d="M8810 4390 c0 -5 5 -10 11 -10 5 0 7 5 4 10 -3 6 -8 10 -11 10 -2 0
-4 -4 -4 -10z"/>
<path d="M6446 4343 c-3 -4 -6 -66 -6 -139 0 -133 6 -158 35 -134 9 7 15 8 20
0 10 -16 61 -12 86 9 34 28 40 125 9 164 -20 25 -28 28 -69 25 l-46 -3 3 36
c2 25 -1 38 -11 42 -8 3 -18 3 -21 0z m109 -113 c21 -24 24 -102 4 -126 -7 -8
-24 -14 -38 -12 -34 4 -53 56 -39 107 15 54 42 65 73 31z"/>
<path d="M6967 4344 c-14 -14 -7 -35 11 -32 9 2 17 10 17 17 0 16 -18 25 -28
15z"/>
<path d="M7126 4343 c-3 -4 -6 -66 -6 -139 0 -133 6 -158 35 -134 9 7 15 8 20
0 3 -5 21 -10 40 -10 47 0 75 37 75 101 0 26 -5 59 -11 73 -14 29 -55 47 -84
35 -33 -13 -35 -11 -35 30 0 36 -18 59 -34 44z m114 -113 c35 -35 20 -132 -22
-143 -52 -14 -82 99 -38 143 11 11 25 20 30 20 6 0 19 -9 30 -20z"/>
<path d="M5088 4334 c-5 -4 -8 -65 -8 -136 0 -120 1 -128 19 -128 17 0 20 8
23 53 l3 52 46 5 c26 3 54 12 63 19 23 20 21 93 -3 115 -21 19 -130 34 -143
20z m112 -44 c37 -37 18 -75 -42 -85 l-38 -7 0 49 c0 27 3 53 7 56 13 14 54 6
73 -13z"/>
<path d="M5326 4319 c-52 -41 -19 -129 50 -129 23 0 64 -31 64 -48 0 -4 -7
-18 -16 -30 -17 -24 -55 -29 -98 -12 -21 8 -26 6 -26 -5 0 -19 40 -35 84 -35
50 0 86 33 86 79 0 45 -19 65 -76 80 -56 15 -71 33 -55 68 11 24 15 25 66 20
42 -4 55 -2 55 8 0 30 -97 33 -134 4z"/>
<path d="M5530 4221 c0 -117 1 -120 26 -140 32 -25 64 -27 104 -6 36 18 42 47
38 170 -2 72 -6 90 -18 90 -12 0 -16 -20 -18 -109 -3 -116 -10 -136 -48 -136
-45 0 -54 22 -54 141 0 90 -3 109 -15 109 -12 0 -15 -20 -15 -119z"/>
<path d="M5980 4205 c0 -113 2 -135 15 -135 12 0 15 17 15 94 0 52 4 97 8 100
5 3 14 -12 21 -32 8 -20 26 -65 42 -100 24 -54 32 -63 51 -60 23 3 23 5 23
133 0 116 -2 130 -17 133 -16 3 -18 -7 -18 -99 0 -62 -4 -99 -9 -93 -5 5 -24
45 -42 89 -39 95 -45 105 -70 105 -18 0 -19 -10 -19 -135z"/>
<path d="M6210 4205 l0 -135 54 0 c43 0 61 5 83 24 24 21 28 32 31 92 2 43 -2
78 -10 94 -17 32 -73 60 -120 60 l-38 0 0 -135z m95 93 c46 -21 58 -136 18
-180 -9 -11 -30 -18 -50 -18 l-33 0 0 98 c0 54 3 102 7 105 9 10 29 8 58 -5z"/>
<path d="M6667 4334 c-9 -9 -9 -171 -1 -213 12 -59 91 -80 141 -37 28 24 28
26 28 137 0 100 -2 114 -17 117 -16 3 -18 -7 -18 -107 0 -119 -9 -141 -54
-141 -38 0 -45 20 -48 135 -3 100 -11 129 -31 109z"/>
<path d="M7387 4320 c-48 -38 -59 -156 -21 -215 32 -49 144 -63 144 -19 0 10
-10 12 -44 8 -40 -6 -45 -4 -62 22 -27 40 -26 144 1 174 16 18 28 21 63 17 36
-4 43 -2 40 12 -5 26 -87 27 -121 1z"/>
<path d="M7557 4334 c-15 -16 -5 -23 36 -26 l42 -3 3 -117 c2 -95 5 -118 17
-118 12 0 15 23 17 118 l3 117 43 3 c28 2 42 7 39 15 -4 13 -188 23 -200 11z"/>
<path d="M1940 4119 l0 -210 38 3 37 3 3 123 c2 107 5 122 20 123 58 4 57 3
60 42 l3 37 85 0 84 0 0 -40 0 -40 -40 0 c-40 0 -40 0 -40 -39 0 -40 0 -40
-42 -43 l-43 -3 0 -80 0 -80 125 0 125 0 3 43 c3 42 3 42 42 42 39 0 39 0 42
-42 3 -42 4 -43 41 -46 l37 -3 0 45 0 46 -40 0 -40 0 0 40 0 40 40 0 40 0 0
40 0 40 -40 0 -40 0 0 -40 0 -40 -40 0 -40 0 0 -40 0 -40 -45 0 -45 0 0 80 c0
57 4 80 13 81 6 0 26 2 42 2 27 2 30 6 33 40 l3 37 -45 0 -46 0 0 45 0 46 -82
-3 -83 -3 -3 -43 c-3 -43 -3 -43 -40 -40 -36 3 -37 4 -40 46 -3 42 -3 42 -43
42 l-39 0 0 -211z"/>
<path d="M4610 4285 l0 -46 38 3 c36 3 37 4 37 43 0 39 -1 40 -37 43 l-38 3 0
-46z"/>
<path d="M5810 4272 c-14 -2 -31 -8 -37 -14 -22 -17 -4 -27 28 -16 22 7 37 7
55 -1 40 -18 29 -38 -23 -44 -76 -8 -109 -71 -62 -118 17 -17 28 -20 57 -15
21 4 49 7 65 7 l27 0 0 77 c0 47 -5 85 -12 95 -15 20 -63 34 -98 29z m73 -108
c8 -8 -11 -57 -26 -66 -43 -27 -94 17 -61 53 16 18 73 27 87 13z"/>
<path d="M6912 4258 c3 -7 14 -14 26 -16 20 -3 22 -9 22 -78 l0 -74 -30 0
c-16 0 -30 -4 -30 -10 0 -6 33 -10 80 -10 47 0 80 4 80 10 0 6 -13 10 -30 10
l-29 0 -3 88 -3 87 -44 3 c-32 2 -42 0 -39 -10z"/>
<path d="M8160 4015 l0 -65 38 1 c30 2 32 3 10 6 -27 4 -28 7 -28 64 0 33 -4
59 -10 59 -6 0 -10 -28 -10 -65z"/>
<path d="M8275 4040 c-3 -5 1 -10 9 -10 26 0 18 -15 -14 -27 -16 -6 -30 -18
-30 -27 0 -17 0 -18 48 -22 31 -2 32 -1 32 35 0 47 -28 79 -45 51z m25 -54 c0
-18 -16 -29 -30 -21 -13 8 -1 35 16 35 8 0 14 -6 14 -14z"/>
<path d="M8356 4031 c-17 -19 -17 -20 8 -36 32 -21 33 -35 4 -36 -18 -1 -19
-2 -5 -6 41 -11 57 39 16 52 -25 8 -24 25 2 25 11 0 17 5 14 10 -9 15 -20 12
-39 -9z"/>
<path d="M8448 4039 c-12 -6 -18 -22 -18 -43 0 -34 13 -46 48 -46 12 0 10 4
-7 13 -34 17 -31 31 7 35 36 4 43 25 13 42 -23 12 -22 12 -43 -1z m42 -19 c0
-5 -9 -10 -20 -10 -11 0 -20 5 -20 10 0 6 9 10 20 10 11 0 20 -4 20 -10z"/>
<path d="M8660 3974 c0 -43 2 -75 5 -73 9 9 12 140 4 145 -5 3 -9 -30 -9 -72z"/>
<path d="M8696 4041 c-3 -5 3 -11 14 -14 27 -7 26 -42 -2 -61 -16 -11 -18 -16
-7 -16 40 0 55 71 20 90 -11 6 -22 6 -25 1z"/>
<path d="M8788 4039 c-22 -12 -24 -62 -3 -79 42 -35 97 30 60 70 -20 22 -32
24 -57 9z m50 -41 c-2 -25 -8 -34 -25 -36 -17 -3 -24 3 -29 22 -8 33 1 46 32
46 22 0 25 -4 22 -32z"/>
<path d="M9040 4030 c-11 -11 -20 -26 -20 -34 0 -20 28 -46 48 -45 12 0 11 3
-5 9 -34 14 -29 40 7 40 35 0 41 23 10 40 -15 8 -24 6 -40 -10z m50 -10 c0 -5
-12 -10 -26 -10 -14 0 -23 4 -19 10 3 6 15 10 26 10 10 0 19 -4 19 -10z"/>
<path d="M8530 3995 c0 -25 5 -45 10 -45 6 0 10 16 10 35 0 22 6 38 18 44 14
9 13 10 -10 11 -26 0 -28 -3 -28 -45z"/>
<path d="M8880 4034 c0 -4 5 -24 12 -45 12 -41 28 -52 28 -20 0 10 6 24 14 30
12 10 15 6 21 -19 9 -41 17 -38 36 15 9 25 13 45 8 45 -5 0 -13 -15 -18 -32
l-9 -33 -12 33 c-7 17 -15 32 -19 32 -4 0 -13 -15 -20 -32 l-13 -33 -9 33 c-9
28 -19 43 -19 26z"/>
<path d="M9130 3994 c0 -27 4 -43 10 -39 6 3 10 21 10 40 0 24 5 35 18 38 10
3 6 5 -10 6 -27 1 -28 -1 -28 -45z"/>
<path d="M7910 3939 c0 -7 3 -9 6 -6 4 3 16 2 26 -4 16 -9 19 -8 16 3 -6 17
-48 23 -48 7z"/>
<path d="M7984 3935 c-4 -9 -4 -19 0 -22 3 -4 6 -1 6 5 0 7 7 12 15 12 10 0
15 -10 15 -30 0 -33 -25 -42 -34 -12 -3 10 -4 6 -3 -8 1 -18 8 -25 22 -25 17
0 20 7 20 45 0 35 -4 45 -18 48 -9 2 -20 -4 -23 -13z"/>
<path d="M7925 3900 c-3 -5 1 -10 9 -10 9 0 16 -5 16 -11 0 -6 -9 -9 -20 -6
-13 3 -20 0 -20 -9 0 -16 36 -19 45 -4 8 13 -3 50 -15 50 -5 0 -12 -4 -15 -10z"/>
<path d="M5169 3883 c-18 -21 -81 -118 -98 -151 -18 -33 -6 -42 55 -42 l54 0
0 -36 c0 -28 3 -35 18 -32 11 2 18 14 20 36 2 20 9 32 18 32 8 0 14 7 14 15 0
8 -7 15 -15 15 -11 0 -15 19 -17 87 -2 70 -6 88 -19 91 -8 1 -22 -5 -30 -15z
m11 -98 l0 -65 -40 0 c-22 0 -40 3 -40 6 0 9 70 124 76 124 2 0 4 -29 4 -65z"/>
<path d="M5518 3895 c-4 -5 50 -205 67 -247 6 -16 55 -27 55 -13 0 3 16 59 35
125 40 137 41 143 19 138 -16 -3 -22 -19 -64 -176 -6 -23 -15 -40 -19 -38 -5
3 -21 53 -36 111 -25 93 -39 118 -57 100z"/>
<path d="M5363 3832 c-38 -6 -63 -48 -63 -107 0 -59 24 -91 75 -100 36 -7 87
6 93 23 3 9 -10 11 -51 6 -49 -6 -56 -4 -71 17 -29 42 -22 49 53 49 39 0 72 4
75 8 7 12 -12 80 -25 87 -18 12 -64 21 -86 17z m59 -39 c33 -30 23 -43 -37
-43 -59 0 -67 8 -35 40 24 24 47 25 72 3z"/>
<path d="M5793 3828 c-12 -6 -27 -23 -34 -39 -15 -38 -6 -114 16 -139 20 -22
74 -27 93 -8 9 9 12 7 12 -9 0 -44 -10 -53 -60 -53 -32 0 -50 -5 -53 -14 -4
-9 -23 -16 -49 -18 -24 -2 8 -4 70 -4 74 0 112 3 110 10 0 6 4 24 10 39 7 16
12 75 12 133 l0 104 -27 -1 c-16 -1 -39 1 -53 4 -14 3 -35 1 -47 -5z m71 -34
c22 -21 21 -102 -1 -126 -20 -23 -36 -23 -56 0 -25 28 -30 66 -13 106 16 40
43 47 70 20z"/>
<path d="M1940 3697 c0 -90 -4 -137 -12 -145 -9 -9 -9 -12 0 -12 9 0 12 -39
12 -145 l0 -145 290 0 290 0 0 145 c0 131 2 145 18 145 16 1 16 1 0 11 -16 9
-18 27 -18 144 l0 135 -290 0 -290 0 0 -133z m498 -45 c3 -88 2 -93 -20 -102
l-23 -9 23 0 c21 -1 22 -4 22 -106 l0 -105 -210 0 -210 0 0 105 0 105 28 1 27
1 -25 7 c-24 7 -25 11 -28 91 -2 46 -1 89 2 97 5 11 45 13 208 11 l203 -3 3
-93z"/>
<path d="M2107 3653 c-4 -3 -7 -25 -7 -48 0 -22 -5 -46 -12 -53 -9 -9 -9 -12
0 -12 7 0 12 -24 14 -62 l3 -63 125 0 125 0 3 123 3 122 -124 0 c-68 0 -127
-3 -130 -7z"/>
<path d="M10500 3767 c27 -15 36 -14 25 2 -3 6 -16 11 -28 11 -21 0 -21 -1 3
-13z"/>
<path d="M10570 3771 c0 -5 9 -7 20 -4 11 3 20 7 20 9 0 2 -9 4 -20 4 -11 0
-20 -4 -20 -9z"/>
<path d="M10645 3770 c-12 -20 5 -48 29 -46 19 1 22 5 16 26 -7 26 -34 39 -45
20z m35 -15 c0 -8 -7 -15 -15 -15 -8 0 -15 7 -15 15 0 8 7 15 15 15 8 0 15 -7
15 -15z"/>
<path d="M10710 3760 c-6 -11 -8 -20 -6 -20 3 0 10 9 16 20 6 11 8 20 6 20 -3
0 -10 -9 -16 -20z"/>
<path d="M10579 3737 c34 -17 37 -35 9 -46 -23 -10 -23 -10 -1 -10 26 -1 40
33 23 54 -7 8 -22 15 -34 15 -20 0 -20 -1 3 -13z"/>
<path d="M10490 3730 c0 -5 7 -10 15 -10 24 0 17 -30 -7 -31 -19 -1 -20 -2 -4
-6 25 -7 39 10 31 36 -6 21 -35 30 -35 11z"/>
<path d="M10710 3721 c0 -5 9 -7 20 -4 11 3 20 7 20 9 0 2 -9 4 -20 4 -11 0
-20 -4 -20 -9z"/>
<path d="M10710 3690 c0 -6 7 -10 15 -10 8 0 15 2 15 4 0 2 -7 6 -15 10 -8 3
-15 1 -15 -4z"/>
<path d="M3020 3566 c0 -8 -8 -17 -17 -19 -16 -4 -16 -5 -1 -6 14 -1 18 -13
20 -63 l3 -63 40 0 c40 0 40 0 43 43 l3 43 122 -3 122 -3 3 -42 3 -42 -43 -3
-43 -3 0 -75 0 -75 123 -3 122 -3 0 81 0 80 -41 0 -41 0 2 73 c1 39 2 78 1 85
-1 9 -50 12 -211 12 -175 0 -210 -2 -210 -14z m420 -196 l0 -40 -40 0 -40 0 0
40 0 40 40 0 40 0 0 -40z"/>
<path d="M3520 3540 l0 -40 85 0 85 0 0 -45 0 -45 -40 0 -40 0 0 -80 0 -80 39
0 c39 0 40 1 43 38 3 35 5 37 41 40 36 3 37 4 37 43 0 39 0 39 39 39 l39 0 4
73 c3 39 3 78 0 85 -3 9 -46 12 -168 12 l-164 0 0 -40z"/>
<path d="M7810 3549 c0 -5 5 -7 10 -4 6 3 10 8 10 11 0 2 -4 4 -10 4 -5 0 -10
-5 -10 -11z"/>
<path d="M3473 3543 c9 -2 23 -2 30 0 6 3 -1 5 -18 5 -16 0 -22 -2 -12 -5z"/>
<path d="M5538 3543 c12 -2 32 -2 45 0 12 2 2 4 -23 4 -25 0 -35 -2 -22 -4z"/>
<path d="M6313 3543 c224 -2 590 -2 815 0 224 1 40 2 -408 2 -448 0 -632 -1
-407 -2z"/>
<path d="M5091 3437 c-16 -18 -22 -34 -19 -58 3 -35 4 -36 108 -83 31 -14 37
-48 14 -71 -18 -17 -64 -17 -108 0 -14 6 -17 4 -14 -11 4 -25 71 -39 120 -24
29 8 39 18 48 46 10 29 9 39 -5 60 -9 14 -26 29 -38 34 -12 4 -37 14 -54 20
-24 9 -33 19 -33 35 0 35 24 48 76 42 38 -4 45 -2 42 12 -2 12 -17 17 -58 19
-48 2 -59 0 -79 -21z"/>
<path d="M5300 3325 c0 -113 2 -135 15 -135 12 0 15 17 15 93 0 52 3 97 7 100
3 4 24 -38 46 -93 35 -87 43 -100 63 -100 l24 0 0 135 c0 113 -2 135 -15 135
-12 0 -15 -17 -15 -93 0 -52 -3 -97 -7 -100 -3 -4 -19 23 -35 60 -55 130 -57
133 -78 133 -19 0 -20 -6 -20 -135z"/>
<path d="M5995 3447 c-24 -18 -11 -41 15 -27 33 18 78 12 90 -11 18 -32 6 -58
-60 -132 -33 -37 -60 -72 -60 -77 0 -6 38 -10 86 -10 64 0 85 3 82 13 -3 7
-26 13 -56 15 -29 2 -52 7 -52 11 0 4 12 18 26 32 36 32 84 108 84 131 0 11
-11 30 -25 43 -28 29 -98 35 -130 12z"/>
<path d="M6248 3450 c-23 -14 -40 -72 -39 -136 0 -67 17 -105 54 -122 65 -31
117 27 117 130 0 62 -10 96 -35 121 -18 19 -70 22 -97 7z m90 -65 c18 -52 9
-133 -17 -158 -45 -45 -87 19 -79 119 5 63 22 86 57 82 20 -2 29 -12 39 -43z"/>
<path d="M6281 3341 c-8 -5 -11 -16 -8 -25 7 -18 16 -20 37 -6 13 8 13 11 0
24 -10 10 -20 12 -29 7z"/>
<path d="M6453 3453 c-7 -2 -13 -11 -13 -18 0 -9 15 -12 51 -11 93 2 92 -49
-1 -149 -33 -36 -60 -69 -60 -75 0 -6 34 -10 86 -10 64 0 85 3 82 13 -3 7 -26
13 -56 15 -29 2 -52 6 -52 10 0 5 18 26 41 47 72 70 87 124 46 163 -17 16 -35
22 -68 21 -24 0 -50 -3 -56 -6z"/>
<path d="M6691 3435 c-26 -34 -35 -83 -28 -145 10 -87 56 -125 118 -100 59 25
79 175 31 239 -29 39 -92 41 -121 6z m96 -35 c16 -32 16 -128 0 -160 -17 -35
-52 -38 -72 -6 -21 31 -24 121 -6 165 11 26 19 31 40 29 15 -2 31 -13 38 -28z"/>
<path d="M6737 3344 c-15 -15 -7 -45 11 -42 9 2 17 12 17 22 0 20 -16 31 -28
20z"/>
<path d="M6921 3439 c-43 -47 -45 -189 -3 -231 30 -31 75 -33 107 -5 24 20 29
33 33 85 6 78 -4 128 -29 153 -26 26 -82 25 -108 -2z m89 -24 c18 -22 24 -135
8 -164 -22 -41 -45 -49 -69 -24 -18 18 -22 33 -22 90 0 38 5 79 12 91 14 25
52 29 71 7z"/>
<path d="M6960 3340 c-18 -11 -4 -42 17 -38 10 2 19 10 21 19 4 19 -19 31 -38
19z"/>
<path d="M7140 3438 c-24 -26 -26 -56 -4 -86 14 -20 14 -24 -5 -48 -11 -14
-18 -31 -16 -37 2 -7 6 -24 9 -39 11 -51 118 -62 151 -15 20 29 19 70 -4 98
-19 23 -19 24 0 48 24 30 24 42 -2 75 -27 35 -98 37 -129 4z m88 -14 c42 -29
19 -78 -35 -72 -23 2 -29 9 -31 33 -3 19 2 33 14 42 22 16 25 16 52 -3z m6
-117 c37 -27 16 -97 -28 -97 -46 0 -68 45 -42 85 18 28 43 32 70 12z"/>
<path d="M5590 3424 c-6 -14 -10 -29 -10 -34 0 -5 -12 -10 -27 -12 -31 -4 -44
-28 -14 -28 11 0 22 -3 24 -7 9 -16 -11 -48 -33 -53 -31 -7 -38 -30 -10 -30
20 0 22 -4 17 -35 -8 -46 16 -48 29 -2 7 21 17 33 31 35 20 3 21 0 16 -34 -5
-29 -3 -36 8 -32 7 2 18 19 23 36 7 24 15 32 32 32 15 0 24 6 24 15 0 8 -9 15
-20 15 -23 0 -23 0 -10 34 7 19 17 26 36 26 31 0 28 23 -4 28 -18 3 -20 8 -15
38 7 44 -13 46 -25 2 -6 -24 -15 -34 -31 -36 -22 -3 -23 -1 -17 32 8 42 -9 50
-24 10z m50 -88 c0 -28 -12 -46 -31 -46 -19 0 -24 16 -13 44 8 20 44 21 44 2z"/>
<path d="M9272 3365 c0 -66 2 -72 8 -37 3 24 3 60 -1 80 -5 28 -7 16 -7 -43z"/>
<path d="M8188 3415 c-31 -17 -41 -43 -33 -78 8 -31 75 -65 75 -37 0 6 -8 10
-18 10 -25 0 -42 20 -42 50 0 32 17 50 48 50 13 0 20 4 17 10 -8 13 -14 12
-47 -5z"/>
<path d="M8930 3366 c0 -36 5 -68 10 -71 6 -4 10 20 10 64 0 41 -4 71 -10 71
-6 0 -10 -28 -10 -64z"/>
<path d="M4360 3330 l0 -80 125 0 125 0 0 40 0 40 -45 0 -45 0 0 40 0 40 -80
0 -80 0 0 -80z"/>
<path d="M9203 3399 c-12 -12 0 -86 16 -102 6 -6 14 -7 18 -2 5 4 2 10 -4 12
-15 5 -18 70 -4 75 5 2 3 8 -4 15 -8 7 -16 8 -22 2z"/>
<path d="M8308 3380 c31 -13 28 -26 -8 -33 -16 -4 -30 -13 -30 -21 0 -18 28
-41 38 -31 4 4 1 10 -5 12 -21 7 -15 33 7 33 13 0 20 -7 20 -20 0 -11 5 -20
10 -20 14 0 12 64 -2 78 -7 7 -21 12 -32 11 -20 0 -20 -1 2 -9z"/>
<path d="M8380 3344 c0 -54 18 -59 22 -6 4 51 28 48 54 -7 l22 -45 21 43 c12
23 20 48 18 54 -2 7 -12 -6 -22 -28 l-17 -40 -12 35 c-11 31 -17 35 -49 37
l-37 1 0 -44z"/>
<path d="M8543 3345 c0 -27 2 -38 4 -22 2 15 2 37 0 50 -2 12 -4 0 -4 -28z"/>
<path d="M8591 3340 l2 -55 7 45 c4 25 4 49 -1 55 -5 5 -8 -13 -8 -45z"/>
<path d="M8633 3379 c11 -6 17 -22 17 -44 0 -19 5 -35 10 -35 13 0 13 46 0 71
-6 10 -18 19 -28 19 -16 -1 -16 -1 1 -11z"/>
<path d="M8712 3378 c-17 -17 -15 -63 3 -78 9 -7 18 -10 22 -6 4 3 -2 12 -12
20 -22 16 -14 62 13 69 13 4 13 5 2 6 -9 0 -21 -4 -28 -11z"/>
<path d="M8768 3385 c-3 -3 -4 -30 -2 -61 3 -54 3 -55 -27 -61 -21 -4 -27 -9
-20 -16 7 -7 18 -6 36 3 23 12 25 19 25 77 0 62 -1 68 -12 58z"/>
<path d="M8876 3374 c-23 -22 -20 -61 5 -74 27 -15 38 -4 14 14 -22 16 -14 62
13 69 15 4 15 5 0 6 -9 0 -24 -6 -32 -15z"/>
<path d="M8992 3378 c-20 -20 -15 -66 9 -79 15 -8 24 -8 32 0 8 8 5 11 -11 11
-13 0 -22 6 -22 15 0 10 10 15 30 15 18 0 30 5 30 13 0 18 -21 37 -40 37 -9 0
-21 -5 -28 -12z m48 -13 c0 -8 -9 -15 -20 -15 -20 0 -26 11 -13 23 12 13 33 7
33 -8z"/>
<path d="M9092 3314 c0 -43 3 -64 5 -46 3 25 8 32 19 28 26 -10 54 12 54 42 0
30 -16 52 -38 52 -9 0 -6 -6 8 -18 29 -24 20 -65 -13 -60 -17 2 -22 10 -22 35
0 17 -3 35 -7 39 -5 4 -7 -28 -6 -72z"/>
<path d="M9313 3379 c11 -6 17 -22 17 -44 0 -19 5 -35 10 -35 14 0 12 64 -2
78 -7 7 -19 12 -27 12 -13 -1 -13 -2 2 -11z"/>
<path d="M9375 3380 c-3 -5 -1 -10 4 -10 6 0 11 5 11 10 0 6 -2 10 -4 10 -3 0
-8 -4 -11 -10z"/>
<path d="M2610 3290 l0 -40 120 0 c131 0 139 4 126 55 -6 25 -7 25 -126 25
l-120 0 0 -40z"/>
<path d="M2940 3290 l0 -41 83 3 82 3 0 35 0 35 -82 3 -83 3 0 -41z"/>
<path d="M7922 3180 c-18 -29 -19 -36 -7 -38 8 -2 15 -10 15 -18 0 -8 6 -14
14 -14 16 0 28 34 16 47 -5 4 -10 19 -12 33 -4 25 -4 24 -26 -10z m13 -20 c3
-5 1 -10 -4 -10 -6 0 -11 5 -11 10 0 6 2 10 4 10 3 0 8 -4 11 -10z"/>
<path d="M7987 3204 c-4 -4 -7 -14 -7 -23 1 -13 2 -13 11 2 14 24 29 12 29
-24 0 -31 -9 -36 -28 -17 -9 9 -12 8 -12 -5 0 -23 29 -34 41 -16 15 22 6 83
-11 87 -9 1 -19 0 -23 -4z"/>
<path d="M1874 3005 c0 -71 1 -99 3 -62 2 37 2 96 0 130 -2 34 -3 4 -3 -68z"/>
<path d="M10516 3006 c21 -15 30 -14 19 3 -3 6 -14 11 -23 11 -13 0 -13 -2 4
-14z"/>
<path d="M10571 3016 c12 -10 59 -15 59 -6 0 5 -14 10 -32 10 -17 0 -29 -2
-27 -4z"/>
<path d="M10680 3013 c15 -7 12 -43 -4 -43 -8 0 -17 7 -19 15 -4 11 -4 10 -3
-2 1 -12 10 -18 24 -17 17 0 21 -4 17 -15 -3 -11 0 -10 10 3 8 11 15 25 15 30
0 6 -4 5 -9 -3 -7 -11 -10 -9 -13 9 -1 13 -9 25 -16 26 -7 1 -8 0 -2 -3z"/>
<path d="M10594 2954 c-8 -20 -13 -38 -11 -40 2 -2 11 14 20 36 19 50 12 53
-9 4z"/>
<path d="M10510 2970 c-13 -8 -12 -10 3 -10 10 0 17 -8 17 -19 0 -11 -8 -22
-17 -24 -17 -4 -17 -5 0 -6 22 -1 33 24 21 49 -7 14 -13 17 -24 10z"/>
<path d="M10726 2961 c-4 -5 3 -7 14 -4 23 6 26 13 6 13 -8 0 -17 -4 -20 -9z"/>
<path d="M10725 2920 c3 -5 11 -10 16 -10 6 0 7 5 4 10 -3 6 -11 10 -16 10 -6
0 -7 -4 -4 -10z"/>
<path d="M1873 2820 c0 -30 2 -43 4 -27 2 15 2 39 0 55 -2 15 -4 2 -4 -28z"/>
<path d="M1874 2620 c0 -80 2 -112 3 -72 2 39 2 105 0 145 -1 39 -3 7 -3 -73z"/>
<path d="M7910 2461 c0 -4 11 -6 25 -3 14 2 25 6 25 8 0 2 -11 4 -25 4 -14 0
-25 -4 -25 -9z"/>
<path d="M7987 2464 c-4 -4 -7 -17 -6 -28 0 -20 1 -20 10 2 12 30 29 19 29
-19 0 -30 -23 -41 -34 -16 -3 6 -5 3 -3 -8 1 -12 10 -20 22 -20 17 0 20 7 20
45 0 32 -4 46 -15 48 -9 1 -19 0 -23 -4z"/>
<path d="M7915 2431 c-3 -7 3 -11 14 -11 13 0 21 -7 21 -16 0 -12 -6 -15 -21
-11 -13 3 -19 1 -16 -6 2 -7 12 -12 23 -12 14 0 19 7 19 30 0 30 -26 47 -40
26z"/>
<path d="M9019 2368 c3 -29 7 -43 9 -31 2 13 13 24 28 27 38 10 29 50 -11 54
l-30 3 4 -53z m41 27 c0 -8 -7 -15 -15 -15 -8 0 -15 7 -15 15 0 8 7 15 15 15
8 0 15 -7 15 -15z"/>
<path d="M9505 2374 c6 -49 15 -72 15 -38 0 11 10 24 23 29 12 6 22 19 22 30
0 15 -8 21 -33 23 l-33 3 6 -47z m45 21 c0 -8 -7 -15 -15 -15 -8 0 -15 7 -15
15 0 8 7 15 15 15 8 0 15 -7 15 -15z"/>
<path d="M9723 2394 c-7 -7 -12 -28 -12 -46 l1 -33 8 30 7 30 4 -28 c6 -38 22
-30 23 11 1 39 -14 56 -31 36z"/>
<path d="M9091 2352 c2 -31 3 -32 6 -9 5 33 19 35 27 3 6 -24 31 -40 47 -30
17 10 9 22 -11 17 -11 -3 -20 0 -20 6 0 6 11 11 25 11 14 0 25 4 25 9 0 16
-25 28 -62 28 -37 1 -38 0 -37 -35z"/>
<path d="M9200 2383 c0 -20 19 -63 29 -63 5 0 12 11 15 25 8 33 24 32 29 -2 3
-23 4 -22 6 9 1 28 -3 36 -15 34 -9 -1 -21 -11 -26 -21 -10 -17 -12 -16 -24 6
-7 13 -13 19 -14 12z"/>
<path d="M9302 2378 c-27 -27 -2 -75 32 -62 23 9 20 23 -4 17 -11 -3 -20 0
-20 6 0 6 9 11 21 11 14 0 19 5 17 17 -4 22 -29 28 -46 11z"/>
<path d="M9360 2384 c0 -7 7 -24 15 -40 12 -24 15 -25 21 -11 6 17 7 17 19 0
11 -15 13 -15 24 5 6 11 11 29 11 39 -1 17 -1 17 -14 0 -14 -18 -15 -18 -25 0
-10 17 -10 17 -11 1 0 -10 -3 -18 -6 -18 -4 0 -13 8 -20 18 -7 9 -14 12 -14 6z"/>
<path d="M9587 2383 c-12 -12 -7 -50 8 -63 30 -25 61 30 33 58 -13 13 -31 16
-41 5z m36 -19 c9 -10 -4 -34 -19 -34 -8 0 -14 9 -14 20 0 19 19 27 33 14z"/>
<path d="M9654 2375 c-4 -9 1 -22 12 -31 17 -14 17 -15 2 -10 -19 6 -25 -8 -9
-18 21 -13 41 6 38 37 -3 35 -33 50 -43 22z"/>
<path d="M9773 2355 c0 -22 2 -30 4 -17 2 12 2 30 0 40 -3 9 -5 -1 -4 -23z"/>
<path d="M9802 2378 c-16 -16 -15 -43 3 -58 21 -18 47 5 43 39 -3 29 -27 38
-46 19z m36 -31 c2 -10 -3 -17 -12 -17 -10 0 -16 9 -16 21 0 24 23 21 28 -4z"/>
<path d="M9867 2384 c-11 -11 -8 -64 3 -64 6 0 10 11 10 25 0 34 27 32 33 -2
4 -21 4 -19 3 7 -1 27 -6 36 -21 38 -12 2 -24 0 -28 -4z"/>
<path d="M1874 2200 c0 -69 1 -97 3 -62 2 34 2 90 0 125 -2 34 -3 6 -3 -63z"/>
<path d="M11023 2025 c0 -33 2 -45 4 -27 2 18 2 45 0 60 -2 15 -4 0 -4 -33z"/>
<path d="M1871 2044 c0 -11 3 -14 6 -6 3 7 2 16 -1 19 -3 4 -6 -2 -5 -13z"/>
<path d="M1874 1785 c0 -77 2 -107 3 -67 2 40 2 103 0 140 -2 37 -3 4 -3 -73z"/>
<path d="M7910 1705 c-19 -51 25 -102 49 -56 11 20 -2 44 -29 54 -10 4 -7 6 8
6 27 1 30 21 2 21 -13 0 -24 -10 -30 -25z m43 -40 c1 -5 -6 -11 -15 -13 -11
-2 -18 3 -18 13 0 17 30 18 33 0z"/>
<path d="M7987 1724 c-4 -4 -7 -14 -7 -23 1 -14 2 -13 11 2 16 28 29 20 29
-18 0 -37 -24 -50 -34 -17 -3 10 -4 7 -3 -8 3 -32 31 -37 43 -8 19 42 -12 98
-39 72z"/>
<path d="M8971 1653 c1 -32 4 -48 6 -35 3 14 12 22 24 22 11 0 23 -10 28 -22
7 -17 9 -9 8 32 -2 54 -2 55 -34 58 l-33 3 1 -58z m57 20 c2 -8 -6 -13 -22
-13 -17 0 -26 5 -26 16 0 19 41 16 48 -3z"/>
<path d="M9620 1685 c0 -11 -11 -15 -40 -15 -39 0 -40 -1 -40 -37 0 -47 14
-33 19 20 2 19 20 4 23 -20 2 -22 9 -29 31 -31 20 -3 27 1 28 15 0 16 1 16 9
-2 7 -16 9 -11 9 20 0 31 -2 36 -9 20 -7 -17 -9 -15 -9 13 -1 31 -21 48 -21
17z m0 -50 c0 -26 -14 -33 -25 -15 -9 14 1 40 15 40 5 0 10 -11 10 -25z"/>
<path d="M9250 1680 c0 -5 -13 -10 -28 -10 -20 0 -32 -7 -40 -22 l-11 -23 0
23 c-1 24 -28 31 -48 11 -8 -8 -13 -8 -17 0 -4 6 -16 11 -26 11 -21 0 -37 -40
-25 -59 8 -14 42 -14 50 -1 3 5 0 7 -8 4 -8 -3 -18 -1 -22 5 -3 6 0 11 9 11 8
0 20 2 28 5 7 3 22 -2 33 -10 19 -16 19 -16 -4 -9 -16 4 -21 3 -17 -5 9 -14
46 -15 46 -1 0 7 6 7 19 0 25 -13 51 -13 51 0 0 5 -6 7 -14 4 -8 -3 -17 -1
-20 4 -3 5 6 12 20 15 20 3 28 0 31 -14 12 -46 20 -7 14 64 -1 11 -21 8 -21
-3z m-153 -26 c-3 -3 -12 -4 -19 -1 -8 3 -5 6 6 6 11 1 17 -2 13 -5z"/>
<path d="M9810 1680 c0 -5 -15 -11 -32 -11 -18 -1 -25 -3 -15 -6 16 -4 15 -6
-4 -22 -13 -10 -19 -23 -15 -29 10 -16 63 -15 69 1 4 10 6 10 6 0 1 -7 4 -13
9 -13 6 0 7 38 3 83 -1 11 -21 8 -21 -3z m-20 -60 c0 -5 -7 -10 -15 -10 -8 0
-15 5 -15 10 0 6 7 10 15 10 8 0 15 -4 15 -10z"/>
<path d="M9334 1656 c-15 -39 22 -74 49 -47 9 9 5 11 -13 9 -19 -2 -25 2 -25
17 0 15 6 19 23 18 13 -2 21 1 17 7 -9 15 -45 12 -51 -4z"/>
<path d="M9404 1656 c-10 -26 1 -51 22 -54 24 -3 38 20 29 49 -7 22 -43 25
-51 5z m38 -38 c-16 -16 -37 4 -28 28 6 16 8 16 23 1 13 -13 15 -19 5 -29z"/>
<path d="M9474 1656 c-11 -29 0 -51 26 -51 21 0 25 5 25 30 0 24 -5 31 -23 33
-13 2 -24 -3 -28 -12z m38 -38 c-16 -16 -37 4 -28 28 6 16 8 16 23 1 13 -13
15 -19 5 -29z"/>
<path d="M9670 1635 c0 -19 5 -35 10 -35 6 0 10 14 10 31 0 39 22 34 31 -7 6
-27 7 -27 8 9 1 35 -1 37 -29 37 -28 0 -30 -3 -30 -35z"/>
<path d="M9854 1656 c-15 -39 22 -74 50 -46 8 8 7 10 -5 5 -10 -4 -20 -2 -24
4 -3 6 0 11 9 11 8 0 20 2 28 5 7 3 22 -2 33 -11 17 -13 17 -15 3 -10 -10 3
-18 1 -18 -4 0 -6 9 -10 20 -10 16 0 20 7 20 35 0 28 -4 35 -19 35 -11 0 -23
-5 -27 -11 -4 -8 -9 -8 -17 0 -16 16 -47 14 -53 -3z"/>
<path d="M1874 1535 c0 -55 1 -76 3 -47 2 29 2 74 0 100 -2 26 -3 2 -3 -53z"/>
<path d="M1874 1135 c0 -126 2 -177 3 -112 2 65 2 168 0 230 -1 62 -3 9 -3
-118z"/>
<path d="M8611 1156 c12 -10 59 -15 59 -6 0 5 -14 10 -32 10 -17 0 -29 -2 -27
-4z"/>
<path d="M8695 1150 c-4 -6 -4 -14 -1 -17 3 -4 6 -1 6 7 0 10 3 10 17 -1 14
-12 16 -12 12 0 -7 19 -25 25 -34 11z"/>
<path d="M8867 1153 c-4 -3 -7 -16 -7 -29 0 -17 5 -22 24 -20 25 1 26 16 0 16
-22 0 -17 20 9 30 21 8 21 9 1 9 -11 1 -24 -2 -27 -6z"/>
<path d="M10084 1148 c-5 -8 -2 -9 9 -5 21 8 32 -10 18 -27 -9 -10 -8 -15 2
-19 16 -6 20 32 5 50 -13 16 -25 17 -34 1z"/>
<path d="M10157 1153 c-4 -3 -7 -17 -7 -30 0 -17 6 -23 21 -23 14 0 19 -5 17
-17 -2 -10 -12 -17 -22 -16 -13 1 -15 -2 -8 -9 18 -18 42 -1 42 31 0 24 -3 28
-20 24 -13 -4 -20 0 -20 9 0 22 12 29 27 16 11 -8 12 -7 7 6 -6 16 -25 21 -37
9z"/>
<path d="M10264 1148 c-5 -7 -2 -9 8 -5 9 3 22 0 29 -6 11 -10 11 -9 0 6 -16
20 -27 22 -37 5z"/>
<path d="M8805 1140 c-3 -5 -2 -10 4 -10 5 0 12 -19 14 -42 3 -41 4 -41 5 10
2 48 -8 66 -23 42z"/>
<path d="M8350 1124 c0 -11 -10 -24 -22 -29 -30 -13 -32 -58 -3 -63 20 -4 20
-3 1 11 -12 9 -17 20 -13 31 10 25 31 14 35 -17 6 -46 19 -29 18 22 -1 46 -16
88 -16 45z"/>
<path d="M8452 1085 c-1 -32 2 -55 8 -55 5 0 10 25 10 55 0 71 -14 71 -18 0z"/>
<path d="M9912 1085 c0 -46 2 -54 8 -33 4 14 4 41 0 60 -7 28 -8 24 -8 -27z"/>
<path d="M8110 1120 c0 -8 5 -32 11 -53 11 -39 32 -46 37 -11 3 16 1 16 -7 4
-6 -8 -11 -13 -11 -10 -1 15 -29 82 -30 70z"/>
<path d="M8164 1116 c-4 -11 0 -22 12 -31 25 -18 27 -14 10 20 -13 25 -16 26
-22 11z"/>
<path d="M8226 1115 c-3 -9 -6 -24 -5 -33 0 -9 5 -4 10 12 9 32 6 48 -5 21z"/>
<path d="M9583 1080 c0 -30 2 -45 4 -32 3 17 11 22 33 22 22 0 30 -5 33 -22 2
-13 4 2 4 32 0 30 -2 45 -4 33 -3 -18 -11 -23 -33 -23 -22 0 -30 5 -33 23 -2
12 -4 -3 -4 -33z"/>
<path d="M8397 1105 c-8 -19 7 -68 21 -71 7 -1 8 0 2 3 -12 6 -13 36 -1 49 6
5 4 14 -4 21 -10 10 -14 9 -18 -2z"/>
<path d="M8712 1111 c-11 -7 -11 -9 0 -14 9 -3 15 1 15 9 0 8 -1 14 -1 14 -1
0 -7 -4 -14 -9z"/>
<path d="M10007 1107 c-9 -25 5 -77 22 -76 10 0 11 2 4 6 -15 5 -18 50 -4 55
5 2 3 8 -4 15 -10 9 -14 9 -18 0z"/>
<path d="M10283 1098 c-37 -41 -37 -48 -1 -47 23 1 26 3 11 6 -28 5 -29 11 -1
40 12 13 19 23 16 23 -2 0 -14 -10 -25 -22z"/>
<path d="M9141 1071 c1 -36 1 -36 8 -6 3 17 13 30 21 30 8 0 17 -13 21 -30 l6
-30 4 29 c6 41 26 44 38 4 8 -29 9 -30 10 -8 1 39 -10 47 -61 47 l-48 -1 1
-35z"/>
<path d="M9283 1075 c0 -22 2 -30 4 -17 2 12 2 30 0 40 -3 9 -5 -1 -4 -23z"/>
<path d="M9315 1094 c9 -9 14 -23 11 -30 -3 -7 -1 -16 4 -19 6 -4 10 7 10 23
0 18 -6 32 -16 36 -25 9 -27 7 -9 -10z"/>
<path d="M9364 1095 c12 -9 17 -22 13 -35 -3 -11 -1 -20 4 -20 5 0 9 10 9 23
0 24 -17 47 -34 47 -6 0 -3 -7 8 -15z"/>
<path d="M8488 1088 c7 -7 12 -22 12 -35 0 -13 5 -23 10 -23 6 0 10 10 10 23
0 24 -17 47 -34 47 -6 0 -5 -5 2 -12z"/>
<path d="M9700 1085 c-18 -22 -8 -50 20 -52 l25 -3 -25 12 -25 12 28 4 c15 2
27 8 27 13 0 6 -9 7 -20 4 -11 -3 -20 -2 -20 4 0 5 8 12 18 14 14 4 14 5 1 6
-9 0 -22 -6 -29 -14z"/>
<path d="M9825 1089 c-11 -16 -1 -19 13 -3 7 8 8 14 3 14 -5 0 -13 -5 -16 -11z"/>
<path d="M9947 1089 c6 -8 13 -25 16 -39 4 -17 5 -15 4 9 -1 21 -8 36 -17 39
-12 4 -13 2 -3 -9z"/>
<path d="M8262 1060 c1 -16 5 -30 10 -30 4 0 8 14 8 30 0 17 -4 30 -9 30 -5 0
-9 -13 -9 -30z"/>
<path d="M9782 1060 c0 -19 2 -27 5 -17 2 9 2 25 0 35 -3 9 -5 1 -5 -18z"/>
<path d="M9863 1068 c2 -19 -2 -23 -26 -21 -15 1 -25 -2 -22 -8 4 -5 15 -9 26
-9 24 0 26 -30 2 -31 -12 0 -13 -2 -5 -6 22 -9 42 18 42 58 0 22 -4 39 -10 39
-5 0 -9 -10 -7 -22z"/>
<path d="M8690 1058 c0 -4 9 -8 20 -8 11 0 20 4 20 8 0 4 -9 8 -20 8 -11 0
-20 -4 -20 -8z"/>
<path d="M8866 1059 c6 -11 31 -12 37 -1 3 4 -6 8 -19 8 -13 1 -21 -2 -18 -7z"/>
<path d="M10088 1058 c5 -5 16 -8 23 -6 8 3 3 7 -10 11 -17 4 -21 3 -13 -5z"/>
<path d="M10591 1033 c1 -34 2 -35 9 -13 11 36 11 50 0 50 -5 0 -10 -17 -9
-37z"/>
<path d="M10628 1063 c6 -3 13 -19 13 -36 l1 -32 7 30 c8 39 38 46 44 10 4
-24 4 -24 3 2 -1 26 -5 28 -41 29 -22 1 -34 -1 -27 -3z"/>
<path d="M10731 1038 c0 -28 2 -30 9 -13 12 28 12 45 0 45 -5 0 -10 -15 -9
-32z"/>
<path d="M10769 1057 c6 -6 11 -20 12 -31 1 -18 2 -17 8 4 10 34 34 31 43 -5
6 -29 6 -29 5 5 -2 33 -4 35 -40 36 -27 1 -35 -2 -28 -9z"/>
<path d="M8200 1045 c0 -8 5 -15 10 -15 6 0 10 7 10 15 0 8 -4 15 -10 15 -5 0
-10 -7 -10 -15z"/>
<path d="M7910 986 c0 -9 40 -13 46 -5 3 5 -6 9 -20 9 -14 0 -26 -2 -26 -4z"/>
<path d="M7987 984 c-4 -4 -7 -14 -7 -23 1 -13 2 -13 11 2 14 24 29 12 29 -24
0 -30 -23 -41 -33 -16 -4 7 -6 6 -6 -4 -1 -20 28 -34 41 -21 15 15 5 86 -12
90 -9 1 -19 0 -23 -4z"/>
<path d="M7921 914 c0 -11 3 -14 6 -6 3 7 2 16 -1 19 -3 4 -6 -2 -5 -13z"/>
<path d="M8110 805 l0 -75 80 0 80 0 0 75 0 75 -80 0 -80 0 0 -75z m150 0 l0
-65 -70 0 -70 0 0 65 0 65 70 0 70 0 0 -65z"/>
<path d="M8207 813 c-23 -24 -30 -26 -47 -15 -23 14 -27 0 -5 -18 12 -10 20
-8 44 12 25 19 47 48 38 48 -1 0 -15 -12 -30 -27z"/>
<path d="M8352 807 l-2 -57 58 2 c56 3 57 3 57 33 0 25 -4 30 -25 30 -20 0
-26 -6 -28 -28 -3 -21 -8 -27 -19 -23 -8 3 -19 6 -23 6 -5 0 -11 21 -13 48 -3
46 -3 46 -5 -11z m101 -12 c8 -18 -11 -31 -25 -17 -11 11 -3 32 12 32 4 0 10
-7 13 -15z"/>
<path d="M8550 836 c0 -23 -2 -25 -19 -14 -26 16 -53 -6 -49 -41 3 -23 8 -26
42 -26 23 0 40 5 43 13 4 10 10 9 24 -4 22 -20 25 -13 7 16 -11 17 -10 22 2
31 12 8 10 9 -7 4 -18 -5 -23 -2 -23 14 0 11 -4 23 -10 26 -6 4 -10 -5 -10
-19z m-10 -36 c13 -8 12 -11 -5 -24 -23 -16 -47 -4 -38 20 6 16 22 18 43 4z"/>
<path d="M8693 845 c9 -21 -10 -29 -21 -9 -13 23 -20 -1 -14 -48 3 -32 8 -38
27 -38 18 0 24 6 27 27 5 40 28 42 28 2 0 -25 3 -30 11 -22 8 8 16 9 29 1 10
-7 25 -8 36 -3 18 8 17 9 -3 12 -28 5 -30 23 -3 23 25 0 26 16 1 29 -14 8 -22
7 -31 -4 -11 -13 -15 -14 -29 -2 -9 8 -22 12 -28 10 -8 -3 -13 4 -13 16 0 12
-5 21 -11 21 -6 0 -9 -7 -6 -15z m-3 -62 c0 -20 -3 -24 -11 -16 -7 7 -9 19 -6
27 10 24 17 19 17 -11z"/>
<path d="M9216 834 c-4 -10 -13 -14 -26 -11 -10 3 -24 -1 -30 -9 -9 -10 -16
-11 -31 -1 -15 9 -24 9 -40 -2 -14 -8 -24 -9 -28 -3 -5 9 -60 16 -98 13 -19
-1 -16 -28 5 -41 16 -11 16 -11 0 -6 -12 4 -18 0 -18 -10 0 -12 7 -15 25 -12
17 4 25 1 25 -8 0 -8 5 -14 10 -14 6 0 10 3 10 8 0 4 12 12 26 19 19 9 31 9
44 1 10 -7 25 -8 36 -3 17 8 15 9 -9 13 -15 2 -25 8 -22 13 10 16 44 10 55
-10 8 -15 20 -20 48 -18 l39 1 -2 43 c-1 47 -9 63 -19 37z m-221 -42 c-3 -3
-11 0 -18 7 -9 10 -8 11 6 5 10 -3 15 -9 12 -12z m55 -2 c0 -11 -7 -20 -15
-20 -8 0 -15 9 -15 20 0 11 7 20 15 20 8 0 15 -9 15 -20z m161 10 c5 0 9 -4 9
-9 0 -15 -41 -24 -52 -13 -14 14 0 35 19 28 8 -3 19 -6 24 -6z"/>
<path d="M9397 838 c-3 -8 -24 -14 -52 -16 -27 -1 -50 -4 -52 -6 -3 -2 -3 -19
0 -38 l3 -33 8 33 c7 26 14 32 34 32 24 0 25 -1 7 -14 -23 -16 -14 -46 14 -46
11 0 25 8 30 18 10 16 10 16 11 0 0 -10 4 -18 8 -18 9 0 8 87 0 96 -3 3 -8 -1
-11 -8z m-27 -62 c0 -3 -4 -8 -10 -11 -5 -3 -10 -1 -10 4 0 6 5 11 10 11 6 0
10 -2 10 -4z"/>
<path d="M8890 820 c-12 -8 -10 -10 10 -11 l25 -1 -27 -10 c-16 -5 -28 -13
-28 -16 1 -39 63 -42 68 -4 3 22 -13 52 -27 52 -3 0 -13 -5 -21 -10z m27 -46
c-3 -3 -12 -4 -19 -1 -8 3 -5 6 6 6 11 1 17 -2 13 -5z"/>
<path d="M9430 785 c0 -19 5 -35 10 -35 6 0 10 8 10 18 1 16 1 16 11 0 15 -27
47 -22 55 6 3 14 3 30 -1 35 -10 17 -43 13 -54 -6 -10 -17 -10 -17 -11 0 0 9
-4 17 -10 17 -5 0 -10 -16 -10 -35z m70 5 c0 -11 -7 -20 -15 -20 -15 0 -21 21
-8 33 12 13 23 7 23 -13z"/>
<path d="M1873 600 c0 -25 2 -35 4 -22 2 12 2 32 0 45 -2 12 -4 2 -4 -23z"/>
<path d="M4653 493 c-21 -8 -16 -54 7 -60 12 -3 20 -14 20 -25 0 -14 -5 -18
-15 -14 -8 3 -15 1 -15 -5 0 -6 8 -9 18 -7 13 2 18 15 20 49 3 47 -11 71 -35
62z m27 -38 c0 -8 -4 -15 -9 -15 -13 0 -22 16 -14 24 11 11 23 6 23 -9z"/>
<path d="M4717 493 c-11 -20 -15 -60 -8 -72 6 -9 10 -2 15 23 5 25 11 34 21
29 8 -3 15 -1 15 5 0 5 -7 13 -16 16 -20 8 -22 8 -27 -1z"/>
<path d="M4820 480 c-6 -12 -7 -20 -1 -20 5 0 12 6 14 13 8 19 27 -12 27 -45
0 -31 -18 -47 -32 -27 -8 12 -9 11 -5 -1 2 -8 12 -15 23 -15 16 0 20 8 22 49
2 32 -1 52 -10 57 -20 13 -26 11 -38 -11z"/>
<path d="M4890 479 c0 -5 5 -7 12 -3 8 5 9 1 4 -12 -5 -14 -4 -16 5 -7 6 6 8
16 5 22 -9 14 -26 14 -26 0z"/>
<path d="M4930 461 c-12 -24 -13 -34 -1 -27 9 6 22 46 15 46 -2 0 -8 -9 -14
-19z"/>
<path d="M9135 455 c-20 -19 -25 -34 -25 -72 0 -60 21 -93 59 -93 36 0 51 18
58 69 7 48 -1 84 -23 105 -22 22 -41 20 -69 -9z m65 -24 c24 -46 5 -121 -30
-121 -24 0 -40 28 -40 70 0 42 16 70 40 70 11 0 24 -9 30 -19z"/>
<path d="M9363 413 c-54 -83 -54 -93 -3 -93 29 0 40 -4 40 -15 0 -8 7 -15 15
-15 8 0 15 6 15 14 0 8 8 17 18 21 16 6 16 7 0 19 -12 9 -18 30 -20 71 -2 32
-7 60 -13 61 -5 1 -29 -27 -52 -63z m34 -60 c-3 -2 -15 -3 -26 -1 -20 3 -20 3
2 38 l22 35 3 -33 c2 -19 1 -36 -1 -39z"/>
<path d="M9500 431 c0 -49 1 -50 33 -53 25 -2 33 -8 35 -27 4 -28 -12 -41 -50
-41 -16 0 -28 -4 -28 -10 0 -13 56 -13 81 0 14 8 19 21 19 50 0 36 -3 40 -32
48 -23 5 -34 15 -36 29 -3 18 3 22 30 25 47 4 41 22 -9 26 l-43 3 0 -50z"/>
<path d="M9728 473 c-29 -7 -20 -23 12 -23 34 0 49 -22 30 -45 -7 -8 -21 -15
-31 -15 -11 0 -19 -4 -19 -10 0 -5 11 -10 24 -10 13 0 29 -7 36 -15 20 -24 -6
-48 -47 -43 -20 3 -32 0 -30 -6 2 -6 18 -12 36 -14 56 -6 93 47 56 78 -11 9
-13 16 -5 24 17 17 12 64 -9 76 -20 10 -25 11 -53 3z"/>
<path d="M9850 465 c0 -11 12 -15 46 -15 25 0 44 -3 42 -7 -46 -90 -66 -153
-49 -153 6 0 14 12 17 28 4 15 20 53 35 84 16 32 29 62 29 68 0 6 -26 10 -60
10 -47 0 -60 -3 -60 -15z"/>
<path d="M4735 440 c-3 -5 -1 -10 4 -10 6 0 11 -9 11 -21 0 -15 -5 -19 -15
-15 -8 3 -15 1 -15 -4 0 -6 9 -10 20 -10 15 0 20 7 20 29 0 31 -14 49 -25 31z"/>
<path d="M1874 300 c0 -58 1 -81 3 -52 2 28 2 76 0 105 -2 28 -3 5 -3 -53z"/>
<path d="M9270 300 c0 -5 5 -10 10 -10 6 0 10 5 10 10 0 6 -4 10 -10 10 -5 0
-10 -4 -10 -10z"/>
<path d="M9640 300 c0 -5 5 -10 10 -10 6 0 10 5 10 10 0 6 -4 10 -10 10 -5 0
-10 -4 -10 -10z"/>
<path d="M7917 244 c-14 -14 -6 -42 13 -47 11 -3 20 -11 20 -17 0 -8 -8 -10
-21 -7 -13 3 -19 1 -16 -6 2 -7 12 -12 23 -12 28 0 30 35 3 56 -13 10 -21 21
-17 25 4 4 15 1 24 -7 15 -12 17 -12 12 1 -5 17 -30 25 -41 14z"/>
<path d="M7987 244 c-4 -4 -7 -14 -7 -23 1 -13 2 -13 11 2 14 24 29 12 29 -24
0 -32 -14 -38 -29 -11 -9 15 -10 15 -11 -4 0 -24 20 -36 39 -25 18 12 10 85
-9 89 -9 1 -19 0 -23 -4z"/>
<path d="M1870 180 c0 -5 5 -10 11 -10 5 0 7 5 4 10 -3 6 -8 10 -11 10 -2 0
-4 -4 -4 -10z"/>
<path d="M1982 173 c48 -2 129 -2 180 0 51 1 12 3 -87 3 -99 0 -141 -2 -93 -3z"/>
<path d="M2338 173 c45 -2 119 -2 165 0 45 1 8 3 -83 3 -91 0 -128 -2 -82 -3z"/>
<path d="M2723 173 c54 -2 139 -2 190 0 51 1 7 3 -98 3 -104 0 -146 -2 -92 -3z"/>
<path d="M3193 173 c104 -2 270 -2 370 0 100 1 16 2 -188 2 -203 0 -285 -1
-182 -2z"/>
<path d="M3838 173 c50 -2 134 -2 185 0 50 1 9 3 -93 3 -102 0 -143 -2 -92 -3z"/>
<path d="M4398 173 c156 -2 408 -2 560 0 152 1 25 2 -283 2 -308 0 -433 -1
-277 -2z"/>
<path d="M5423 173 c103 -2 271 -2 375 0 103 1 18 2 -188 2 -206 0 -291 -1
-187 -2z"/>
<path d="M6078 173 c50 -2 134 -2 185 0 50 1 9 3 -93 3 -102 0 -143 -2 -92 -3z"/>
<path d="M6442 173 c48 -2 129 -2 180 0 51 1 12 3 -87 3 -99 0 -141 -2 -93 -3z"/>
<path d="M6988 173 c145 -2 379 -2 520 0 141 1 23 2 -263 2 -286 0 -402 -1
-257 -2z"/>
<path d="M7788 173 c6 -2 18 -2 25 0 6 3 1 5 -13 5 -14 0 -19 -2 -12 -5z"/>
</g>
</svg>
