<?xml version="1.0" standalone="no"?>
<!DOCTYPE svg PUBLIC "-//W3C//DTD SVG 20010904//EN"
 "http://www.w3.org/TR/2001/REC-SVG-20010904/DTD/svg10.dtd">
<svg version="1.0" xmlns="http://www.w3.org/2000/svg"
 width="794.000000pt" height="178.000000pt" viewBox="0 0 794.000000 178.000000"
 preserveAspectRatio="xMidYMid meet">

<g transform="translate(0.000000,178.000000) scale(0.100000,-0.100000)"
fill="#000000" stroke="none">
<path d="M985 1768 c-328 -8 -572 -24 -669 -43 -113 -24 -196 -86 -237 -179
-94 -214 -92 -1121 3 -1324 31 -64 97 -127 162 -151 117 -44 428 -63 1026 -62
542 0 872 17 1002 51 88 24 184 120 208 210 36 132 44 246 45 600 0 565 -30
711 -165 801 -87 58 -184 73 -572 89 -381 15 -491 16 -803 8z m612 -832 c40
-22 73 -44 73 -47 0 -6 -544 -324 -627 -368 l-23 -12 0 380 0 380 253 -146
c138 -80 285 -164 324 -187z"/>
<path d="M6470 915 l0 -785 105 0 c77 0 105 3 105 13 0 6 5 29 11 50 l10 38
38 -39 c53 -55 112 -75 200 -70 51 3 78 9 98 24 47 35 82 95 104 179 40 154
36 632 -5 771 -35 115 -91 159 -201 159 -83 -1 -121 -18 -182 -83 l-43 -45 0
287 0 286 -120 0 -120 0 0 -785z m412 134 c30 -41 40 -158 36 -409 -3 -226 -4
-237 -28 -285 -36 -73 -90 -85 -154 -34 l-27 21 3 333 3 334 34 35 c50 51 98
53 133 5z"/>
<path d="M2794 1633 c2 -10 66 -239 140 -509 l136 -491 0 -251 0 -252 125 0
125 0 0 253 0 252 140 499 c77 275 140 503 140 508 0 4 -54 8 -119 8 -105 0
-120 -2 -125 -17 -9 -31 -124 -564 -141 -652 -8 -47 -17 -86 -19 -89 -3 -2 -8
13 -11 34 -6 35 -89 433 -133 639 l-17 80 -123 3 c-114 2 -123 1 -118 -15z"/>
<path d="M4980 1550 l0 -99 123 -3 122 -3 3 -657 2 -658 120 0 120 0 0 660 0
660 125 0 125 0 0 100 0 100 -370 0 -370 0 0 -100z"/>
<path d="M3793 1250 c-123 -26 -191 -102 -230 -257 -14 -55 -17 -115 -17 -318
1 -221 3 -259 22 -327 42 -156 109 -214 267 -232 72 -9 183 8 235 34 79 41
130 133 149 274 14 96 14 428 1 519 -31 212 -121 305 -302 313 -46 2 -102 -1
-125 -6z m144 -182 c12 -13 26 -41 32 -63 13 -49 15 -582 2 -638 -25 -105
-128 -117 -163 -19 -15 42 -19 562 -5 644 15 86 87 127 134 76z"/>
<path d="M7512 1246 c-108 -27 -171 -98 -208 -232 -21 -78 -31 -424 -16 -555
20 -169 68 -266 153 -309 54 -28 153 -40 238 -29 161 20 239 102 249 262 l5
77 -60 0 c-33 0 -80 3 -104 6 l-44 6 -12 -73 c-9 -59 -17 -78 -38 -96 -33 -29
-77 -29 -110 -1 -30 27 -45 99 -45 221 l0 77 211 0 212 0 -6 198 c-8 289 -35
369 -148 425 -68 34 -193 45 -277 23z m148 -166 c29 -16 41 -67 47 -202 l6
-128 -98 0 -98 0 6 134 c5 133 19 187 49 199 22 9 68 7 88 -3z"/>
<path d="M4362 768 c4 -464 4 -474 27 -531 27 -68 66 -102 137 -118 98 -23
213 23 263 105 13 20 26 36 31 36 4 0 11 -29 15 -65 l7 -65 99 0 99 0 0 555 0
555 -125 0 -125 0 0 -446 0 -446 -31 -29 c-42 -39 -89 -42 -124 -8 -19 19 -20
35 -23 474 l-3 455 -125 0 -126 0 4 -472z"/>
<path d="M5650 772 c0 -524 2 -543 65 -606 90 -91 281 -59 357 59 13 19 26 35
29 35 3 0 10 -28 15 -63 l9 -62 98 -3 97 -3 0 556 0 555 -125 0 -125 0 0 -446
0 -446 -30 -28 c-55 -51 -115 -43 -137 20 -8 25 -12 160 -12 468 l-1 432 -120
0 -120 0 0 -468z"/>
</g>
</svg>
